<svg id="Layer_1" enable-background="new 0 0 512 512" viewBox="0 0 512 512" xmlns="http://www.w3.org/2000/svg"><g clip-rule="evenodd" fill-rule="evenodd"><g><path d="m314.483 18.343 180.006 102.871c.96.549 1.511 1.498 1.511 2.605v232.238c0 1.652-1.348 3-3 3h-180.006c-1.652 0-3-1.348-3-3v-335.11c0-1.099.544-2.043 1.494-2.595.951-.551 2.04-.554 2.995-.009z" fill="#cad0d7"/><path d="m151.26 79.184h186.006v279.873h-186.006z" fill="#e4e8eb"/><path d="m245.751 16.629 64.335 36.766 56.016 32.013c1.197.684 1.765 2.042 1.411 3.375s-1.52 2.23-2.899 2.23h-120.351-120.351c-1.379 0-2.545-.897-2.899-2.23s.213-2.69 1.411-3.375l56.016-32.013 64.335-36.766c.948-.542 2.028-.542 2.976 0z" fill="#f76c82"/><path d="m337.266 127.049 84.124 48.076v183.932h-84.124z" fill="#a9b0bb"/><path d="m175.4 120.284h137.724v238.773h-137.724z" fill="#cad0d7"/><path d="m244.263 151.392c13.758 0 25.015 11.257 25.015 25.015v33.962c0 1.652-1.348 3-3 3h-44.03c-1.652 0-3-1.348-3-3v-33.962c0-13.758 11.257-25.015 25.015-25.015z" fill="#a9b0bb"/></g><g><path d="m280.46 381.71c-26.924 0-40.433 32.618-21.396 51.655 3.507 3.507 3.507 9.194 0 12.701l-19.335 19.335c-3.507 3.507-9.195 3.507-12.701 0-19.037-19.037-51.655-5.528-51.655 21.396 0 4.962-4.022 8.981-8.981 8.981h-27.343c-4.959 0-8.981-4.019-8.981-8.981 0-26.957-32.594-40.457-51.655-21.396-3.507 3.507-9.194 3.507-12.701 0l-19.335-19.335c-3.507-3.507-3.507-9.195 0-12.701 19.037-19.037 5.528-51.655-21.396-51.655-4.962 0-8.981-4.022-8.981-8.981v-27.343c0-4.959 4.019-8.981 8.981-8.981 26.924 0 40.433-32.618 21.396-51.655-3.507-3.507-3.507-9.195 0-12.701l19.335-19.335c3.507-3.507 9.194-3.507 12.701 0 19.037 19.037 51.655 5.528 51.655-21.396 0-4.962 4.022-8.981 8.981-8.981h27.343c4.959 0 8.981 4.019 8.981 8.981 0 26.924 32.618 40.433 51.655 21.396 3.507-3.507 9.195-3.507 12.701 0l19.335 19.335c3.507 3.507 3.507 9.195 0 12.701-19.037 19.037-5.528 51.655 21.396 51.655 4.962 0 8.981 4.022 8.981 8.981v27.343c0 4.959-4.019 8.981-8.981 8.981z" fill="#fdcd56"/><ellipse cx="152.721" cy="359.058" fill="#f4f6f8" rx="66.813" ry="66.813" transform="matrix(.383 -.924 .924 .383 -237.449 362.748)"/><path d="m55.907 366.058c-3.866 0-7-3.134-7-7s3.134-7 7-7h51.81c2.137 0 4.05.958 5.334 2.468l23.528 23.846 24.464-53.715c1.601-3.503 5.739-5.046 9.242-3.445.942.43 1.741 1.044 2.376 1.779l.002-.002 25.405 29.212 51.465-.116c3.851 0 6.973 3.122 6.973 6.973s-3.122 6.973-6.973 6.973l-54.345.122c-2.054.086-4.126-.731-5.576-2.406l-20.375-23.429-24.037 52.777c-.348.864-.874 1.672-1.581 2.367-2.748 2.703-7.168 2.666-9.871-.082l-28.932-29.322z" fill="#66d4f1"/></g></g></svg>