<svg height="512" viewBox="0 0 121.514 121.878" width="512" xmlns="http://www.w3.org/2000/svg" xmlns:xlink="http://www.w3.org/1999/xlink"><linearGradient id="linear-gradient" gradientUnits="userSpaceOnUse" x1="51.605" x2="70.143" y1="-4.177" y2="127.728"><stop offset="0" stop-color="#fdc70c"/><stop offset=".412" stop-color="#f3903f"/><stop offset=".748" stop-color="#ed683c"/><stop offset="1" stop-color="#e93e3a"/></linearGradient><g id="Layer_2" data-name="Layer 2"><g id="Layer_1-2" data-name="Layer 1"><g id="builder"><path d="m120.1 87.866h-42.521a1.418 1.418 0 0 1 0-2.836h18.421v-11.336h-26.922a1.418 1.418 0 0 1 0-2.835h12.754v-11.338h-7.085a1.416 1.416 0 0 1 -1.417-1.416v-12.755h-4.252a1.418 1.418 0 0 1 0-2.835h12.754v-11.338h-18.423a1.417 1.417 0 1 1 0-2.833h9.921v-11.339h-35.43a1.417 1.417 0 1 1 0-2.833h29.76v-11.337h-21.26a1.417 1.417 0 1 1 0-2.835h73.7a1.415 1.415 0 0 1 1.416 1.416v42.517 14.172 14.171 14.172a1.416 1.416 0 0 1 -1.416 1.418zm-19.478 32.6a9.921 9.921 0 1 1 9.919-9.921 9.931 9.931 0 0 1 -9.919 9.921zm0-17.006a7.085 7.085 0 1 0 7.085 7.085 7.094 7.094 0 0 0 -7.085-7.085zm-87.867-82.2a8.5 8.5 0 1 1 8.5-8.5 8.513 8.513 0 0 1 -8.5 8.5zm0-14.172a5.669 5.669 0 1 0 5.669 5.669 5.676 5.676 0 0 0 -5.669-5.669zm21.785 73.673c5.743 0 11.255-2.748 15.519-7.735a26.073 26.073 0 0 0 6.321-16.621 1.415 1.415 0 0 0 -1.416-1.416h-40.849a1.417 1.417 0 0 0 -1.415 1.416 26.064 26.064 0 0 0 6.32 16.621c4.263 4.987 9.774 7.735 15.52 7.735zm-18.957-22.937c.707 9.769 8.579 20.1 18.954 20.1s18.249-10.333 18.956-20.1zm39.189-9.592a20.272 20.272 0 0 0 -8.537-15.158v5.154a4.843 4.843 0 1 1 -9.686 0v-8.764a20.444 20.444 0 0 0 -4.019 0v8.764a4.843 4.843 0 0 1 -9.686 0v-5.154a20.265 20.265 0 0 0 -8.537 15.158zm-43.306 0h-1.089a1.417 1.417 0 1 0 0 2.834h48.323a1.417 1.417 0 1 0 0-2.834h-1.085a23.106 23.106 0 0 0 -12.123-18.946 1.419 1.419 0 0 0 -2.09 1.248v7.694a2.01 2.01 0 0 1 -4.019 0v-10.009a1.415 1.415 0 0 0 -1.194-1.4 23.375 23.375 0 0 0 -7.3 0 1.417 1.417 0 0 0 -1.194 1.4v10.009a2.01 2.01 0 0 1 -4.019 0v-7.694a1.419 1.419 0 0 0 -2.09-1.248 23.108 23.108 0 0 0 -12.12 18.946zm56.194 73.646a1.422 1.422 0 0 0 1.421-1.416v-28.021a7.67 7.67 0 0 0 -7.661-7.661h-9.747a1.418 1.418 0 0 0 -1.418 1.42 10.017 10.017 0 0 1 -10 10.005h-11.426a10.016 10.016 0 0 1 -10-10 1.416 1.416 0 0 0 -1.416-1.418h-9.752a7.669 7.669 0 0 0 -7.661 7.654v28.021a1.416 1.416 0 0 0 1.417 1.416zm-64.827-2.834h6.3v-12.144a3.855 3.855 0 0 1 3.851-3.851h.845a3.855 3.855 0 0 1 3.85 3.852v12.139h33.721v-12.14a3.856 3.856 0 0 1 3.851-3.851h.845a3.856 3.856 0 0 1 3.851 3.852v12.139h6.3v-26.6a4.833 4.833 0 0 0 -4.827-4.827h-8.41a12.858 12.858 0 0 1 -12.761 11.423h-11.421a12.858 12.858 0 0 1 -12.762-11.422h-8.406a4.832 4.832 0 0 0 -4.827 4.828v26.6zm51.4 0v-12.144a1.016 1.016 0 0 1 1.015-1.015h.845a1.014 1.014 0 0 1 1.015 1.015v12.14zm-42.259 0v-12.144a1.016 1.016 0 0 1 1.015-1.015h.845a1.014 1.014 0 0 1 1.015 1.015v12.14zm71.238-62.357h9.958v-11.337h-17.006v11.337zm12.793-11.337v11.337h22.675v-11.337zm-19.841-17.006h22.675v-11.337h-22.675zm8.5 2.833v11.338h34.016v-11.338h-34.013zm-14.164-28.342v11.337h17v-11.337zm19.84 11.337h28.34v-11.337h-28.345v11.337zm11.338 14.172h17.002v-11.337h-17.007v11.337zm-17.011 42.514h17.006v-11.336h-17.006zm19.841 0h14.172v-11.336h-14.172zm-5.669 14.174h19.841v-11.338h-19.841z" fill="url(#linear-gradient)" fill-rule="evenodd"/></g></g></g></svg>