<svg id="line_gradient" viewBox="0 0 64 64" xmlns="http://www.w3.org/2000/svg" xmlns:xlink="http://www.w3.org/1999/xlink" data-name="line gradient"><linearGradient id="linear-gradient" gradientUnits="userSpaceOnUse" x1="4.744" x2="59.264" y1="31.999" y2="31.999"><stop offset="0" stop-color="#096fe0"/><stop offset=".15843" stop-color="#167ce3"/><stop offset="1" stop-color="#5ec3f6"/></linearGradient><path d="m59.1875 21.25391c-.35889-1.65332-2-2.70947-3.65674-2.34961l-7.45721 1.61053c-.43512-2.92529-1.02423-5.65961-1.77472-8.1286 1.10156-.76562 3.12402-2.42041 3.39844-4.40723.33482-2.02581-1.60061-4.02585-3.67778-3.96916-2.47701.01799-5.11519 2.24407-6.25289 3.32659-5.16602-2.354-19.82812-2.35352-24.99707-.00049-1.13574-1.08545-3.76855-3.31543-6.24268-3.33594-2.09119-.09465-4.00282 1.95637-3.67772 3.96781.27391 1.9863 2.29637 3.64157 3.39793 4.40768-3.53613 11.60254-3.55029 28.29248-.04395 38.89209-1.73535 1.03613-3.93018 3.20605-3.37061 6.25098 1.16262 4.75129 8.2901 1.70746 10.34223-1.04529 1.4849.78637 5.21716 1.48833 12.09282 1.50767 7.12257.00003 10.51026-.72214 12.09571-1.49704 1.44189 1.94971 4.74805 3.51611 7.07227 3.51611 1.71242.01124 3.01426-.90142 3.2783-2.47073.55959-3.0449-1.63523-5.21531-3.37058-6.25144 2.14832-6.50598 3.03564-15.57361 2.41388-24.62909l8.07489-1.74396c1.62095-.31425 2.74075-2.04362 2.35547-3.65088zm-15.01123 30.17529c-.17773.49414.06006 1.04297.54102 1.25439.14551.06396 3.55908 1.60156 3.02979 4.48438-.05029.27393-.14404.78418-1.18555.8291-2.18799.09326-5.53076-1.94727-5.89453-3.27148-.11523-.41846-.4873-.71484-.9209-.73389-.36182-.01318-.70703.16992-.89453.47412-.01124.15128-2.45929 1.57813-11.58399 1.50439-9.54639 0-11.37598-1.33153-11.58447-1.51757-.42535-.73344-1.62277-.55952-1.81541.26565-.35744 1.31931-3.66359 3.37839-5.87795 3.26804-1.0459-.04346-1.13965-.55469-1.19043-.8291-.5293-2.88281 2.88428-4.42041 3.02734-4.4834.48389-.20947.72217-.75928.54346-1.25586-3.73828-10.39941-3.73389-27.60059.01025-39.16016.14453-.44531-.04053-.93164-.44385-1.16992-.74561-.44043-2.91699-2.00928-3.10645-3.39502-.03613-.2666-.02783-.68066.46338-1.19141.33496-.3457.71631-.47461 1.21484-.50146 1.89404.01465 4.50098 2.34961 5.3457 3.24854.32715.34668.85449.41699 1.25977.16309 3.86182-2.41748 20.4458-2.41748 24.30762 0 .40527.25293.93213.18506 1.25879-.16211.84375-.89648 3.44971-3.22607 5.354-3.23975.52783.01221.8833.15625 1.21582.49951 1.69341 1.741-1.72494 3.97895-2.64005 4.58939-.40291.23776-.58797.72408-.44442 1.1694.83698 2.59015 1.4845 5.51117 1.94824 8.67004l-7.20703 1.55652c-.37218.07733-.68407.37863-.75512.75391h-22.57007c-2.19678 0-3.98389 1.7832-3.98389 3.97461v9.5625c0 2.19141 1.78711 3.97461 3.98389 3.97461h23.37256c2.19678 0 3.98389-1.7832 3.98389-3.97461v-8.88013l3.84314-.83002c.59192 9.08484-.3642 18.11523-2.60486 24.3537zm-7.55322-23.51904v3.25421c-2.01331-1.82501-5.45856-4.43536-8.71924-4.43536-5.81885 0-11.22852 5.90527-11.45605 6.15674-.19076.26243-.32365.59922-.20788.92047.08335.42735.51861.74922.94957.75043h20.4336c.56193-.03897.96203-.43183.99997-1.00002.00003.00002.00003-5.64646.00003-5.64646 0-.29303.10498-.5592.26581-.78357 0 0 .13116.60339.13116.60339.11455.54327.66242.88208 1.18799.76513 0 0 .72998-.15765.72998-.15765v8.44818c0 1.08887-.89014 1.97461-1.98389 1.97461h-23.37256c-1.09375 0-1.98389-.88574-1.98389-1.97461v-9.5625c0-1.08887.89014-1.97461 1.98389-1.97461h22.36627c-.8092.61926-1.32477 1.58441-1.32477 2.66162zm-1.44482 4.64648h-15.4798c5.5808-4.66152 9.73979-5.3755 15.4798 0zm21.90918-10.0752c-.15527.24121-.39551.40771-.67725.46826l-15.64795 3.37939s-.45459-2.09082-.45459-2.09082l15.64551-3.37891c.89812-.22492 1.66259.8559 1.13428 1.62207z" fill="url(#linear-gradient)"/></svg>