<svg id="Layer_1" enable-background="new 0 0 512 512" viewBox="0 0 512 512" xmlns="http://www.w3.org/2000/svg" xmlns:xlink="http://www.w3.org/1999/xlink"><linearGradient id="SVGID_1_" gradientUnits="userSpaceOnUse" x1="123.179" x2="378.193" y1="540.239" y2="98.541"><stop offset="0" stop-color="#f9ea66"/><stop offset="1" stop-color="#14b185"/></linearGradient><path clip-rule="evenodd" d="m281.96 325.69h6.476c0-36.054 0-72.107 0-108.162 0-4.401 3.568-7.969 7.969-7.969s7.969 3.568 7.969 7.969v29.007h172.414v-31.683c0-4.418 3.582-8 8-8s8 3.582 8 8v31.683h6.212c4.418 0 8 3.582 8 8s-3.582 8-8 8h-6.214v17.659h6.214c4.418 0 8 3.582 8 8s-3.582 8-8 8h-6.214v29.496h.214c3.3 0 6 2.7 6 6v166.21c0 3.3-2.699 6-6 6h-60.96v-76.52c0-3.3-2.7-6-6-6h-77.122c-3.3 0-6 2.7-6 6v76.52h-60.96c-3.3 0-6-2.7-6-6v-166.21c.002-3.3 2.701-6 6.002-6zm88.427-120.435c-2.754 0-5 2.246-5 5v12.931c0 2.754 2.246 5 5 5h82.597c2.754 0 5-2.246 5-5v-12.931c0-2.754-2.246-5-5-5h-33.299v-42.727h7.914c9.055 0 16.465-7.409 16.465-16.465s-7.409-16.465-16.465-16.465h-20.598c-88.189-40.154-176.377-80.31-264.565-120.465-1.161-.657-2.503-1.032-3.933-1.032l-28.053.018c-2.498-.003-4.793 1.167-6.275 3.049l-93.212 118.507c-3.367.503-5.963 3.419-5.963 6.923v18.93c0 3.855 3.145 7 7 7h21.926v32.802h-10.247c-3.3 0-6 2.7-6 6v36.495c0 3.3 2.7 6 6 6h36.495c3.3 0 6-2.7 6-6v-36.495c0-3.3-2.7-6-6-6h-10.248v-32.802h28.926v8.942c0 3.305 2.695 6 6 6h1.589v284.29h-1.957c-5.931 0-11.008 3.21-13.551 8.568l-13.221 27.856c-1.264 2.665.664 5.715 3.614 5.715h126.3c2.949 0 4.878-3.05 3.614-5.715l-13.221-27.856c-2.543-5.358-7.62-8.568-13.551-8.568h-1.956v-284.29h1.589c3.305 0 6-2.695 6-6v-8.942h233.584v42.727zm106.4 57.28h-58.298v17.659h58.298zm-74.298 0h-98.116v17.659h98.116zm74.298 33.659h-58.298v29.496h58.298zm-74.298 0h-98.116v29.496h98.116zm-288.019-69.866 32.042-30.328v30.328zm4.382-131.867h12.382l28.867 28.867v14.142h-41.249zm-87.499 35.137 67.054-85.26-5.659 40.124h-7.895c-3.305 0-6 2.695-6 6v39.137h-47.5zm77.515-45.137 8.514-60.361h14.19l9.287 65.843-2.554-2.554c-1.947-1.947-4.317-2.929-7.071-2.929h-22.366zm50.758 24.25-11.189-79.33 220.094 100.216h-198.43v-6.27c0-2.754-.982-5.124-2.929-7.071zm-16.691 68.759-40.494 38.328v-38.328zm3.577 75.387v30.329h-32.042zm0 56.858v30.329h-32.043zm0 56.858v30.329h-32.043zm0 56.858v38.329h-40.495zm-44.071 19.799v-30.327h32.041zm0-56.858v-30.328h32.042zm0-56.858v-30.328h32.042zm0-56.858v-30.328h32.042zm275.788 86.628c-2.754 0-5 2.246-5 5v18.501c0 2.754 2.246 5 5 5h18.501c2.754 0 5-2.246 5-5v-18.501c0-2.754-2.246-5-5-5zm62.957 0c-2.754 0-5 2.246-5 5v18.501c0 2.754 2.246 5 5 5h18.501c2.754 0 5-2.246 5-5v-18.501c0-2.754-2.246-5-5-5zm-125.914 0c-2.754 0-5 2.246-5 5v18.501c0 2.754 2.246 5 5 5h18.501c2.754 0 5-2.246 5-5v-18.501c0-2.754-2.246-5-5-5z" fill="url(#SVGID_1_)" fill-rule="evenodd"/></svg>