<svg id="Layer_1" enable-background="new 0 0 512 512" viewBox="0 0 512 512" xmlns="http://www.w3.org/2000/svg" xmlns:xlink="http://www.w3.org/1999/xlink"><linearGradient id="SVGID_1_" gradientUnits="userSpaceOnUse" x1="79.359" x2="421.078" y1="464.128" y2="122.409"><stop offset="0" stop-color="#fcc60e"/><stop offset="1" stop-color="#e92e29"/></linearGradient><path d="m397.229 207.96-40.398-40.398c-2.913-2.912-6.628-4.451-10.745-4.451h-33.413l-1.449-1.449c-2.34-2.339-5.877-2.996-8.903-1.654l-12.492 5.548c-6.181-3.428-12.707-6.134-19.487-8.08l-4.907-12.747c-1.188-3.088-4.156-5.126-7.466-5.126h-27.062c-3.31 0-6.277 2.038-7.466 5.126l-4.907 12.747c-6.78 1.946-13.307 4.652-19.487 8.08l-12.492-5.548c-3.025-1.346-6.563-.687-8.904 1.654l-1.449 1.449h-50.685c-8.379 0-15.195 6.816-15.195 15.195v310.499c0 8.379 6.816 15.195 15.195 15.195h260.969c8.379 0 15.195-6.816 15.195-15.195v-270.101c-.001-4.117-1.54-7.832-4.452-10.744zm-40.163-17.535 17.3 17.3h-17.3zm-171.987-13.566 11.217 4.981c2.409 1.071 5.195.885 7.441-.499 7.024-4.326 14.643-7.484 22.643-9.389 2.566-.61 4.667-2.446 5.614-4.908l4.405-11.443h16.075l4.405 11.443c.947 2.462 3.048 4.298 5.614 4.908 8 1.904 15.618 5.062 22.643 9.389 2.248 1.384 5.032 1.57 7.441.499l11.217-4.981 11.367 11.366-4.979 11.212c-1.07 2.411-.884 5.195.5 7.442 4.326 7.024 7.484 14.645 9.389 22.649.611 2.566 2.447 4.667 4.91 5.614l11.438 4.402v16.076l-11.442 4.404c-2.462.947-4.298 3.048-4.908 5.614-1.903 7.998-5.062 15.616-9.389 22.644-1.383 2.247-1.569 5.03-.499 7.441l4.981 11.216-11.367 11.368-11.212-4.979c-2.409-1.07-5.194-.884-7.442.5-7.021 4.324-14.641 7.483-22.649 9.39-2.565.61-4.666 2.446-5.613 4.908l-4.403 11.438h-16.076l-4.404-11.442c-.947-2.461-3.047-4.298-5.613-4.908-8-1.905-15.619-5.063-22.644-9.389-2.248-1.384-5.032-1.569-7.441-.499l-11.217 4.981-11.367-11.367 4.979-11.212c1.07-2.411.884-5.196-.5-7.442-4.324-7.021-7.483-14.641-9.39-22.649-.61-2.565-2.447-4.666-4.908-5.613l-11.438-4.403v-16.075l11.44-4.404c2.462-.947 4.298-3.048 4.908-5.613 1.905-8.003 5.064-15.622 9.39-22.646 1.383-2.246 1.569-5.03.499-7.441l-4.98-11.215zm-58.759 311.141v-308.89h33.88l-1.687 1.687c-2.34 2.341-2.997 5.88-1.654 8.904l5.547 12.49c-3.428 6.181-6.134 12.708-8.08 19.49l-12.745 4.906c-3.088 1.188-5.126 4.156-5.126 7.466v27.062c0 3.31 2.038 6.277 5.126 7.466l12.742 4.905c1.948 6.786 4.654 13.314 8.082 19.495l-5.546 12.486c-1.343 3.024-.686 6.563 1.654 8.904l19.136 19.136c2.341 2.34 5.878 2.995 8.904 1.654l12.492-5.548c6.181 3.427 12.707 6.133 19.487 8.079l4.907 12.747c1.188 3.088 4.156 5.126 7.466 5.126h27.062c3.31 0 6.277-2.038 7.466-5.126l4.905-12.742c6.786-1.947 13.314-4.654 19.495-8.082l12.486 5.546c3.026 1.344 6.565.686 8.904-1.655l19.136-19.137c2.34-2.34 2.997-5.879 1.654-8.903l-5.548-12.491c3.428-6.183 6.134-12.709 8.08-19.488l12.746-4.906c3.088-1.188 5.126-4.156 5.126-7.466v-27.062c0-3.31-2.038-6.277-5.127-7.466l-12.741-4.904c-1.946-6.785-4.653-13.313-8.082-19.495l5.546-12.487c1.343-3.024.686-6.563-1.655-8.904l-1.686-1.686h12.393v33.017c0 6.395 5.202 11.598 11.597 11.598h33.017v264.274zm237.06-28.731c0 4.418-3.582 8-8 8h-198.76c-4.418 0-8-3.582-8-8s3.582-8 8-8h198.76c4.418 0 8 3.582 8 8zm0-38.857c0 4.418-3.582 8-8 8h-198.76c-4.418 0-8-3.582-8-8s3.582-8 8-8h198.76c4.418 0 8 3.582 8 8zm0-38.856c0 4.418-3.582 8-8 8h-198.76c-4.418 0-8-3.582-8-8s3.582-8 8-8h198.76c4.418 0 8 3.582 8 8zm-111.761-120.509c.175-.202.355-.411.259-1.213-.105-.865-.385-3.165-8.693-4.529-17.271-2.837-20.317-12.917-20.597-18.673-.431-8.864 5.045-16.381 13.85-19.392v-.165c0-4.418 3.582-8 8-8s8 3.582 8 8v.063c6.005 2.053 10.967 6.504 13.569 12.703 1.711 4.073-.205 8.763-4.279 10.473-4.071 1.709-8.763-.204-10.473-4.279-1.784-4.247-6.307-4.464-8.703-3.92-.966.219-4.109 1.137-3.983 3.741.105 2.171 4.562 3.225 7.21 3.659 13.371 2.196 20.767 8.384 21.982 18.39.623 5.128-.774 9.833-4.04 13.608-2.707 3.131-6.692 5.464-11.284 6.72-.075 4.354-3.628 7.859-7.999 7.859-4.418 0-8-3.582-8-8v-.006c-7.603-2.347-13.335-8.005-15.229-15.599-1.068-4.287 1.54-8.629 5.827-9.698 4.286-1.063 8.629 1.54 9.698 5.827.887 3.56 4.975 4.758 8.143 4.658 3.193-.074 5.857-1.204 6.742-2.227zm-37.895-196.411h6.305v43.815c0 6.871 5.591 12.462 12.462 12.462h23.895c6.871 0 12.462-5.591 12.462-12.462v-43.815h6.305c3.974 0 7.619-2.329 9.287-5.935 1.668-3.604 1.083-7.891-1.488-10.918l-30.714-36.175c-1.947-2.293-4.789-3.607-7.798-3.608-.001 0-.001 0-.001 0-3.009 0-5.852 1.315-7.799 3.608l-30.713 36.174c-2.572 3.028-3.157 7.314-1.489 10.919 1.666 3.606 5.312 5.935 9.286 5.935zm30.714-37.491 18.247 21.491h-1.838c-4.418 0-8 3.582-8 8v48.277h-16.818v-48.277c0-4.418-3.582-8-8-8h-1.838zm-116.386 65.169h6.306v43.814c0 6.871 5.591 12.462 12.462 12.462h23.894c6.871 0 12.462-5.591 12.462-12.462v-43.814h6.306c3.974 0 7.618-2.329 9.286-5.935 1.668-3.604 1.084-7.891-1.487-10.918l-30.714-36.175c-1.947-2.293-4.79-3.608-7.799-3.608 0 0 0 0-.001 0-3.008 0-5.851 1.314-7.799 3.608l-30.713 36.174c-2.572 3.028-3.156 7.314-1.488 10.919 1.667 3.606 5.311 5.935 9.285 5.935zm30.715-37.492 18.247 21.492h-1.839c-4.418 0-8 3.582-8 8v48.276h-16.817v-48.276c0-4.418-3.582-8-8-8h-1.839zm140.628 37.492h6.306v43.814c0 6.871 5.591 12.462 12.462 12.462h23.894c6.871 0 12.462-5.591 12.462-12.462v-43.814h6.306c3.974 0 7.618-2.329 9.286-5.935 1.668-3.604 1.084-7.891-1.487-10.918l-30.715-36.176c-1.947-2.293-4.79-3.608-7.799-3.607-3.009 0-5.852 1.315-7.799 3.608l-30.713 36.174c-2.572 3.028-3.156 7.314-1.488 10.919 1.666 3.606 5.311 5.935 9.285 5.935zm30.713-37.492 18.248 21.492h-1.839c-4.418 0-8 3.582-8 8v48.276h-16.817v-48.276c0-4.418-3.582-8-8-8h-1.839zm-85.67 248.975c30.995 0 56.212-25.217 56.212-56.213 0-30.995-25.217-56.212-56.212-56.212-30.996 0-56.213 25.217-56.213 56.212 0 30.996 25.216 56.213 56.213 56.213zm0-96.425c22.173 0 40.212 18.039 40.212 40.212 0 22.174-18.039 40.213-40.212 40.213-22.174 0-40.213-18.039-40.213-40.213 0-22.173 18.039-40.212 40.213-40.212z" fill="url(#SVGID_1_)"/></svg>