<?xml version="1.0"?>
<svg xmlns="http://www.w3.org/2000/svg" xmlns:xlink="http://www.w3.org/1999/xlink" viewBox="0 0 512 512" width="512" height="512"><defs><linearGradient id="linear-gradient" x1="-52.02" y1="460.288" x2="453.782" y2="-45.514" gradientUnits="userSpaceOnUse"><stop offset="0" stop-color="#003f8a"/><stop offset="0.518" stop-color="#00d7df"/><stop offset="1" stop-color="#006df0"/></linearGradient></defs><g id="Crane-2" data-name="Crane"><path d="M501.657,122.343l-32-32A8,8,0,0,0,464,88H290.216L176,19.47V16a8,8,0,0,0-8-8H136a8,8,0,0,0-8,8v4.686L60.687,88H56V56a8,8,0,0,0-8-8H16a8,8,0,0,0-8,8V168a8,8,0,0,0,8,8H48a8,8,0,0,0,8-8V136h48V456H56a8,8,0,0,0-8,8v32a8,8,0,0,0,8,8H248a8,8,0,0,0,8-8V464a8,8,0,0,0-8-8H200V136H400v32H384a8,8,0,0,0-8,8v32a8,8,0,0,0,8,8h16v24a8,8,0,0,0,8,8,32,32,0,1,1-32,32,8,8,0,0,0-16,0,48,48,0,1,0,56-47.333V216h16a8,8,0,0,0,8-8V176a8,8,0,0,0-8-8H416V136h80a8,8,0,0,0,5.657-13.657ZM424,184v16H392V184ZM259.117,88H176V38.13ZM160,24V88H144V24ZM128,43.314V88H83.314ZM40,160H24V64H40ZM240,488H64V472H240Zm-56-32H120V136h64ZM56,120V104H460.687l16,16Z" style="fill:url(#linear-gradient)"/></g></svg>
