<svg xmlns="http://www.w3.org/2000/svg" version="1.1" xmlns:xlink="http://www.w3.org/1999/xlink" width="512" height="512" x="0" y="0" viewBox="0 0 512 512" style="enable-background:new 0 0 512 512" xml:space="preserve" class=""><g><path fill="#8bc9e0" d="M430.67 348.897V80.843a7.667 7.667 0 0 0-7.669-7.666H370.765s-.632.02-.807.037c-.1.009-5.689.533-6.841 6.436-.02.127-.069.58-.076.68-.01.155-.026.496-.026.512v321.671a7.667 7.667 0 0 0 7.668 7.666h52.321a7.667 7.667 0 0 0 7.669-7.666v-53.606c-.003-.003-.003-.007-.003-.01zm-15.338-129.328v3.273l-33.937-34.776 33.937-34.775zm-3.045 22.109-33.937 34.776v-69.551zm-33.937 72.449 33.937 34.776-33.937 34.775zm3.045-18.837 33.937-34.776v69.551zm33.937-206.781v27.11l-26.456-27.11zm-36.982 39.587V99.679l33.937 34.776-33.937 34.775zm10.526 266.751 26.456-27.109v27.109z" opacity="1" data-original="#baafb9" class=""></path><path fill="#8b9cd4" d="M169.155 260.205h-34.619v-22.99c0-4.234-3.433-7.666-7.669-7.666s-7.669 3.432-7.669 7.666v22.99h-34.62a7.667 7.667 0 1 0 0 15.332h34.619v46.938c0 4.234 3.433 7.666 7.669 7.666s7.669-3.432 7.669-7.666v-46.938h34.619a7.667 7.667 0 1 0 .001-15.332z" opacity="1" data-original="#737a93" class=""></path><path fill="#9be7c2" fill-rule="evenodd" d="M169.157 324.871v180.314c0 2.627-1.636 4.814-3.63 4.814H3.63C1.605 510 0 507.813 0 505.186v-331.09c0-2.658 1.605-4.814 3.63-4.814h78.643c1.483 0 2.301 1.083 2.301 2.392v150.805h81.946c1.001 0 2.637.808 2.637 2.392z" clip-rule="evenodd" opacity="1" data-original="#e8eaea" class=""></path><path fill="#8b9cd4" d="m207.004 139.413-35.738-37.817V67.512c0-4.234-3.433-7.666-7.669-7.666s-7.669 3.432-7.669 7.666v34.098l-35.498 37.803a7.663 7.663 0 0 0 .33 10.836 7.643 7.643 0 0 0 5.254 2.083c2.041 0 4.077-.81 5.586-2.413l32.015-34.093 32.219 34.093a7.649 7.649 0 0 0 5.586 2.413c1.885 0 3.774-.69 5.254-2.083a7.662 7.662 0 0 0 .33-10.836z" opacity="1" data-original="#737a93" class=""></path><path fill="#8bc9e0" d="M343.104 59.846h-34.848l40.192-39.018a7.664 7.664 0 0 0 .158-10.84 7.642 7.642 0 0 0-4.916-2.294 12.587 12.587 0 0 0-.585-.031H119.438c-7.744 0-14.044 5.69-14.044 12.684v42.148c0 6.993 6.3 12.683 14.044 12.683H343.103a7.667 7.667 0 1 0 .001-15.332zm-222.372-.004V22.996h4.251l37.956 36.848zm26.267-36.846h69.696l-34.848 33.83zm82.224 36.85-28.471-.001 34.847-33.829 34.848 33.83zm25.28-36.85h69.696l-34.848 33.83zM497.985 7.664h-47.407l-.059.002c-.066 0-.301.012-.348.016a7.635 7.635 0 0 0-5.095 2.307 7.663 7.663 0 0 0 .16 10.84l40.203 39.017h-34.86a7.667 7.667 0 1 0 0 15.332h47.407c3.396 0 6.513-1.1 8.941-2.926.44-.295.856-.638 1.24-1.033.087-.089.162-.185.243-.277 2.224-2.246 3.59-5.201 3.59-8.447V20.347c0-6.994-6.287-12.683-14.015-12.683zm-1.323 41.705-27.174-26.372 27.174.002z" opacity="1" data-original="#baafb9" class=""></path><g fill-rule="evenodd" clip-rule="evenodd"><path fill="#6bd9e7" d="M84.581 360.72v38.85h-47.09c-2.07 0-3.8-1.69-3.8-3.79v-31.27c0-2.07 1.73-3.79 3.8-3.79zM135.431 364.51v31.27c0 2.1-1.69 3.79-3.77 3.79h-47.08v-38.85h47.08c2.08 0 3.77 1.72 3.77 3.79zM135.431 441.6v31.27c0 2.1-1.69 3.79-3.77 3.79h-47.08v-38.85h47.08c2.08 0 3.77 1.72 3.77 3.79zM84.581 437.81v38.85h-47.09c-2.07 0-3.8-1.69-3.8-3.79V441.6c0-2.07 1.73-3.79 3.8-3.79z" opacity="1" data-original="#6bd9e7" class=""></path><path fill="#dea615" d="M84.578 360.715H37.494c-2.076 0-3.802 1.721-3.802 3.792v15.634c0-2.071 1.725-3.792 3.802-3.792h47.084zM131.663 360.715H84.578v15.634h47.084c2.076 0 3.773 1.721 3.773 3.792v-15.634c0-2.071-1.696-3.792-3.772-3.792zM131.663 437.808H84.578v15.634h47.084c2.076 0 3.773 1.721 3.773 3.792V441.6c0-2.071-1.696-3.792-3.772-3.792zM84.578 437.808H37.494c-2.076 0-3.802 1.721-3.802 3.792v15.634c0-2.071 1.725-3.792 3.802-3.792h47.084z" opacity="1" data-original="#00c7dd" class=""></path></g><path fill="#d6b5b5" d="M76.911 360.72h15.34v38.85h-15.34zM76.911 437.81h15.34v38.85h-15.34z" opacity="1" data-original="#cecece" class=""></path><path fill="#1bced2" fill-rule="evenodd" d="M169.155 505.187v-180.32c0-1.575-1.638-2.392-2.632-2.392h-19.799c.994 0 2.603.817 2.603 2.392v180.32c0 2.625-1.638 4.813-3.626 4.813h19.828c1.988 0 3.626-2.188 3.626-4.813zM64.75 206.53v115.945h19.828V171.674c0-1.313-.819-2.392-2.31-2.392H62.41c1.521 0 2.34 1.079 2.34 2.392z" clip-rule="evenodd" opacity="1" data-original="#d4d6d8" class=""></path><path fill="#6bd9e7" d="M84.573 196.716v14.371a7.39 7.39 0 0 1-2.659.48H53.662a7.664 7.664 0 0 1-7.669-7.666 7.67 7.67 0 0 1 7.669-7.666h28.253c.941.001 1.83.164 2.658.481zM84.573 239.411v15.332H53.662a7.67 7.67 0 0 1-7.669-7.666 7.664 7.664 0 0 1 7.669-7.666z" opacity="1" data-original="#6bd9e7" class=""></path><path fill="#6de092" fill-rule="evenodd" d="M445.607 2h-97.532a4.962 4.962 0 0 0-4.972 4.959v68.925c0 2.713 2.223 4.959 4.972 4.959h97.531c2.749 0 4.972-2.246 4.972-4.959V6.959A4.96 4.96 0 0 0 445.607 2z" clip-rule="evenodd" opacity="1" data-original="#fdb440" class=""></path><path fill="#80c585" fill-rule="evenodd" d="M450.579 15.33V6.959A4.962 4.962 0 0 0 445.607 2h-35.533c2.72 0 4.972 2.217 4.972 4.959v68.925c0 2.713-2.252 4.959-4.972 4.959H445.606c2.749 0 4.972-2.246 4.972-4.959V15.33z" clip-rule="evenodd" opacity="1" data-original="#fe9737" class=""></path><path fill="#6de092" fill-rule="evenodd" d="M468.74 482.056v-67.963c0-6.388-5.235-11.58-11.639-11.58H338.98c-6.375 0-11.61 5.192-11.61 11.58v67.963z" clip-rule="evenodd" opacity="1" data-original="#fdb440" class=""></path><path fill="#d6b5b5" fill-rule="evenodd" d="M468.74 471.76H311.285c-10.557 0-19.185 8.605-19.185 19.135v13.972c0 2.829 2.34 5.134 5.176 5.134h201.556c2.837 0 5.147-2.304 5.147-5.134v-13.972c0-10.53-8.627-19.135-19.155-19.135z" clip-rule="evenodd" opacity="1" data-original="#cecece" class=""></path><path fill="#80c585" fill-rule="evenodd" d="M468.74 414.094c0-6.388-5.235-11.58-11.639-11.58h-35.533c6.375 0 11.61 5.192 11.61 11.58v57.666h35.562z" clip-rule="evenodd" opacity="1" data-original="#fe9737" class=""></path><path fill="#8bc9e0" fill-rule="evenodd" d="M503.98 490.895c0-10.53-8.627-19.135-19.155-19.135h-35.562c10.557 0 19.185 8.605 19.185 19.135v13.972c0 2.829-2.34 5.134-5.176 5.134h35.562c2.837 0 5.147-2.304 5.147-5.134v-13.972z" clip-rule="evenodd" opacity="1" data-original="#baafb9" class=""></path><path fill="#d6b5b5" fill-rule="evenodd" d="M211.15 179.753v-35.848c0-2.479-2.047-4.492-4.533-4.492H120.55a4.5 4.5 0 0 0-4.504 4.492v35.848c0 2.479 2.018 4.521 4.504 4.521h86.068c2.485 0 4.532-2.041 4.532-4.521z" clip-rule="evenodd" opacity="1" data-original="#cecece" class=""></path><path fill="#8bc9e0" fill-rule="evenodd" d="M206.617 139.413H177.226c2.486 0 4.533 2.013 4.533 4.492v35.848c0 2.479-2.047 4.521-4.533 4.521h29.391c2.486 0 4.533-2.042 4.533-4.521v-35.848c0-2.479-2.047-4.492-4.533-4.492z" clip-rule="evenodd" opacity="1" data-original="#baafb9" class=""></path></g></svg>