<svg id="Icons" height="512" viewBox="0 0 60 60" width="512" xmlns="http://www.w3.org/2000/svg"><path d="m43 31a1 1 0 0 0 0-2h-4v-18a1 1 0 0 1 1-1h3a1 1 0 0 0 0-2h-3a3 3 0 0 0 -3 3v18h-4a1 1 0 0 0 0 2h4v18a3 3 0 0 0 3 3h3a1 1 0 0 0 0-2h-3a1 1 0 0 1 -1-1v-18z" fill="#346d92"/><path d="m9 10h-4a4 4 0 0 0 -4 4v32a4 4 0 0 0 4 4h25a3 3 0 0 0 3-3v-33a4 4 0 0 0 -4-4z" fill="#c67640"/><path d="m5 10v35a1 1 0 0 0 1 1h22a1 1 0 0 0 1-1v-35z" fill="#f0f2f5"/><circle cx="11" cy="19" fill="#31b791" r="2"/><circle cx="11" cy="29" fill="#31b791" r="2"/><circle cx="11" cy="39" fill="#b9bfcc" r="2"/><path d="m25 10a2.015 2.015 0 0 1 -2 2h-12a2.006 2.006 0 0 1 -2-2 2.015 2.015 0 0 1 2-2h2v-2a2.006 2.006 0 0 1 2-2h4a2.006 2.006 0 0 1 2 2v2h2a2.006 2.006 0 0 1 2 2z" fill="#fccb55"/><rect fill="#31b791" height="16" rx="2" width="16" x="43" y="22"/><rect fill="#31b791" height="16" rx="2" width="16" x="43" y="1"/><rect fill="#b9bfcc" height="16" rx="2" width="16" x="43" y="43"/><g fill="#8991a0"><path d="m24 18h-7a1 1 0 0 1 0-2h7a1 1 0 0 1 0 2z"/><path d="m22 22h-5a1 1 0 0 1 0-2h5a1 1 0 0 1 0 2z"/><path d="m24 28h-7a1 1 0 0 1 0-2h7a1 1 0 0 1 0 2z"/><path d="m22 32h-5a1 1 0 0 1 0-2h5a1 1 0 0 1 0 2z"/><path d="m24 38h-7a1 1 0 0 1 0-2h7a1 1 0 0 1 0 2z"/><path d="m22 42h-5a1 1 0 0 1 0-2h5a1 1 0 0 1 0 2z"/></g><path d="m13 6h4a1 1 0 0 1 0 2h-4z" fill="#dbae4b"/><path d="m50 13a1 1 0 0 1 -.707-.293l-2-2a1 1 0 0 1 1.414-1.414l1.138 1.138 3.323-4.986a1 1 0 1 1 1.664 1.11l-4 6a1 1 0 0 1 -.732.445c-.035 0-.068 0-.1 0z" fill="#fff"/><path d="m50 34a1 1 0 0 1 -.707-.293l-2-2a1 1 0 0 1 1.414-1.414l1.138 1.138 3.323-4.986a1 1 0 1 1 1.664 1.11l-4 6a1 1 0 0 1 -.733.44c-.034.005-.067.005-.099.005z" fill="#fff"/></svg>