<svg id="Layer_1" enable-background="new 0 0 512 512" viewBox="0 0 512 512" xmlns="http://www.w3.org/2000/svg" xmlns:xlink="http://www.w3.org/1999/xlink"><linearGradient id="SVGID_1_" gradientUnits="userSpaceOnUse" x1="21.623" x2="490.393" y1="478.717" y2="9.946"><stop offset=".1" stop-color="#854efe"/><stop offset="1" stop-color="#54dffe"/></linearGradient><path d="m483.76 14.58h-455.5c-15.02 0-27.24 12.22-27.24 27.23-.06-11.9.04 369.59 0 374.13 0 15.01 12.22 27.23 27.23 27.23h23.96c-9.61 13.42-15.13 29.73-15.13 46.87-.42 3.62 1.49 7.41 5.48 7.38h426.91c3.91.02 5.96-3.76 5.48-7.38 0-17.15-5.52-33.45-15.13-46.87h23.93c15.02 0 27.24-12.22 27.24-27.23v-341.63c.03-.04 0-32.44.01-32.5 0-15.02-12.22-27.23-27.24-27.23zm-315.45 432.91c-5.9 12.18-9.06 25.57-9.55 39.08h-110.75c1.18-24.79 15.94-47.48 37.85-58.47 17.8 15.19 45.83 15.18 63.62-.01 7.8 3.92 14.69 9.49 20.53 15.96-.57 1.15-1.14 2.29-1.7 3.44zm-89.55-57.65c0-21.45 17.45-38.9 38.9-38.9 35.64-.42 52.66 45.83 25.21 68.48-24.38 21.63-64.7 2.91-64.11-29.58zm90.9 96.73c.74-31.03 19.73-60.53 47.59-74.16 21.51 18.94 56.02 18.91 77.52-.01 27.84 13.7 46.79 43.17 47.58 74.17zm37.62-119.41c0-26.89 21.85-48.77 48.71-48.77 43.23-.28 65.29 53.72 34.07 83.63-29.8 30.08-83.5 7.6-82.78-34.86zm256.73 119.41h-110.74c-.5-14.8-4.37-29.4-11.3-42.49 5.86-6.47 12.75-12.08 20.58-15.99 17.79 15.2 45.82 15.18 63.62 0 21.92 11.01 36.65 33.69 37.84 58.48zm-108.56-96.73c0-21.45 17.45-38.9 38.9-38.9 35.64-.42 52.66 45.83 25.21 68.48-24.39 21.63-64.71 2.91-64.11-29.58zm144.69 26.1c0 9.03-7.35 16.38-16.39 16.38h-33.21c-4.96-4.82-10.55-8.91-16.52-12.42 24.8-31.97.89-80.31-39.67-79.8-40.55-.51-64.51 47.87-39.63 79.81-5.92 3.56-11.49 7.64-16.5 12.41h-3.61c-8.52-11.48-19.42-21.12-31.93-28.07 30.99-38.35 2.68-97.1-46.7-96.71-49.35-.37-77.59 58.37-46.62 96.7-12.59 6.9-23.45 16.58-32.01 28.08h-3.52c-5.07-4.71-10.59-8.85-16.5-12.42 24.8-31.97.89-80.31-39.67-79.81-40.55-.51-64.51 47.87-39.63 79.81-6 3.53-11.63 7.6-16.52 12.41h-33.26c-9.03 0-16.38-7.35-16.38-16.38v-336.25h488.27zm.01-347.11h-488.27v-27.02c0-9.03 7.35-16.38 16.39-16.38h455.5c9.03 0 16.38 7.35 16.38 16.38zm-32.55-18.99c-.17 10.7-16.11 10.7-16.28 0 .17-10.7 16.11-10.7 16.28 0zm-37.98 0c-.17 10.7-16.11 10.7-16.28 0 .17-10.7 16.11-10.7 16.28 0zm-37.98 0c-.17 10.7-16.11 10.7-16.28 0 .18-10.7 16.11-10.7 16.28 0zm-257.41 259.06c55.4.51 101.47-45.78 101.04-101.05 0-55.72-45.33-101.04-101.04-101.04-54.66-.83-101.79 46.43-101.04 101.05 0 55.71 45.33 101.04 101.04 101.04zm0-191.24c53.27-.34 95.82 47.28 89.65 100.16l-31.27-4.45c4.52-40.05-35.57-73.47-74.12-61.99-1.62-4.99-8.29-25.49-9.77-30.05 8.23-2.44 16.79-3.67 25.51-3.67zm47.78 90.19c.27 25.99-21.71 48.03-47.78 47.78-52.69-.65-66.02-72.75-17.27-92.32 30.34-12.46 65.71 11.65 65.05 44.54zm-83.51-82.84c2.28 7.02 7.51 23.09 9.83 30.25-55.02 27.69-35.98 110.66 25.9 111.23 26.33 0 49.27-17.57 56.38-42.45 3.03.43 27.77 3.96 31.44 4.48-9.45 40.61-45.54 69.53-87.82 69.53-97.85-1.44-124.67-133.19-35.73-173.04zm158.48 149.98h227.86c7.07-.1 7.18-10.73 0-10.85h-21.7v-130.21c0-3-2.43-5.43-5.43-5.43h-27.13c-3 0-5.43 2.43-5.43 5.43v130.21h-10.85v-93.21c0-3-2.43-5.43-5.43-5.43h-27.13c-3 0-5.43 2.43-5.43 5.43v93.21h-10.85v-62.39c0-3-2.43-5.43-5.43-5.43h-27.13c-3 0-5.43 2.43-5.43 5.43v62.39h-10.85v-37.73c0-3-2.43-5.43-5.43-5.43h-27.09c-3 0-5.43 2.43-5.43 5.43v37.73h-21.7c-7.09.03-7.09 10.82.01 10.85zm179.03-135.63h16.28v124.78h-16.28zm-48.83 36.99h16.28v87.79h-16.28zm-48.83 30.82h16.28v56.96h-16.28zm-48.82 24.66h16.28v32.3h-16.28z" fill="url(#SVGID_1_)"/></svg>