<svg id="Layer_1" enable-background="new 0 0 128 128" height="512" viewBox="0 0 128 128" width="512" xmlns="http://www.w3.org/2000/svg" xmlns:xlink="http://www.w3.org/1999/xlink"><linearGradient id="SVGID_1_" gradientTransform="matrix(1 0 0 -1 0 130)" gradientUnits="userSpaceOnUse" x1="91.923" x2="17.558" y1="25.062" y2="99.427"><stop offset="0" stop-color="#2568ef"/><stop offset="1" stop-color="#37d4e9"/></linearGradient><path d="m109.1 55.5-1.7-1.7c-2.2-2.2-5.9-2.2-8.1 0l-4.3 4.2-4.4 4.4v-29.3c0-5.2-4.2-9.4-9.4-9.4h-.6v-2.2c0-1.1-.5-2.2-1.3-3-1.7-1.7-4.4-1.7-6.1 0-.8.8-1.3 1.9-1.3 3.1v2.2h-5.8v-2.2c0-1.1-.5-2.2-1.3-3-1.7-1.7-4.4-1.7-6.1 0-.8.8-1.3 1.9-1.3 3v2.2h-5.8v-2.2c0-1.1-.5-2.2-1.3-3-1.7-1.7-4.4-1.7-6.1 0-.8.8-1.3 1.9-1.3 3.1v2.2h-5.8v-2.2c0-1.1-.5-2.2-1.3-3-1.7-1.7-4.4-1.7-6.1 0-.8.8-1.3 1.9-1.3 3.1v2.2h-.6c-5.2 0-9.4 4.2-9.4 9.4v13.3c0 1 .8 1.8 1.8 1.8s1.8-.8 1.8-1.8v-13.6c0-3.2 2.6-5.9 5.9-5.9h.6v1.9c0 2.4 1.9 4.3 4.3 4.3s4.3-1.9 4.3-4.3v-1.9h5.8v1.9c0 2.4 1.9 4.3 4.3 4.3s4.3-1.9 4.3-4.3v-1.9h5.8v1.9c0 2.4 1.9 4.3 4.3 4.3s4.3-1.9 4.3-4.3v-1.9h6.1v1.9c0 2.4 1.9 4.3 4.3 4.3s4.3-1.9 4.3-4.3v-1.9h.6c3.2 0 5.9 2.6 5.9 5.9v32.8c-.2.2-15.3 15.3-14.3 14.3-.2.3-.4.5-.5.9l-2.1 9.4c-.3 1.3.8 2.4 2.1 2.1l9.4-2.1c.4-.1.7-.3.9-.5.1-.1 4.6-4.6 4.5-4.5v16.9c0 3.2-2.6 5.9-5.9 5.9h-53c-3.2 0-5.9-2.6-5.9-5.9v-34.8c0-1-.8-1.8-1.8-1.8s-1.8.8-1.8 1.8v34.8c0 5.2 4.2 9.4 9.4 9.4h53c5.2 0 9.4-4.2 9.4-9.4v-20.3l18.5-18.5c2.3-2.3 2.3-5.9.1-8.1zm-75.1-26.4c0 .4-.4.8-.8.8s-.8-.3-.8-.8v-7.6c0-.4.4-.8.8-.8.5 0 .8.4.8.8zm14.4 0c0 .4-.4.8-.8.8s-.8-.3-.8-.8v-7.6c0-.4.4-.8.8-.8.5 0 .8.4.8.8zm14.3 0c0 .4-.3.8-.8.8-.4 0-.8-.4-.8-.8v-7.6c0-.4.4-.8.8-.8.5 0 .8.4.8.8zm14.4 0c0 .4-.3.8-.8.8-.4 0-.8-.4-.8-.8v-7.6c0-.4.4-.8.8-.8.5 0 .8.4.8.8zm-2.1 55.8 2.9 2.9-3.7.8zm6.4 1.4-4.9-4.9 19.7-19.7 4.9 4.9zm25.2-25.2-3.1 3.1-4.9-4.9 3.1-3.1c.9-.8 2.3-.8 3.2 0l1.7 1.7c.9.9.9 2.3 0 3.2zm-87.7-2.8v-2.1c0-1 .8-1.8 1.8-1.8s1.8.8 1.8 1.8v2.1c0 1-.8 1.8-1.8 1.8s-1.8-.9-1.8-1.8zm12.2-13.6c0-1 .8-1.7 1.7-1.8h43.8c1 0 1.8.8 1.8 1.8s-.8 1.8-1.8 1.8h-43.8c-.9 0-1.7-.8-1.7-1.8zm0 15c0-1 .8-1.7 1.7-1.8h43.8c1 0 1.8.8 1.8 1.8s-.8 1.8-1.8 1.8h-43.8c-.9 0-1.7-.8-1.7-1.8zm0 15.1c0-1 .8-1.8 1.8-1.8h31.7c1 0 1.8.8 1.8 1.8s-.8 1.8-1.8 1.8h-31.8c-.9-.1-1.7-.9-1.7-1.8zm0 15c0-1 .8-1.7 1.7-1.8h26.8c1 0 1.8.8 1.8 1.8s-.8 1.8-1.8 1.8h-26.8c-.9 0-1.7-.8-1.7-1.8z" fill="url(#SVGID_1_)"/></svg>