<svg id="Capa_1" enable-background="new 0 0 512 512" viewBox="0 0 512 512" xmlns="http://www.w3.org/2000/svg"><g><g><g><g><g><path d="m326.711 189.796-70.711 19.929-70.711-19.929v-129.637c0-6.509 5.276-11.785 11.785-11.785h117.852c6.509 0 11.785 5.276 11.785 11.785z" fill="#fed2a4"/></g><g><path d="m326.711 60.159c0-6.509-5.276-11.785-11.785-11.785h-28.285c6.509 0 11.785 5.276 11.785 11.785v104.637c0 5.523-4.477 10-10 10h-103.137v15l70.711 19.929 70.711-19.929z" fill="#ffbd86"/></g><g><path d="m268.674 87.61-10.533-6.583c-1.31-.819-2.973-.819-4.283 0l-10.533 6.583c-2.691 1.682-6.182-.253-6.182-3.426v-35.81h37.713v35.81c0 3.173-3.491 5.108-6.182 3.426z" fill="#d88a55"/></g></g><g><g><path d="m386.638 189.796h-41.07l-18.856 19.929-18.856-19.929h-51.856l-13.295 70.711 13.295 70.712h130.638c6.509 0 11.785-5.276 11.785-11.785v-117.853c0-6.508-5.277-11.785-11.785-11.785z" fill="#fed2a4"/></g><g><path d="m386.637 189.796h-28.285c6.509 0 11.785 5.276 11.785 11.785v117.852c0 6.509-5.276 11.785-11.785 11.785h28.285c6.509 0 11.785-5.276 11.785-11.785v-117.851c.001-6.509-5.276-11.786-11.785-11.786z" fill="#ffbd86"/></g><g><path d="m339.386 229.033-10.533-6.583c-1.31-.819-2.973-.819-4.283 0l-10.533 6.583c-2.691 1.682-6.182-.253-6.182-3.426v-35.81h37.713v35.81c0 3.173-3.491 5.108-6.182 3.426z" fill="#d88a55"/></g></g><g><g><path d="m227.715 189.796h-23.57l-19.356 19.929-18.356-19.929h-41.07c-6.509 0-11.785 5.276-11.785 11.785v117.852c0 6.509 5.276 11.785 11.785 11.785h93.672l25.174-58.958z" fill="#fed2a4"/></g><g><path d="m256 189.796h-28.285v141.423h28.285z" fill="#ffbd86"/></g><g><path d="m197.963 229.033-10.533-6.583c-1.31-.819-2.973-.819-4.283 0l-10.533 6.583c-2.691 1.682-6.182-.253-6.182-3.426v-35.81h37.713v35.81c0 3.173-3.491 5.108-6.182 3.426z" fill="#d88a55"/></g></g></g><g><g><path d="m234.338 455.771c.706 4.522 4.601 7.855 9.177 7.855h24.97c4.576 0 8.471-3.333 9.177-7.855l5.271-33.735c10.464-3.559 19.994-9.137 28.131-16.266l31.744 12.261 20.146-18.904 3.862-6.689c2.288-3.963 1.349-9.003-2.214-11.875l-26.589-21.44c1.035-5.257 1.584-10.688 1.584-16.249l-7.619-13.61.405-41.508-12.714-11.102-8.605 3.324c-8.137-7.13-17.667-12.707-28.131-16.266l-5.271-33.735c-.706-4.522-4.601-7.855-9.177-7.855h-24.97c-4.576 0-8.471 3.333-9.177 7.855l-5.271 33.735c-10.464 3.559-19.994 9.137-28.131 16.266l-31.877-12.312c-4.269-1.649-9.103.057-11.391 4.02l-12.485 21.625c-2.288 3.963-1.349 9.003 2.214 11.875l26.589 21.44c-1.036 5.257-1.584 10.688-1.584 16.249 0 5.56.548 10.992 1.584 16.249l-26.589 21.44c-3.562 2.873-4.502 7.912-2.214 11.875l12.485 21.625c2.288 3.963 7.122 5.669 11.391 4.02l31.877-12.312c8.137 7.129 17.667 12.707 28.131 16.266z" fill="#60b7ff"/></g><g><path d="m364.603 380.563-26.589-21.44c1.036-5.257 1.584-10.688 1.584-16.249 0-5.56-.548-10.992-1.584-16.249l26.589-21.44c3.562-2.873 4.502-7.912 2.214-11.875l-12.485-21.625c-2.288-3.963-7.122-5.669-11.391-4.02l-23.271 8.989c2.196 8.733 3.368 17.873 3.368 27.288 0 60.6-48.326 109.911-108.542 111.502 4.601 2.638 9.473 4.859 14.571 6.593l5.271 33.735c.707 4.522 4.601 7.855 9.177 7.855h24.97c4.576 0 8.471-3.333 9.177-7.855l5.271-33.735c10.464-3.559 19.994-9.137 28.131-16.266l31.877 12.313c4.269 1.649 9.103-.057 11.391-4.02l12.485-21.625c2.288-3.964 1.349-9.004-2.214-11.876z" fill="#26a6fe"/></g><g><circle cx="256" cy="342.874" fill="#eaf6ff" r="36.965"/></g></g></g><g fill="#5de1c4"><path d="m128.348 439.036c-33.499-16.514-61.806-41.939-81.862-73.528-20.598-32.445-31.486-70.01-31.486-108.635 0-36.205 9.646-71.738 27.895-102.76 14.557-24.744 34.262-46.157 57.583-62.748l-3.355 12.519c-1.072 4.001 1.303 8.114 5.304 9.186.65.175 1.303.258 1.946.258 3.311 0 6.342-2.21 7.24-5.561l8.366-31.224c1.072-4.001-1.303-8.114-5.304-9.186l-31.224-8.366c-3.994-1.073-8.113 1.302-9.186 5.303-1.072 4.001 1.303 8.114 5.304 9.186l14.698 3.939c-26.119 18.043-48.162 41.653-64.301 69.089-19.604 33.324-29.966 71.488-29.966 110.365 0 41.477 11.696 81.822 33.823 116.675 21.531 33.913 51.924 61.212 87.893 78.942 1.067.526 2.197.775 3.311.775 2.766 0 5.427-1.537 6.733-4.186 1.831-3.715.303-8.211-3.412-10.043z"/><path d="m478.177 138.452c-21.531-33.914-51.924-61.212-87.893-78.942-3.717-1.835-8.212-.304-10.043 3.41-1.832 3.716-.304 8.212 3.411 10.043 33.499 16.515 61.806 41.94 81.862 73.529 20.598 32.444 31.486 70.01 31.486 108.635 0 36.176-9.632 71.686-27.854 102.689-14.559 24.772-34.28 46.208-57.623 62.816l3.354-12.517c1.072-4.001-1.303-8.114-5.304-9.186-3.994-1.075-8.113 1.302-9.186 5.303l-8.366 31.224c-1.072 4.001 1.303 8.114 5.304 9.186l31.224 8.366c.65.175 1.303.258 1.946.258 3.311 0 6.342-2.21 7.24-5.561 1.072-4.001-1.303-8.114-5.304-9.186l-14.697-3.938c26.142-18.06 48.202-41.698 64.345-69.164 19.574-33.306 29.921-71.443 29.921-110.29 0-41.477-11.696-81.822-33.823-116.675z"/></g></g><g/><g/><g/><g/><g/><g/><g/><g/><g/><g/><g/><g/><g/><g/><g/></svg>