<svg xmlns="http://www.w3.org/2000/svg" version="1.1" xmlns:xlink="http://www.w3.org/1999/xlink" width="512" height="512" x="0" y="0" viewBox="0 0 510 510" style="enable-background:new 0 0 512 512" xml:space="preserve" fill-rule="evenodd" class=""><g><path fill="#9facba" d="M154.449 111.376h141.499v175.603H154.449z" opacity="1" data-original="#9facba" class=""></path><path fill="#a4c745" d="M276.006 111.376h19.942v175.603h-19.942zM166.097 286.979V111.376h15.302l18.821 175.603z" opacity="1" data-original="#8d9ca8" class=""></path><path fill="#0170eb" d="M411.059 21.256A6.259 6.259 0 0 0 404.803 15H292.195a6.259 6.259 0 0 0-6.256 6.256v259.467a6.259 6.259 0 0 0 6.256 6.256h112.608a6.259 6.259 0 0 0 6.256-6.256zM188.573 286.979H98.941L120.87 82.386a5 5 0 0 1 4.972-4.467h35.83a5 5 0 0 1 4.972 4.467z" opacity="1" data-original="#8192a5" class=""></path><path fill="#d8ecfe" d="M384.803 59.294a3.164 3.164 0 0 0-3.162-3.162h-65.966a3.164 3.164 0 0 0-3.162 3.162v25.297a3.164 3.164 0 0 0 3.162 3.162h65.966a3.164 3.164 0 0 0 3.162-3.162z" opacity="1" data-original="#d8ecfe" class=""></path><path fill="#c4e2ff" d="M371.641 87.753a3.164 3.164 0 0 0 3.162-3.162V59.294a3.164 3.164 0 0 0-3.162-3.162h10a3.164 3.164 0 0 1 3.162 3.162v25.297a3.164 3.164 0 0 1-3.162 3.162z" opacity="1" data-original="#c4e2ff" class=""></path><path fill="#eceff1" d="M360.822 167.764c5.073 0 9.939 1.767 13.527 4.912 3.587 3.145 5.603 7.411 5.603 11.858v102.445h-62.906V184.534c0-4.447 2.016-8.713 5.603-11.858 3.588-3.145 8.453-4.912 13.527-4.912z" opacity="1" data-original="#eceff1" class=""></path><path fill="#d1d1d6" d="M327.046 286.979h-10V184.534c0-4.447 2.016-8.713 5.603-11.858 3.588-3.145 8.453-4.912 13.527-4.912h10c-5.074 0-9.939 1.767-13.527 4.912-3.587 3.145-5.603 7.411-5.603 11.858z" opacity="1" data-original="#d1d1d6" class=""></path><path fill="#d8ecfe" d="M255.16 140.613a5 5 0 0 1 5 5v24.962a5 5 0 0 1-5 5h-24.961a5 5 0 0 1-5-5v-24.962a5 5 0 0 1 5-5z" opacity="1" data-original="#d8ecfe" class=""></path><path fill="#c4e2ff" d="M245.16 140.613h10a5 5 0 0 1 5 5v24.962a5 5 0 0 1-5 5h-10a5 5 0 0 0 5-5v-24.962a5 5 0 0 0-5-5z" opacity="1" data-original="#c4e2ff" class=""></path><path fill="#d8ecfe" d="M237.657 205.313a5 5 0 0 1 5 5v24.917a5 5 0 0 1-5 5H212.74a4.997 4.997 0 0 1-3.535-1.465 4.997 4.997 0 0 1-1.465-3.535v-24.917a5.001 5.001 0 0 1 5-5z" opacity="1" data-original="#d8ecfe" class=""></path><path fill="#c4e2ff" d="M227.657 205.313h10a5 5 0 0 1 5 5v24.917a5 5 0 0 1-5 5h-10a5.001 5.001 0 0 0 5-5v-24.917a5 5 0 0 0-5-5z" opacity="1" data-original="#c4e2ff" class=""></path><path fill="#7e9ad4" d="M466.544 277.989v28.646l-35.055 13.492a180.501 180.501 0 0 1-21.913 52.846l15.241 34.356-40.477 40.502-34.356-15.266a180.402 180.402 0 0 1-52.87 21.937l-13.493 35.031h-57.267l-13.493-35.056a180.477 180.477 0 0 1-52.845-21.912l-34.356 15.266-40.502-40.502 15.266-34.331c-10.069-16.366-17.49-34.206-21.938-52.871l-35.03-13.492v-28.646z" opacity="1" data-original="#ffe177" class=""></path><path fill="#ffd064" d="M466.544 277.989v28.646l-35.055 13.492a180.501 180.501 0 0 1-21.913 52.846l15.241 34.356-40.477 40.502-11.543-5.122 35.38-35.38-15.267-34.356a180.447 180.447 0 0 0 21.913-52.846l35.055-13.492v-28.646zM160.016 432.565l-34.356 15.266-5.122-5.122 32.282-14.342a169.629 169.629 0 0 0 7.196 4.198zm189.968 0a180.402 180.402 0 0 1-52.87 21.937l-13.493 35.031h-16.665l13.492-35.031c18.69-4.447 43.726-16.066 60.092-26.135z" opacity="1" data-original="#ffd064" class=""></path><path fill="#eceff1" d="M377.994 277.989v.012c0 67.912-55.07 122.981-123.006 122.981-67.912 0-122.982-55.069-122.982-122.981v-.012z" opacity="1" data-original="#eceff1" class=""></path><path fill="#d1d1d6" d="M148.647 277.989v.012c0 65.114 50.647 118.409 114.686 122.706-2.774.175-5.547.275-8.345.275-67.912 0-122.982-55.069-122.982-122.981v-.012z" opacity="1" data-original="#d1d1d6" class=""></path></g></svg>