<svg id="Layer_1" enable-background="new 0 0 512 512" viewBox="0 0 512 512" xmlns="http://www.w3.org/2000/svg"><g><g><path d="m414.5 428.3h-71.1c-3.1 0-5.7-2.5-5.7-5.7v-33.7h-63.1c-3.1 0-5.7-2.5-5.7-5.7v-98.9h-65.5c-3.1 0-5.7-2.5-5.7-5.7v-216.5c0-3.1 2.5-5.7 5.7-5.7h279.3c3.1 0 5.7 2.5 5.7 5.7v292.2c0 1.5-.6 2.9-1.7 4l-68.2 68.2c-1.1 1.2-2.5 1.8-4 1.8zm-65.5-11.4h63.1l64.9-64.9v-284.2h-268v205.1h65.5c3.1 0 5.7 2.5 5.7 5.7v98.9h63.1c3.1 0 5.7 2.5 5.7 5.7z" fill="#231f20"/></g><g><path d="m488 33.8h-70c-.2-3.3.5-16.1-.6-19.1-1.9-5.8-7.3-10-13.6-10h-121.6c-7.8 0-14.2 6.6-14.2 14.3v14.8h-41.7c-15.5.1-24.6 13.6-23 28.3h279.3v292.2l-68.2 68.2h-71.1v28.3h144.7c12.7 0 23-10.3 23-23v-371c0-12.7-10.3-23-23-23z" fill="#93d6f3"/></g><g><path d="m226.4 33.8c-12.7 0-23 10.3-23 23v221.8h-28.3v-221.8c0-12.7 10.2-23 23-23z" fill="#78a7f8"/></g><g><path d="m482.7 62.1v292.3l-68.2 68.2h-71.1v-39.4h-68.8v-104.6h-71.2v-216.5z" fill="#e8f2f2"/></g><g><path d="m414.5 422.6v-68.2h68.2z" fill="#d3e5e6"/></g><g><path d="m1 482.8h510v24.5h-510z" fill="#78a7f8"/></g><g><path d="m30.8 343.3h26.5v139.5h-26.5z" fill="#aadb45"/></g><g><path d="m57.3 343.3h112.9v139.5h-112.9z" fill="#cbe951"/></g><g><path d="m83.3 343.3h11.5v69.7h-11.5z" fill="#78a7f8"/></g><g><path d="m170.1 278.6h19v104.6h-19z" fill="#edca99"/></g><g><path d="m189 278.6h85.6v104.6h-85.6z" fill="#f8daae"/></g><g><path d="m209.5 278.6h22.7v52.3h-22.7z" fill="#cbe951"/></g><g><path d="m209.5 278.6h7.8v52.3h-7.8z" fill="#aadb45"/></g><g><path d="m170.2 383.2h26.5v99.6h-26.5z" fill="#aadb45"/></g><g><path d="m196.7 383.2h146.7v99.6h-146.7z" fill="#cbe951"/></g><g><path d="m235.5 383.2h11.5v49.8h-11.5z" fill="#78a7f8"/></g><g><path d="m94.9 343.3h18.7v69.7h-18.7z" fill="#93d6f3"/></g><g><path d="m247 383.2h26.1v49.8h-26.1z" fill="#93d6f3"/></g><g><g><path d="m260.6 160.8h-13.4c-6.8 0-12.4-5.6-12.4-12.4v-35.9c0-6.8 5.6-12.4 12.4-12.4h35.9c7.4 0 7.4 11.3 0 11.3h-35.9c-.6 0-1.1.5-1.1 1.1v35.9c0 .6.5 1.1 1.1 1.1h13.4c7.4 0 7.5 11.3 0 11.3z" fill="#93d6f3"/></g></g><g><g><path d="m279.8 148.7c-1.4 0-2.9-.6-4-1.7l-19.2-19.2c-5.2-5.3 2.7-13.2 8-8 0 0 15.2 15.2 15.2 15.2l32.6-32.6c5.2-5.2 13.2 2.7 8 8 0 0-36.6 36.6-36.6 36.6-1.1 1.2-2.5 1.7-4 1.7z" fill="#93d6f3"/></g></g><g><g><path d="m260.6 241.8h-13.4c-6.8 0-12.4-5.6-12.4-12.4v-35.9c0-6.8 5.6-12.4 12.4-12.4h35.9c7.4 0 7.4 11.3 0 11.3h-35.9c-.6 0-1.1.5-1.1 1.1v35.9c0 .6.5 1.1 1.1 1.1h13.4c7.4 0 7.5 11.3 0 11.3z" fill="#93d6f3"/></g></g><g><g><path d="m279.8 229.7c-1.4 0-2.9-.6-4-1.7l-19.2-19.2c-5.2-5.3 2.7-13.2 8-8 0 0 15.2 15.2 15.2 15.2l32.6-32.6c5.2-5.2 13.2 2.7 8 8 0 0-36.6 36.6-36.6 36.6-1.1 1.2-2.5 1.7-4 1.7z" fill="#93d6f3"/></g></g><g><g><g><path d="m408.5 123.8h-52.1c-7.4 0-7.4-11.3 0-11.3h52.1c7.4 0 7.4 11.2 0 11.3z" fill="#93d6f3"/></g></g><g><g><path d="m448.6 148.5h-92.2c-7.4 0-7.4-11.3 0-11.3h92.2c7.4 0 7.4 11.2 0 11.3z" fill="#93d6f3"/></g></g></g><g><g><g><path d="m408.5 199h-52.1c-7.4 0-7.4-11.3 0-11.3h52.1c7.4 0 7.4 11.3 0 11.3z" fill="#93d6f3"/></g></g><g><g><path d="m448.6 223.8h-92.2c-7.4 0-7.4-11.3 0-11.3h92.2c7.4 0 7.4 11.2 0 11.3z" fill="#93d6f3"/></g></g></g><g><g><g><path d="m408.5 274.3h-52.1c-7.4 0-7.4-11.3 0-11.3h52.1c7.4 0 7.4 11.3 0 11.3z" fill="#93d6f3"/></g></g><g><g><path d="m448.6 299h-92.2c-7.4 0-7.4-11.3 0-11.3h92.2c7.4 0 7.4 11.3 0 11.3z" fill="#93d6f3"/></g></g></g></g></svg>