<svg id="Capa_1" enable-background="new 0 0 512 512" height="512" viewBox="0 0 512 512" width="512" xmlns="http://www.w3.org/2000/svg"><g><g><path d="m482.505 46.686h-108.628c1.121 4.575 1.729 9.35 1.729 14.265 0 33.058-26.894 59.951-59.951 59.951-2.638 0-5.232-.189-7.781-.522v148.053c0 1.707 1.384 3.091 3.091 3.091h171.541c1.707 0 3.09-1.384 3.09-3.091v-218.657c-.001-1.706-1.385-3.09-3.091-3.09z" fill="#eaf6ff"/><path d="m350.777 268.433v-158.94c-9.879 7.167-22.011 11.41-35.122 11.41-2.638 0-5.232-.189-7.781-.522v148.053c0 1.707 1.384 3.091 3.09 3.091h42.904c-1.708-.001-3.091-1.385-3.091-3.092z" fill="#d8ecfe"/><g><path d="m437.244 93.313h-71.164c-3.51 5.45-7.872 10.296-12.906 14.348.932.416 1.963.652 3.049.652h81.021c4.143 0 7.5-3.357 7.5-7.5s-3.357-7.5-7.5-7.5z" fill="#8ac9fe"/><g><path d="m437.244 147.175h-81.021c-4.143 0-7.5-3.357-7.5-7.5s3.357-7.5 7.5-7.5h81.021c4.143 0 7.5 3.357 7.5 7.5s-3.357 7.5-7.5 7.5z" fill="#8ac9fe"/></g><g><path d="m437.244 186.035h-81.021c-4.143 0-7.5-3.357-7.5-7.5s3.357-7.5 7.5-7.5h81.021c4.143 0 7.5 3.357 7.5 7.5s-3.357 7.5-7.5 7.5z" fill="#8ac9fe"/></g><g><path d="m409.755 224.896h-53.531c-4.143 0-7.5-3.357-7.5-7.5s3.357-7.5 7.5-7.5h53.531c4.143 0 7.5 3.357 7.5 7.5s-3.358 7.5-7.5 7.5z" fill="#8ac9fe"/></g></g></g><g><g><g><path d="m448.731 330.567h-54.344l-1 1.225v36.178c0 1.153-.938 2.091-2.091 2.091h-38.791c-1.153 0-2.091-.938-2.091-2.091v-36.189l-1-1.214h-57.435l-1 8.469v135.332h160.842v-140.71c0-1.707-1.383-3.091-3.09-3.091z" fill="#fed2a4"/><path d="m291.979 330.567h34.94v143.801h-34.94z" fill="#ffbd86"/><g><path d="m391.296 371.061h-38.791c-1.707 0-3.091-1.384-3.091-3.091v-37.403h44.972v37.403c0 1.707-1.383 3.091-3.09 3.091z" fill="#fe646f"/></g><g><path d="m366.586 367.971v-37.403h-17.171v37.403c0 1.707 1.384 3.091 3.091 3.091h17.171c-1.708-.001-3.091-1.385-3.091-3.091z" fill="#fd4755"/></g></g><path d="m252.909 206.196h-54.344l-1 1.453v35.949c0 1.153-.938 2.091-2.091 2.091h-38.791c-1.152 0-2.09-.938-2.09-2.091v-35.938l-1-1.465h-54.344c-1.707 0-3.091 1.384-3.091 3.09v122.281h159.842v-122.28c0-1.707-1.384-3.09-3.091-3.09z" fill="#fed2a4"/><path d="m131.185 331.567v-122.281c0-1.707 1.384-3.09 3.091-3.09h-35.027c-1.707 0-3.091 1.384-3.091 3.09v122.281z" fill="#ffbd86"/><g><path d="m195.475 246.689h-38.791c-1.707 0-3.091-1.384-3.091-3.091v-37.403h44.972v37.403c0 1.708-1.384 3.091-3.09 3.091z" fill="#fe646f"/></g><g><path d="m170.851 243.599v-37.403h-17.258v37.403c0 1.707 1.384 3.091 3.091 3.091h17.258c-1.707-.001-3.091-1.384-3.091-3.091z" fill="#fd4755"/></g><path d="m291.979 474.368v-143.801h-228.709c-1.707 0-3.091 1.384-3.091 3.091v140.71z" fill="#f6a96c"/><path d="m94.262 474.368v-140.71c0-1.707 1.384-3.091 3.091-3.091h-34.084c-1.707 0-3.09 1.384-3.09 3.091v140.71z" fill="#ea9b58"/><g><path d="m198.048 371.061h-43.938c-1.707 0-3.091-1.384-3.091-3.091v-37.403h50.119v37.403c.001 1.707-1.383 3.091-3.09 3.091z" fill="#fe646f"/></g><g><path d="m168.435 367.971v-37.403h-17.415v37.403c0 1.707 1.384 3.091 3.091 3.091h17.415c-1.708-.001-3.091-1.385-3.091-3.091z" fill="#fd4755"/></g></g><g><path d="m503.197 512h-494.394c-1.707 0-3.091-1.384-3.091-3.091v-32.451c0-1.707 1.384-3.091 3.091-3.091h494.395c1.707 0 3.091 1.384 3.091 3.091v32.451c-.001 1.707-1.385 3.091-3.092 3.091z" fill="#fac600"/></g><g><path d="m54.177 508.909v-32.451c0-1.707 1.384-3.091 3.091-3.091h-48.465c-1.707 0-3.091 1.384-3.091 3.091v32.451c0 1.707 1.384 3.091 3.091 3.091h48.465c-1.708 0-3.091-1.384-3.091-3.091z" fill="#e8b800"/></g></g><g><g><g><circle cx="315.654" cy="60.951" fill="#4fc123" r="60.951"/></g><g><path d="m289.655 60.951c0-27.587 18.332-50.881 43.475-58.395-5.537-1.655-11.4-2.556-17.476-2.556-33.662 0-60.951 27.289-60.951 60.951s27.289 60.951 60.951 60.951c6.076 0 11.939-.901 17.476-2.556-25.142-7.515-43.475-30.809-43.475-58.395z" fill="#47a920"/></g><g><path d="m311.782 85.687c-1.919 0-3.839-.732-5.304-2.196l-23.676-23.676c-2.929-2.93-2.929-7.678 0-10.607 2.93-2.928 7.678-2.928 10.607 0l18.372 18.373 26.116-26.117c2.93-2.928 7.678-2.928 10.607 0 2.929 2.93 2.929 7.678 0 10.607l-31.42 31.42c-1.463 1.463-3.383 2.196-5.302 2.196z" fill="#fff"/></g></g></g></g></svg>