<svg xmlns="http://www.w3.org/2000/svg" version="1.1" xmlns:xlink="http://www.w3.org/1999/xlink" width="512" height="512" x="0" y="0" viewBox="0 0 64 64" style="enable-background:new 0 0 512 512" xml:space="preserve" class=""><g><path fill="#abde9c" d="M61 2H30l-7 7v50a1 1 0 0 0 1 1h37a1 1 0 0 0 1-1V3a1 1 0 0 0-1-1z" opacity="1" data-original="#cce2ff" class=""></path><path fill="#b8cbe6" d="M30 2v6a1 1 0 0 1-1 1h-6z" opacity="1" data-original="#b8cbe6" class=""></path><path fill="#e65c62" d="M36 9h16v6H36z" opacity="1" data-original="#e65c62"></path><path fill="#2970cc" d="M36 28h16v6H36z" opacity="1" data-original="#2970cc" class=""></path><path fill="#44a649" d="M36 47h16v6H36z" opacity="1" data-original="#44a649"></path><path fill="#596c80" d="m44 25 3-4h-2v-3h-2v3h-2zM45 37h-2v3h-2l3 4 3-4h-2z" opacity="1" data-original="#596c80"></path><rect width="14" height="14" x="18" y="48" fill="#e06767" rx="1" opacity="1" data-original="#e6962e" class=""></rect><path fill="#ccfff3" d="m27 53-2-2-2 2v-5h4z" opacity="1" data-original="#ffe9cc" class=""></path><rect width="14" height="14" x="2" y="48" fill="#e06767" rx="1" opacity="1" data-original="#e6962e" class=""></rect><path fill="#ccfff3" d="m11 53-2-2-2 2v-5h4z" opacity="1" data-original="#ffe9cc" class=""></path><rect width="14" height="14" x="5" y="32" fill="#e06767" rx="1" opacity="1" data-original="#e6962e" class=""></rect><path fill="#ccfff3" d="m14 37-2-2-2 2v-5h4z" opacity="1" data-original="#ffe9cc" class=""></path></g></svg>