<svg xmlns="http://www.w3.org/2000/svg" version="1.1" xmlns:xlink="http://www.w3.org/1999/xlink" width="512" height="512" x="0" y="0" viewBox="0 0 512 512" style="enable-background:new 0 0 512 512" xml:space="preserve" class=""><g><g fill-rule="evenodd"><path fill="#e09d9d" d="M21.932 11H322.34l75.841 75.842V501H21.932z" opacity="1" data-original="#e9e9ff" class=""></path><path fill="#da4242" d="m322.34 11.001 75.841 75.841H322.34z" opacity="1" data-original="#bcbcf5" class=""></path><path fill="#7986bf" d="M184.914 281.268a5 5 0 0 1 0-10h116.225a5 5 0 0 1 0 10zm0-31.227a5 5 0 0 1 0-10h143.685a5 5 0 0 1 0 10zM184.914 367.485a5 5 0 0 1 0-10h98.921a5 5 0 0 1 0 10zm0-31.227a5 5 0 0 1 0-10h98.921a5 5 0 0 1 0 10zM184.914 453.702a5 5 0 0 1 0-10h143.685a5 5 0 0 1 0 10zm0-31.227a5 5 0 0 1 0-10h122.62a5 5 0 0 1 0 10z" opacity="1" data-original="#7986bf" class=""></path></g><path fill="#e6b17c" d="M359.294 307.984h77.775v77.775h-77.775z" opacity="1" data-original="#e6b17c" class=""></path><path fill="#f0414a" fill-rule="evenodd" d="M386.811 307.984h22.74v25.3l-11.369-5.706-11.371 5.706z" opacity="1" data-original="#f0414a" class=""></path><path fill="#fb545c" fill-rule="evenodd" d="M398.182 307.984h11.369v25.3l-11.369-5.706z" opacity="1" data-original="#fb545c"></path><path fill="#7986bf" fill-rule="evenodd" d="M444.809 267.672a91.823 91.823 0 0 1 13.427 9.626c26.488 22.863 37.861 59.189 28.707 93.354-7.612 28.409-28.176 51.159-55.266 61.8a91.332 91.332 0 0 1-13.15 4.046 4.986 4.986 0 0 1-2.187-9.726 81.355 81.355 0 0 0 11.705-3.617c24.138-9.482 42.47-29.775 49.251-55.081 8.169-30.491-1.951-62.839-25.582-83.237a81.069 81.069 0 0 0-11.922-8.535l2.276 5.499a4.983 4.983 0 0 1-9.218 3.789l-7.84-18.939c-1.316-3.016.609-6.506 3.922-6.938l20.432-2.694a4.983 4.983 0 0 1 1.289 9.883l-5.843.77zm-97.81 169.053a4.983 4.983 0 0 1-1.289-9.883l5.844-.77a91.826 91.826 0 0 1-13.429-9.627c-7.578-6.541-14.214-14.456-19.518-23.642-12.689-21.978-15.271-47.009-9.189-69.71 6.086-22.714 20.838-43.106 42.813-55.793a92.813 92.813 0 0 1 12.453-6.007 91.332 91.332 0 0 1 13.15-4.046 4.985 4.985 0 0 1 2.187 9.726 82.368 82.368 0 0 0-22.792 8.96c-19.588 11.309-32.739 29.489-38.165 49.739-5.429 20.262-3.133 42.588 8.173 62.172a81.786 81.786 0 0 0 17.408 21.064 81.152 81.152 0 0 0 11.923 8.535l-2.276-5.498a4.983 4.983 0 1 1 9.219-3.788l7.84 18.939c1.316 3.016-.609 6.506-3.922 6.938l-20.432 2.694z" opacity="1" data-original="#7986bf" class=""></path><circle cx="210.12" cy="126.564" r="76.5" fill="#29b933" transform="rotate(-13.41 210.407 126.686)" opacity="1" data-original="#29b933" class=""></circle><path fill="#2dd62d" fill-rule="evenodd" d="M217.811 50.447c38.638 3.858 68.809 36.463 68.809 76.116s-30.171 72.259-68.809 76.117c-38.638-3.858-68.809-36.463-68.809-76.117s30.17-72.259 68.809-76.116z" opacity="1" data-original="#2dd62d" class=""></path><path fill="#009914" fill-rule="evenodd" d="M205.056 70.724a5 5 0 0 1 10 0v10.642c.797.11 1.588.246 2.373.41 4.569.955 8.923 2.837 12.525 5.651 4.428 3.459 7.684 8.266 8.824 14.429a4.984 4.984 0 0 1-9.804 1.796c-.658-3.557-2.56-6.35-5.152-8.375-2.347-1.833-5.28-3.079-8.423-3.737a18.692 18.692 0 0 0-.341-.069v31.851c.915.282 1.809.571 2.673.872 7.091 2.477 13.471 6.224 17.366 11.762 3.494 4.967 4.941 11.11 3.143 18.673-1.614 6.789-6.436 11.669-12.697 14.532-3.199 1.463-6.785 2.387-10.485 2.751v10.486a5 5 0 0 1-10 0V171.54c-3.586-.621-7.079-1.772-10.238-3.472-6.729-3.621-11.979-9.653-13.613-18.263a4.988 4.988 0 0 1 9.804-1.836c1.003 5.287 4.299 9.03 8.535 11.31a23.26 23.26 0 0 0 5.512 2.089V130.75c-5.563-1.708-11.122-3.832-15.371-7.883-4.617-4.402-7.026-9.889-7.459-15.435-.454-5.82 1.305-11.697 5.004-16.431 3.945-5.05 9.976-8.179 16.533-9.392.429-.079.86-.15 1.293-.213V70.722zm10 63.103v28.058c2.265-.307 4.422-.904 6.345-1.783 3.565-1.63 6.274-4.256 7.111-7.775 1.061-4.462.312-7.936-1.581-10.627-2.452-3.486-6.833-6.037-11.875-7.873zm-10-13.562V91.514c-4.081.846-7.712 2.725-9.975 5.621a13.795 13.795 0 0 0-2.894 9.557c.249 3.186 1.661 6.365 4.372 8.951 2.118 2.019 5.168 3.446 8.497 4.622z" opacity="1" data-original="#009914" class=""></path><path fill="#f0414a" d="M91.513 237.143h47.022v47.022H91.513z" opacity="1" data-original="#f0414a" class=""></path><path fill="#2a92fa" d="M91.513 323.36h47.022v47.022H91.513z" opacity="1" data-original="#2a92fa" class=""></path><path fill="#f9ac00" d="M91.513 409.577h47.022v47.022H91.513z" opacity="1" data-original="#f9ac00" class=""></path><path fill="#fb545c" d="M100.421 237.143h38.114v38.114h-38.114z" opacity="1" data-original="#fb545c"></path><path fill="#5caeff" d="M100.421 323.36h38.114v38.114h-38.114z" opacity="1" data-original="#5caeff"></path><path fill="#fdc72e" d="M100.421 409.577h38.114v38.114h-38.114z" opacity="1" data-original="#fdc72e" class=""></path><path fill="#dea368" d="M359.294 307.984h9.322v77.775h-9.322z" opacity="1" data-original="#dea368" class=""></path><path fill="#a6dcaa" d="M21.931 11h14.034v490H21.931z" opacity="1" data-original="#cfcfff" class=""></path></g></svg>