<svg xmlns="http://www.w3.org/2000/svg" version="1.1" xmlns:xlink="http://www.w3.org/1999/xlink" width="512" height="512" x="0" y="0" viewBox="0 0 64 64" style="enable-background:new 0 0 512 512" xml:space="preserve" class=""><g><path d="M23.4 29.9h-3c-1.4 0-2.6-1.2-2.6-2.6v-23c0-1.4 1.2-2.6 2.6-2.6H38c1.4 0 2.6 1.2 2.6 2.6v3" style="stroke-linecap:round;stroke-linejoin:round;stroke-miterlimit:10;stroke-width:1.5" fill="none" stroke="#28226c" stroke-linecap="round" stroke-linejoin="round" stroke-miterlimit="10" stroke-width="1." data-original="#28226c" class=""></path><path fill="#74dc86" d="M44.2 35.5H25.4c-1.1 0-2-.9-2-2V9.4c0-1.1.9-2 2-2h18.9c1.1 0 2 .9 2 2v24.1c-.1 1.1-1 2-2.1 2z" opacity="1" data-original="#5fc4f0" class=""></path><g style="fill:none;stroke:#28226c;stroke-linecap:round;stroke-linejoin:round;stroke-miterlimit:10;stroke-width:1.5"><path d="M37.5 62.3c1.1 0 2-.7 2.2-1.8.1-.5.2-1.1.2-1.7 0-4.4-3.6-4.7-8-4.7s-8 .2-8 4.7c0 .6.1 1.1.2 1.7.2 1 1.2 1.8 2.2 1.8zM59.8 62.3c1.1 0 2-.7 2.2-1.8.1-.5.2-1.1.2-1.7 0-4.4-3.6-4.7-8-4.7s-8 .2-8 4.7c0 .6.1 1.1.2 1.7.2 1 1.2 1.8 2.2 1.8zM15.3 62.3c1.1 0 2-.7 2.2-1.8.1-.5.2-1.1.2-1.7 0-4.4-3.6-4.7-8-4.7s-8 .2-8 4.7c0 .6.1 1.1.2 1.7.2 1 1.2 1.8 2.2 1.8zM27.7 12.2H42M27.7 16.8H42M27.7 21.4H42M27.7 26.1H42M27.7 30.7H42M50.9 19.9h3.4v15" fill="#d8a5a5" opacity="1" data-original="#000000" class=""></path><path d="m57 32.8-2.7 2.7-2.8-2.7M13.6 19.9h-3.3v15" fill="#d8a5a5" opacity="1" data-original="#000000" class=""></path><path d="m7.5 32.8 2.8 2.7 2.7-2.7" fill="#d8a5a5" opacity="1" data-original="#000000" class=""></path></g><circle cx="54.3" cy="47.3" r="3.7" fill="#f96364" opacity="1" data-original="#f96364" class=""></circle><circle cx="32" cy="47.3" r="3.7" fill="#f96364" opacity="1" data-original="#f96364" class=""></circle><circle cx="9.7" cy="47.3" r="3.7" fill="#f96364" opacity="1" data-original="#f96364" class=""></circle></g></svg>