<svg id="Layer_1" enable-background="new 0 0 90 90" height="512" viewBox="0 0 90 90" width="512" xmlns="http://www.w3.org/2000/svg"><path d="m53.18 8-.41 1h-8.52l-.43-1z" fill="#64b5f6"/><path d="m63.1 8h-6.69c-.01.02-.01.04-.02.07l-1.22 3c-.23.56-.78.93-1.39.93h-10.52c-.6 0-1.15-.36-1.38-.91l-1.32-3.09h-7.66c-3.25 0-5.9 2.65-5.9 5.9v23.99l3.83-2.4c.48-.3 1.09-.31 1.57-.01l25.47 15.41c.14.08.25.19.36.3.46.26.77.75.77 1.31v18.81c0 .52-.27 1.01-.72 1.28l-15.42 9.41h20.24c3.25 0 5.9-2.65 5.9-5.9v-62.2c0-3.25-2.65-5.9-5.9-5.9zm-22.98 21.94-4.56 4.56c-.28.28-.67.44-1.06.44-.4 0-.78-.16-1.06-.44l-2.05-2.05c-.59-.58-.59-1.53 0-2.12.58-.59 1.53-.59 2.12 0l.99.99 3.5-3.51c.59-.58 1.54-.58 2.12 0 .59.59.59 1.54 0 2.13zm0-11-4.56 4.56c-.28.28-.67.44-1.06.44-.4 0-.78-.16-1.06-.44l-2.05-2.05c-.59-.58-.59-1.53 0-2.12.58-.59 1.53-.59 2.12 0l.99.99 3.5-3.51c.59-.58 1.54-.58 2.12 0 .59.59.59 1.54 0 2.13zm4.38-1.94h6c.83 0 1.5.67 1.5 1.5s-.67 1.5-1.5 1.5h-6c-.83 0-1.5-.67-1.5-1.5s.67-1.5 1.5-1.5zm11 18h-11c-.83 0-1.5-.67-1.5-1.5s.67-1.5 1.5-1.5h11c.83 0 1.5.67 1.5 1.5s-.67 1.5-1.5 1.5zm-12.5-5.5c0-.83.67-1.5 1.5-1.5h6c.83 0 1.5.67 1.5 1.5s-.67 1.5-1.5 1.5h-6c-.83 0-1.5-.67-1.5-1.5zm12.5-5.5h-11c-.83 0-1.5-.67-1.5-1.5s.67-1.5 1.5-1.5h11c.83 0 1.5.67 1.5 1.5s-.67 1.5-1.5 1.5z" fill="#64b5f6"/><path d="m46 60.7v6.01l-2 1.2v-5.99z" fill="#ec1c24"/><path d="m56 54.59v15.88l-19.22 11.72c-.05.03-.11.06-.16.1l-2.62 1.6v-15.87l7-4.27v6.81c0 .54.29 1.04.76 1.31.23.13.49.19.74.19.27 0 .53-.07.77-.21l5-3c.45-.27.73-.76.73-1.29v-8.69z" fill="#faaf40"/><path d="m44.59 58.04-2.23 1.36-22.41-13.56 2.2-1.38z" fill="#ec1c24"/><g fill="#faaf40"><path d="m54.21 52.17-6.74 4.11-22.47-13.6 6.64-4.16z"/><path d="m39.47 61.17-7.37 4.5-22.7-13.22 7.71-4.82z"/><path d="m31 68.5v15.44l-23-13.49v-15.34z"/></g></svg>