<svg xmlns="http://www.w3.org/2000/svg" version="1.1" xmlns:xlink="http://www.w3.org/1999/xlink" width="512" height="512" x="0" y="0" viewBox="0 0 512 512" style="enable-background:new 0 0 512 512" xml:space="preserve" class=""><g><g fill-rule="evenodd" clip-rule="evenodd"><path fill="#a5e3b3" d="M163.487 60.508h65.491c3.598 0 6.541 2.944 6.541 6.541v175.742c0 3.598-2.943 6.541-6.541 6.541h-65.491c-3.598 0-6.541-2.943-6.541-6.541V67.05c-.001-3.598 2.943-6.542 6.541-6.542z" opacity="1" data-original="#ecba78"></path><path fill="#46d866" d="M214.582 60.508h14.396c3.598 0 6.541 2.943 6.541 6.541v175.742c0 3.598-2.943 6.541-6.541 6.541h-14.396c3.598 0 6.541-2.943 6.541-6.541V67.049c0-3.597-2.944-6.541-6.541-6.541z" opacity="1" data-original="#e3a76f" class=""></path><path fill="#ffe177" d="M200.723 133.035h65.491c3.598 0 6.541 2.944 6.541 6.542v175.741c0 3.598-2.943 6.541-6.541 6.541h-65.491c-3.598 0-6.541-2.944-6.541-6.541V139.576c0-3.598 2.943-6.541 6.541-6.541z" opacity="1" data-original="#ffe177"></path><path fill="#ffd064" d="M251.818 133.035h14.396c3.598 0 6.541 2.944 6.541 6.541v175.742c0 3.598-2.943 6.541-6.541 6.541h-14.396c3.598 0 6.541-2.943 6.541-6.541V139.576c0-3.598-2.943-6.541-6.541-6.541z" opacity="1" data-original="#ffd064"></path><path fill="#8ac9fe" d="m34.921 131.583 56.717-32.746c3.116-1.799 7.136-.721 8.935 2.394l87.871 152.196c1.799 3.116.721 7.137-2.394 8.936l-56.717 32.746c-3.116 1.799-7.137.721-8.936-2.394l-87.87-152.196c-1.799-3.116-.721-7.137 2.394-8.936z" opacity="1" data-original="#8ac9fe"></path><path fill="#60b7ff" d="m79.171 106.035 12.467-7.198c3.116-1.799 7.136-.721 8.935 2.394l87.871 152.197c1.799 3.115.722 7.136-2.394 8.935l-12.467 7.198c3.116-1.799 4.193-5.82 2.394-8.935L88.106 108.429c-1.799-3.115-5.819-4.193-8.935-2.394z" opacity="1" data-original="#60b7ff"></path><path fill="#6cf5c2" d="M129.949 112.291h65.491c3.598 0 6.541 2.943 6.541 6.541v175.741c0 3.598-2.943 6.541-6.541 6.541h-65.491c-3.598 0-6.541-2.944-6.541-6.541V118.832c-.001-3.598 2.943-6.541 6.541-6.541z" opacity="1" data-original="#6cf5c2"></path><path fill="#00e499" d="M181.044 112.291h14.396c3.598 0 6.541 2.943 6.541 6.541v175.742c0 3.598-2.943 6.541-6.541 6.541h-14.396c3.598 0 6.541-2.944 6.541-6.541V118.831c0-3.597-2.943-6.54-6.541-6.54z" opacity="1" data-original="#00e499" class=""></path><path fill="#a5e3b3" d="M433.161 183.016c12.211 0 20.379 12.367 15.953 23.498L398.762 369.76c-8.462 27.435-33.167 45.742-61.893 45.742H134.124c-28.726 0-53.432-18.307-61.893-45.742L21.879 206.514c-4.425-11.131 3.742-23.498 15.953-23.498z" opacity="1" data-original="#ecba78"></path><path fill="#46d866" d="M433.161 183.016c12.211 0 20.379 12.367 15.953 23.498L398.762 369.76c-8.462 27.435-33.167 45.742-61.893 45.742H134.124c-22.664 0-42.823-11.398-54.479-29.682 10.105 6.425 22.075 10.043 34.84 10.043H317.23c28.726 0 53.432-18.307 61.893-45.742l50.352-163.246c.508-1.277.848-2.57 1.037-3.859z" opacity="1" data-original="#e3a76f" class=""></path><circle cx="134.124" cy="415.501" r="43.19" fill="#8d9ca8" transform="rotate(-22.48 134.219 415.135)" opacity="1" data-original="#8d9ca8" class=""></circle><circle cx="134.124" cy="415.501" r="17.585" fill="#9facba" opacity="1" data-original="#9facba" class=""></circle><circle cx="336.869" cy="415.501" r="43.19" fill="#8d9ca8" opacity="1" data-original="#8d9ca8" class=""></circle><circle cx="336.869" cy="415.501" r="17.585" fill="#9facba" opacity="1" data-original="#9facba" class=""></circle><path fill="#00cf19" d="M21.821 177.521h427.352c5.401 0 9.819 4.418 9.819 9.819v17.823c0 5.401-4.418 9.819-9.819 9.819H21.821c-5.401 0-9.819-4.418-9.819-9.819V187.34c0-5.401 4.418-9.819 9.819-9.819z" opacity="1" data-original="#c48958" class=""></path><path fill="#46d866" d="M21.82 177.521h427.353c5.4 0 9.819 4.418 9.819 9.819v8.911H12.002v-8.911c0-5.401 4.418-9.819 9.818-9.819z" opacity="1" data-original="#e3a76f" class=""></path><path fill="#9facba" d="M432.178 83.487a103.814 103.814 0 0 0-16.142-7.661c-11.305-4.214-23.598-6.517-36.492-6.517-28.845 0-54.959 11.691-73.861 30.594-18.902 18.902-30.594 45.016-30.594 73.861 0 9.717 1.302 19.062 3.736 27.875a103.95 103.95 0 0 0 11.069 25.803 7.975 7.975 0 0 1-13.688 8.188 119.777 119.777 0 0 1-12.757-29.741 120.496 120.496 0 0 1-4.361-32.125c0-33.262 13.483-63.376 35.281-85.174s51.912-35.281 85.174-35.281a120.18 120.18 0 0 1 42.055 7.58 120.038 120.038 0 0 1 19.764 9.506 7.994 7.994 0 0 1 15.681-2.107l5.692 19.95a7.994 7.994 0 0 1-7.972 10.177l-20.167.725a7.974 7.974 0 0 1-2.418-15.653zM317.725 277.139a120.153 120.153 0 0 0 61.819 17.08c33.262 0 63.376-13.483 85.174-35.281s35.281-51.912 35.281-85.174c0-10.829-1.44-21.348-4.14-31.374a119.72 119.72 0 0 0-12.176-29.159 7.981 7.981 0 0 0-13.812 8 103.843 103.843 0 0 1 10.551 25.284c2.333 8.664 3.577 17.799 3.577 27.249 0 28.845-11.691 54.959-30.593 73.861s-45.016 30.593-73.862 30.593c-12.561 0-24.56-2.193-35.638-6.214a103.702 103.702 0 0 1-16.979-7.97 7.974 7.974 0 0 0-2.436-15.648l-20.167.725a7.994 7.994 0 0 0-7.972 10.177l5.692 19.95a7.994 7.994 0 0 0 15.681-2.099z" opacity="1" data-original="#9facba" class=""></path><path fill="#ffe177" d="M394.477 111.197a64.01 64.01 0 0 1 18.741 7.77l12.178-5.409 14.354 14.354-5.407 12.174a64.01 64.01 0 0 1 7.771 18.747l12.425 4.782v20.299l-12.428 4.784a64 64 0 0 1-7.77 18.741l5.409 12.179-14.353 14.354-12.174-5.407a64.01 64.01 0 0 1-18.747 7.771l-4.782 12.425h-20.299l-4.784-12.428a63.988 63.988 0 0 1-18.741-7.77l-12.178 5.409-14.354-14.354 5.408-12.174a64.004 64.004 0 0 1-7.771-18.746l-12.425-4.783v-20.299l12.427-4.783a64.011 64.011 0 0 1 7.77-18.743l-5.409-12.177 14.354-14.354 12.178 5.409a64.01 64.01 0 0 1 18.741-7.77l4.784-12.428h20.298z" opacity="1" data-original="#ffe177"></path><path fill="#ffd064" d="m345.87 228.561-12.178 5.409-1.875-1.875 11.418-5.071a63.01 63.01 0 0 0 2.635 1.537zm48.607-117.364a64.01 64.01 0 0 1 18.741 7.77l-3.462 1.537c-5.796-3.568-14.755-7.731-21.377-9.307l-4.784-12.428h6.097zm18.745 117.366a64.01 64.01 0 0 1-18.747 7.771l-4.782 12.425h-6.097l4.782-12.425c6.623-1.576 15.585-5.738 21.382-9.308zm-81.406-113.131 1.875-1.875 12.178 5.409a63.697 63.697 0 0 0-2.636 1.537zm89.359 0 4.222-1.875 14.354 14.354-5.407 12.174a64.01 64.01 0 0 1 7.771 18.747l12.425 4.782v20.299l-12.428 4.784a64 64 0 0 1-7.77 18.741l5.409 12.179-14.353 14.354-4.222-1.875 12.478-12.479-5.409-12.179a64 64 0 0 0 7.77-18.741l12.428-4.784v-20.299l-12.425-4.782a64.01 64.01 0 0 0-7.771-18.747l5.407-12.174z" opacity="1" data-original="#ffd064"></path><circle cx="379.544" cy="173.764" r="35.398" fill="#eceff1" opacity="1" data-original="#eceff1"></circle><path fill="#d1d1d6" d="M379.544 138.365c-19.551 0-35.398 15.847-35.398 35.399 0 19.551 15.847 35.398 35.398 35.398.948 0 1.887-.038 2.816-.111-18.235-1.435-32.583-16.683-32.583-35.287s14.348-33.853 32.583-35.287a35.976 35.976 0 0 0-2.816-.112z" opacity="1" data-original="#d1d1d6"></path></g></g></svg>