<svg id="Layer_1" enable-background="new 0 0 512 512" height="512" viewBox="0 0 512 512" width="512" xmlns="http://www.w3.org/2000/svg" xmlns:xlink="http://www.w3.org/1999/xlink"><linearGradient id="SVGID_1_" gradientUnits="userSpaceOnUse" x1="94.699" x2="417.302" y1="417.302" y2="94.699"><stop offset="0" stop-color="#fcc60e"/><stop offset="1" stop-color="#e92e29"/></linearGradient><path d="m257.952 218.608v-135.072c0-2.858-1.525-5.499-4-6.928l-116.976-67.536c-2.476-1.43-5.524-1.43-8 0l-116.976 67.536c-2.475 1.429-4 4.069-4 6.928v135.072c0 2.858 1.525 5.499 4 6.928l116.976 67.535c1.238.715 2.619 1.072 4 1.072s2.762-.357 4-1.072l116.976-67.535c2.475-1.429 4-4.069 4-6.928zm-124.976-193.371 100.976 58.299-25.526 14.737-100.977-58.297zm0 116.598-100.976-58.298 25.527-14.739 100.976 58.299zm41.526-23.975-100.975-58.299 17.923-10.348 100.977 58.298zm25.923 3.507v34.714l-17.923 10.348v-34.713zm-176.425-23.975 100.976 58.299v116.597l-100.976-58.299zm116.976 174.896v-116.597l25.526-14.738v39.332c0 2.858 1.525 5.499 4 6.928 1.238.715 2.619 1.072 4 1.072s2.763-.357 4-1.072l33.923-19.585c2.475-1.429 4-4.069 4-6.928v-48.57l25.526-14.738v116.597zm359.024 14.177-116.976-67.536c-2.475-1.43-5.525-1.43-8 0l-116.976 67.536c-2.475 1.429-4 4.069-4 6.928v135.072c0 2.858 1.525 5.499 4 6.928l116.976 67.535c1.238.715 2.619 1.072 4 1.072s2.762-.357 4-1.072l116.976-67.535c2.475-1.429 4-4.069 4-6.928v-135.072c0-2.859-1.525-5.499-4-6.928zm-120.976-51.371 100.976 58.299-25.526 14.737-100.977-58.298zm0 116.597-100.976-58.298 25.527-14.739 100.976 58.299zm41.527-23.975-100.976-58.299 17.923-10.348 100.977 58.298zm8 13.856 17.923-10.348v34.714l-17.923 10.348zm-158.503-34.323 100.976 58.299v116.597l-100.976-58.298zm116.976 174.895v-116.597l25.526-14.738v39.332c0 2.858 1.525 5.499 4 6.928 1.238.715 2.619 1.072 4 1.072s2.763-.357 4-1.072l33.923-19.585c2.475-1.429 4-4.069 4-6.928v-48.57l25.527-14.737v116.597zm-50.296-328.757c2.228 2.03 5.409 2.636 8.228 1.566s4.796-3.635 5.116-6.633l1.415-13.288c26.885 5.688 79.456 27.56 85.83 71.123.505 3.453 3.19 6.18 6.635 6.738.43.07.859.104 1.284.104 2.983 0 5.767-1.672 7.141-4.399 11.536-22.892 10.103-50.792-3.933-76.548-17.328-31.797-50.678-53.979-90.208-60.389l1.397-13.122c.329-3.09-1.161-6.09-3.821-7.695-2.661-1.608-6.01-1.525-8.59.205l-62.257 41.756c-2.042 1.368-3.34 3.6-3.522 6.051s.773 4.85 2.589 6.506zm5.18-79.51-.408 3.829c-.225 2.109.398 4.222 1.731 5.873 1.333 1.65 3.267 2.704 5.377 2.929 37.754 4.02 69.823 23.907 85.786 53.198 6.827 12.527 10.071 25.555 9.661 37.868-7.918-13.998-20.481-26.555-37.257-37.079-22.847-14.335-47.422-21.174-61.523-22.676-.283-.03-.565-.045-.847-.045-1.821 0-3.597.622-5.026 1.776-1.65 1.333-2.704 3.267-2.929 5.377l-.638 5.996-33.484-30.516zm-166.636 284.736c-2.228-2.03-5.408-2.636-8.228-1.566-2.819 1.07-4.796 3.635-5.116 6.633l-1.415 13.288c-26.885-5.688-79.455-27.56-85.83-71.123-.505-3.453-3.19-6.18-6.635-6.738-3.447-.562-6.854 1.18-8.425 4.296-11.536 22.892-10.103 50.792 3.933 76.547 17.328 31.798 50.678 53.98 90.209 60.391l-1.397 13.121c-.329 3.089 1.161 6.09 3.821 7.695 1.273.77 2.704 1.151 4.133 1.151 1.557 0 3.111-.454 4.457-1.356l62.257-41.756c2.042-1.368 3.34-3.6 3.522-6.051s-.773-4.85-2.589-6.506zm-5.18 79.51.408-3.828c.468-4.393-2.714-8.334-7.108-8.802-37.754-4.021-69.823-23.908-85.786-53.199-6.827-12.527-10.071-25.555-9.661-37.868 7.918 13.998 20.481 26.555 37.257 37.079 22.848 14.335 47.422 21.174 61.523 22.676 4.395.458 8.334-2.715 8.802-7.108l.638-5.996 33.484 30.516z" fill="url(#SVGID_1_)"/></svg>