<svg id="Layer_1" enable-background="new 0 0 512 512" height="512" viewBox="0 0 512 512" width="512" xmlns="http://www.w3.org/2000/svg" xmlns:xlink="http://www.w3.org/1999/xlink"><linearGradient id="SVGID_1_" gradientUnits="userSpaceOnUse" x1="153.237" x2="399.351" y1="501.225" y2="74.943"><stop offset="0" stop-color="#57ffd9"/><stop offset=".0393" stop-color="#54f3dc"/><stop offset=".1969" stop-color="#47c8e7"/><stop offset=".3566" stop-color="#3ca4ef"/><stop offset=".5166" stop-color="#3488f6"/><stop offset=".6768" stop-color="#2f74fb"/><stop offset=".8376" stop-color="#2b68fe"/><stop offset="1" stop-color="#2a64ff"/></linearGradient><path d="m157.737 175.504 95 36.938c1.049.408 2.154.612 3.261.612s2.213-.204 3.262-.612l95-36.938c3.46-1.345 5.738-4.676 5.738-8.388v-109.697c0-3.712-2.278-7.043-5.738-8.388l-95-36.938c-2.098-.815-4.425-.815-6.522 0l-95 36.938c-3.46 1.345-5.739 4.676-5.739 8.388v109.697c-.001 3.712 2.278 7.043 5.738 8.388zm12.261-104.929 13.265 5.158v23.219c0 3.849 2.448 7.272 6.09 8.516l32.472 11.096c.949.324 1.932.483 2.91.483 1.854 0 3.688-.573 5.235-1.679 2.362-1.689 3.765-4.416 3.765-7.321v-14.69l13.264 5.157v90.383l-77-29.938v-90.384zm31.265 12.157 14.471 5.627v9.103l-14.471-4.945zm54.735 1.97-6.615-2.572 70.167-27.283 6.614 2.572zm-31.448-12.228-7.267-2.826 4.964-1.93c21.734-8.452 43.467-16.903 65.202-25.352l7.266 2.825zm40.448 118.424v-90.383l77-29.94v90.384zm-9-160.76 6.616 2.572c-15.63 6.077-31.261 12.154-46.891 18.232l-23.274 9.05-6.616-2.573zm94.597 432.253c2.046 4.529.032 9.86-4.498 11.906-27.681 12.501-57.259 18.742-86.799 18.742-24.215 0-48.4-4.211-71.517-12.583l3.398 7.235c2.113 4.498.179 9.858-4.32 11.972-1.236.581-2.539.856-3.82.856-3.38 0-6.62-1.914-8.152-5.176l-13.428-28.586c-1.104-2.349-1.139-5.059-.099-7.435 1.04-2.377 3.056-4.189 5.528-4.973l30.112-9.529c4.74-1.497 9.797 1.127 11.296 5.865 1.5 4.739-1.126 9.796-5.865 11.296l-6.847 2.167c46.484 16.348 97.585 14.301 143.105-6.256 4.53-2.047 9.86-.032 11.906 4.499zm-320.486-223.291c5.486-54.998 32.065-105.033 73.821-140.184l-7.96-.674c-4.953-.419-8.628-4.774-8.209-9.727s4.771-8.634 9.727-8.209l31.47 2.663c2.586.219 4.951 1.542 6.489 3.632 1.538 2.089 2.1 4.741 1.541 7.274l-6.803 30.842c-.927 4.201-4.649 7.063-8.78 7.063-.642 0-1.294-.069-1.947-.213-4.854-1.071-7.92-5.873-6.85-10.727l1.547-7.014c-37.399 32.083-61.178 77.36-66.135 127.06-.463 4.643-4.376 8.107-8.945 8.107-.299 0-.6-.015-.903-.045-4.946-.493-8.556-4.902-8.063-9.848zm349.121-153.996c2.9-4.035 8.523-4.957 12.561-2.058 50.662 36.398 82.435 92.903 87.172 155.024.377 4.956-3.333 9.28-8.289 9.658-.233.018-.465.027-.694.027-4.66 0-8.604-3.593-8.964-8.316-4.332-56.81-33.392-108.485-79.728-141.775-4.037-2.9-4.957-8.523-2.058-12.56zm-169.232 323.608v-109.696c0-3.712-2.278-7.043-5.738-8.388l-95-36.938c-2.099-.815-4.425-.815-6.523 0l-94.998 36.937c-3.46 1.346-5.739 4.677-5.739 8.389v109.696c0 3.712 2.279 7.043 5.739 8.388l94.998 36.938c1.049.408 2.155.612 3.261.612 1.107 0 2.213-.204 3.262-.612l95-36.938c3.46-1.345 5.738-4.676 5.738-8.388zm-142.715-97.468 70.166-27.282 7.268 2.826-70.167 27.282zm-16.02 13.083 14.471 5.627v9.104l-14.471-4.945zm54.735 1.971-6.614-2.572 70.167-27.282 6.614 2.572zm0-54.565 6.616 2.572-70.165 27.282-6.615-2.572zm-85.998 40.438 13.263 5.157v23.22c0 3.849 2.448 7.271 6.09 8.516l32.472 11.097c.949.324 1.932.483 2.91.483 1.854 0 3.688-.573 5.235-1.68 2.362-1.689 3.765-4.416 3.765-7.32v-14.69l13.264 5.157v90.384l-76.999-29.94zm94.998 120.324v-90.385l77-29.939v90.383zm389.263-141.868-95-36.938c-2.099-.815-4.425-.815-6.523 0l-95 36.938c-3.459 1.345-5.739 4.676-5.739 8.388v109.696c0 3.712 2.279 7.043 5.739 8.388l95 36.938c1.049.408 2.155.612 3.261.612 1.107 0 2.213-.204 3.262-.612l95-36.938c3.46-1.345 5.739-4.676 5.739-8.388v-109.695c0-3.712-2.279-7.043-5.739-8.389zm-136.979 20.617 70.166-27.282 7.268 2.826-70.167 27.282zm-16.019 13.084 14.471 5.627v9.103l-14.471-4.945zm54.735 1.97-6.614-2.572 70.167-27.282 6.614 2.572zm0-54.565 6.616 2.572-70.166 27.282-6.616-2.572zm-86 40.438 13.265 5.158v23.219c0 3.849 2.448 7.271 6.09 8.516l32.471 11.097c.949.324 1.932.483 2.91.483 1.854 0 3.688-.573 5.235-1.68 2.362-1.689 3.765-4.416 3.765-7.32v-14.69l13.264 5.157v90.384l-77-29.94zm95 120.324v-90.385l77.002-29.939v90.383z" fill="url(#SVGID_1_)"/></svg>