<svg id="Capa_1" enable-background="new 0 0 511.998 511.998" height="512" viewBox="0 0 511.998 511.998" width="512" xmlns="http://www.w3.org/2000/svg"><g><path d="m409.502 35.288h-409.502v391.419h511.998v-288.923z" fill="#e6f2ff"/><path d="m511.998 137.784-102.496-102.496h-153.503v391.419h255.999z" fill="#cdf"/><path d="m391.005 346.704-14.998 10-14.999-10h-30.007l-14.998 10-14.999-10h-30.006l-14.999 10-14.999-10h-30.006l-14.999 10-14.998-10h-30.007l-14.999 10-14.998-10h-60.989v130.006h391.99v-130.006z" fill="#ffd9b3"/><path d="m451.994 346.704h-60.989l-14.998 10-14.999-10h-30.007l-14.998 10-14.999-10h-30.006l-14.999 10v120.006h195.995z" fill="#ffbf80"/><g><path d="m240.999 346.703h30v57.004h-30z" fill="#ffbf80"/></g><g><path d="m301.003 346.703h30v42.003h-30z" fill="#f96"/></g><g><path d="m361.007 346.703h30v57.004h-30z" fill="#f96"/></g><g><path d="m180.995 346.703h30v42.003h-30z" fill="#ffbf80"/></g><g><path d="m331.003 234.339h-150.008v-139.048h150.008zm-120.008-30h90.008v-79.048h-90.008z" fill="#a9f"/></g><g><path d="m120.991 346.703h30v57.004h-30z" fill="#ffbf80"/></g><path d="m361.007 241.498v22.845h-210.016v-22.845h-30v75.005h30v-22.16h210.016v22.16h30v-75.005z" fill="#8066ff"/><path d="m409.502 35.288 102.496 102.496h-102.496z" fill="#cdf"/><path d="m409.502 35.288 102.496 102.496h-102.496z" fill="#9bf"/><path d="m331.003 95.291h-75.004v30h45.004v79.048h-45.004v30h75.004z" fill="#8066ff"/><path d="m361.007 241.498v22.845h-105.008v30h105.008v22.16h30v-75.005z" fill="#73f"/><path d="m255.999 346.703h15v57.004h-15z" fill="#f96"/></g></svg>