<svg id="Layer_1" height="512" viewBox="0 0 64 64" width="512" xmlns="http://www.w3.org/2000/svg" xmlns:xlink="http://www.w3.org/1999/xlink" data-name="Layer 1"><linearGradient id="New_Gradient_Swatch_1" gradientUnits="userSpaceOnUse" x1="32" x2="32" y1="3.815" y2="59.97"><stop offset="0" stop-color="#38b582"/><stop offset=".249" stop-color="#3bbfaf"/><stop offset=".494" stop-color="#3c97a8"/><stop offset=".74" stop-color="#3b89bf"/><stop offset="1" stop-color="#3861b5"/></linearGradient><linearGradient id="New_Gradient_Swatch_1-2" x1="28" x2="28" xlink:href="#New_Gradient_Swatch_1" y1="3.815" y2="59.97"/><linearGradient id="New_Gradient_Swatch_1-3" x1="38" x2="38" xlink:href="#New_Gradient_Swatch_1" y1="3.815" y2="59.97"/><linearGradient id="New_Gradient_Swatch_1-6" x1="27" x2="27" xlink:href="#New_Gradient_Swatch_1" y1="3.815" y2="59.97"/><linearGradient id="New_Gradient_Swatch_1-7" x1="30" x2="30" xlink:href="#New_Gradient_Swatch_1" y1="3.815" y2="59.97"/><linearGradient id="New_Gradient_Swatch_1-8" x1="24" x2="24" xlink:href="#New_Gradient_Swatch_1" y1="3.815" y2="59.97"/><path d="m59.526 4.149a1 1 0 0 0 -.973-.044l-11.789 5.895h-29.528l-11.789-5.895a1 1 0 0 0 -1.447.895v48a1 1 0 0 0 1.447.9l10.553-5.282v2.382a3 3 0 0 0 3 3v2a4 4 0 0 0 4 4h2a4 4 0 0 0 4-4v-2h6v2a4 4 0 0 0 4 4h2a4 4 0 0 0 4-4v-2a3 3 0 0 0 3-3v-2.382l10.553 5.282a1 1 0 0 0 1.447-.9v-48a1 1 0 0 0 -.474-.851zm-13.526 41.851h-2v-20a1 1 0 0 0 -1-1h-10a1 1 0 0 0 -1 1v2h-9a1 1 0 0 0 -1 1v5h-1a1 1 0 0 0 -1 1v11h-2v-34h28zm-24 0v-10h10v10zm20-8h-8v-11h8zm-10-4h-8v-4h8zm2 6h8v6h-8zm-28-33.382 10 5v34.764l-10 5zm21 49.382a2 2 0 0 1 -2 2h-2a2 2 0 0 1 -2-2v-2h6zm16 0a2 2 0 0 1 -2 2h-2a2 2 0 0 1 -2-2v-2h6zm3-5a1 1 0 0 1 -1 1h-26a1 1 0 0 1 -1-1v-3h28zm12 .382-10-5v-34.764l10-5z" fill="url(#New_Gradient_Swatch_1)"/><path d="m26 33h4a1 1 0 0 0 0-2h-4a1 1 0 0 0 0 2z" fill="url(#New_Gradient_Swatch_1-2)"/><g fill="url(#New_Gradient_Swatch_1-3)"><path d="m36 30h4a1 1 0 0 0 0-2h-4a1 1 0 0 0 0 2z"/><path d="m36 33h4a1 1 0 0 0 0-2h-4a1 1 0 0 0 0 2z"/><path d="m36 36h4a1 1 0 0 0 0-2h-4a1 1 0 0 0 0 2z"/></g><path d="m27 38a1 1 0 0 0 -1 1v4a1 1 0 0 0 2 0v-4a1 1 0 0 0 -1-1z" fill="url(#New_Gradient_Swatch_1-6)"/><path d="m30 38a1 1 0 0 0 -1 1v4a1 1 0 0 0 2 0v-4a1 1 0 0 0 -1-1z" fill="url(#New_Gradient_Swatch_1-7)"/><path d="m24 38a1 1 0 0 0 -1 1v4a1 1 0 0 0 2 0v-4a1 1 0 0 0 -1-1z" fill="url(#New_Gradient_Swatch_1-8)"/><path d="m40 42h-4a1 1 0 0 0 0 2h4a1 1 0 0 0 0-2z" fill="url(#New_Gradient_Swatch_1-3)"/></svg>