<svg xmlns="http://www.w3.org/2000/svg" version="1.1" xmlns:xlink="http://www.w3.org/1999/xlink" width="512" height="512" x="0" y="0" viewBox="0 0 512 512" style="enable-background:new 0 0 512 512" xml:space="preserve" class=""><g><path fill="#ede192" d="M334.836 448.864H0V29.188h248.449l86.387 86.419z" opacity="1" data-original="#eef5f6" class=""></path><path fill="#ede192" d="m292.659 73.414.97 42.193v333.257h41.207V115.607z" opacity="1" data-original="#deecf1" class=""></path><path fill="#93d8de" d="M248.449 115.607h86.387l-86.387-86.419z" opacity="1" data-original="#93d8de" class=""></path><path fill="#ffe177" d="M475.724 482.812H128.631c-20.035 0-36.276-16.241-36.276-36.276v-.019c0-20.035 16.241-36.276 36.276-36.276h347.093c20.035 0 36.276 16.241 36.276 36.276v.019c0 20.035-16.241 36.276-36.276 36.276z" opacity="1" data-original="#ffe177" class=""></path><path fill="#ffd15b" d="M475.724 410.241h-41.207c20.035 0 36.276 16.241 36.276 36.276v.019c0 20.035-16.241 36.276-36.276 36.276h41.207c20.035 0 36.276-16.241 36.276-36.276v-.019c0-20.034-16.241-36.276-36.276-36.276z" opacity="1" data-original="#ffd15b"></path><g fill="#fea713"><path d="m171.151 410.241-40.833 72.571h60.577l40.833-72.571zM292.306 410.241l-40.834 72.571h60.578l40.833-72.571zM413.461 410.241l-40.834 72.571h60.577l40.834-72.571z" fill="#fea713" opacity="1" data-original="#fea713"></path></g><path fill="#fe9901" d="M434.517 410.241c12.676 0 23.834 6.502 30.32 16.353l9.201-16.353z" opacity="1" data-original="#fe9901" class=""></path><circle cx="167.418" cy="252.094" r="107.076" fill="#ffffff" opacity="1" data-original="#ffffff" class=""></circle><path fill="#fe76a8" d="M242.32 252.094c0-41.301-33.601-74.902-74.902-74.902-.171 0 .171-.001 0 0v74.902zM130.414 194.782c9.943 0 9.96-15.453 0-15.453-9.943 0-9.959 15.453 0 15.453zM103.514 221.545c9.943 0 9.96-15.453 0-15.453-9.943 0-9.959 15.453 0 15.453zM93.6 258.172c9.943 0 9.96-15.453 0-15.453-9.943 0-9.96 15.453 0 15.453zM103.327 294.849c9.943 0 9.96-15.453 0-15.453-9.943.001-9.96 15.453 0 15.453zM130.09 321.749c9.943 0 9.96-15.453 0-15.453-9.944.001-9.96 15.453 0 15.453zM166.717 331.664c9.943 0 9.96-15.453 0-15.453-9.943 0-9.96 15.453 0 15.453zM203.394 321.937c9.943 0 9.96-15.453 0-15.453-9.943 0-9.959 15.453 0 15.453zM230.294 295.174c9.943 0 9.96-15.453 0-15.453-9.943 0-9.959 15.453 0 15.453z" opacity="1" data-original="#fe76a8" class=""></path><path fill="#fe76a8" d="M167.418 366.896c-63.302 0-114.802-51.5-114.802-114.802s51.5-114.802 114.802-114.802 114.802 51.5 114.802 114.802-51.5 114.802-114.802 114.802zm0-214.151c-54.781 0-99.349 44.567-99.349 99.349s44.568 99.349 99.349 99.349 99.349-44.567 99.349-99.349-44.568-99.349-99.349-99.349z" opacity="1" data-original="#fe76a8" class=""></path><g fill="#ffe177"><path d="M408.067 160.229a7.726 7.726 0 0 0-7.726 7.726v16.917a7.726 7.726 0 1 0 15.452 0v-16.917a7.726 7.726 0 0 0-7.726-7.726zM408.067 207.916a7.726 7.726 0 0 0-7.726 7.726v16.916a7.726 7.726 0 1 0 15.452 0v-16.916a7.726 7.726 0 0 0-7.726-7.726zM408.067 255.603a7.726 7.726 0 0 0-7.726 7.726v91.911a7.726 7.726 0 1 0 15.452 0v-91.911a7.725 7.725 0 0 0-7.726-7.726z" fill="#ffe177" opacity="1" data-original="#ffe177" class=""></path></g></g></svg>