<svg id="Capa_1" enable-background="new 0 0 512 512" height="512" viewBox="0 0 512 512" width="512" xmlns="http://www.w3.org/2000/svg"><g><path d="m179.527 249.95c.24 0 .481-.013.72-.036.089-.008.175-.024.263-.036.148-.019.296-.039.442-.068.103-.02.204-.046.306-.07.129-.031.257-.061.385-.099.104-.031.207-.066.309-.101.122-.042.242-.085.362-.133.101-.041.201-.084.3-.129.116-.053.232-.108.346-.167.097-.05.193-.103.288-.157.109-.063.217-.128.324-.197.096-.062.189-.125.282-.19.1-.07.197-.144.294-.22.093-.073.185-.148.274-.225.044-.038.091-.071.135-.111.045-.041.083-.086.127-.127.095-.091.188-.183.279-.279.084-.088.166-.177.244-.269.078-.091.153-.184.226-.278.08-.102.157-.204.231-.309.065-.092.126-.187.187-.282.07-.11.139-.221.203-.334.057-.1.109-.203.161-.307.056-.112.112-.224.163-.338.05-.111.094-.225.138-.339.043-.111.085-.222.122-.334.04-.12.074-.241.108-.364.031-.113.061-.225.087-.339.028-.122.051-.245.072-.369.021-.121.04-.242.056-.364.014-.116.025-.233.034-.351.01-.135.017-.271.021-.407.001-.058.009-.114.009-.173 0-.053-.007-.105-.008-.158-.003-.139-.01-.277-.021-.416-.009-.112-.018-.224-.031-.334-.016-.13-.037-.259-.059-.388-.02-.115-.041-.23-.066-.344-.027-.123-.06-.244-.094-.365-.032-.115-.064-.23-.101-.343-.039-.117-.083-.232-.127-.348-.043-.113-.087-.225-.136-.335-.049-.111-.104-.22-.159-.33-.056-.11-.111-.22-.172-.327-.058-.103-.122-.204-.185-.305-.069-.109-.139-.218-.214-.323-.065-.092-.134-.182-.203-.272-.085-.109-.172-.217-.262-.321-.035-.04-.064-.083-.1-.123l-39.792-43.979h34.233c.24 0 .48-.013.719-.036.089-.008.175-.024.263-.036.148-.019.296-.039.442-.068.104-.02.204-.046.306-.07.129-.03.257-.061.384-.099.105-.031.208-.066.31-.101.121-.041.241-.084.36-.132.103-.041.203-.085.303-.13.115-.052.229-.107.342-.165.099-.051.197-.105.294-.16.107-.061.212-.125.317-.193.099-.063.196-.129.292-.197.095-.068.188-.138.281-.21.099-.077.196-.157.291-.239.041-.036.085-.066.125-.103.042-.038.077-.08.118-.118.102-.096.2-.195.297-.297.079-.083.155-.167.229-.253.083-.096.162-.194.24-.294.076-.097.15-.195.22-.295.068-.097.132-.196.196-.296.067-.106.134-.212.195-.321.059-.104.113-.21.167-.317.055-.109.109-.217.158-.328.051-.115.097-.231.142-.349.041-.108.082-.215.119-.324.041-.122.076-.247.111-.372.03-.11.06-.22.085-.332.028-.124.052-.249.073-.375.021-.119.04-.239.055-.359.015-.118.026-.236.035-.356.01-.134.017-.268.02-.402.001-.059.009-.116.009-.175 0-.054-.007-.106-.008-.16-.003-.138-.01-.275-.021-.412-.009-.113-.018-.226-.032-.338-.016-.128-.036-.256-.059-.384-.02-.117-.041-.234-.067-.349-.027-.121-.059-.24-.093-.36-.032-.117-.065-.233-.102-.348-.038-.116-.082-.23-.126-.344s-.088-.228-.137-.339c-.049-.11-.103-.218-.157-.326-.056-.111-.112-.222-.174-.33-.058-.102-.12-.202-.183-.301-.07-.11-.14-.22-.215-.326-.064-.091-.132-.18-.202-.27-.085-.11-.172-.218-.263-.322-.035-.04-.064-.083-.1-.122l-51.131-56.517c-2.78-3.072-7.523-3.309-10.593-.53-3.072 2.779-3.31 7.521-.53 10.593l39.793 43.986h-34.232c-.054 0-.106.007-.16.008-.137.003-.274.01-.411.021-.114.009-.227.018-.339.032-.129.016-.256.036-.384.059-.117.02-.233.041-.348.067-.121.027-.241.06-.361.093-.117.032-.233.065-.347.102-.116.038-.23.082-.345.126-.114.044-.227.088-.337.137-.111.049-.22.104-.33.159s-.219.111-.326.171c-.104.059-.205.122-.306.186-.109.068-.216.138-.321.212-.094.066-.185.136-.277.207-.106.083-.211.167-.313.256-.042.036-.086.067-.127.104-.045.041-.083.086-.127.127-.095.091-.188.183-.279.279-.084.088-.166.177-.244.269-.078.091-.153.184-.226.278-.08.102-.157.204-.231.309-.065.092-.126.187-.187.282-.07.11-.139.221-.203.334-.057.1-.109.203-.161.306-.057.112-.113.224-.163.339-.049.111-.094.224-.137.338-.043.111-.085.222-.123.335-.04.12-.074.241-.108.363-.031.113-.061.225-.087.339-.028.122-.051.245-.072.369-.021.121-.04.242-.056.364-.014.116-.025.233-.034.351-.01.135-.017.271-.021.407-.001.058-.009.114-.009.173 0 .053.007.105.008.158.003.139.01.277.021.416.009.112.018.224.031.334.016.13.037.259.059.388.02.115.041.23.066.344.027.123.06.244.094.365.032.115.064.23.101.343.039.117.083.233.128.349.043.112.086.224.135.334.05.112.104.221.159.331s.111.22.171.327c.058.103.122.204.185.305.069.109.139.218.214.323.065.092.134.182.203.272.085.109.172.217.262.321.035.04.064.083.1.123l39.792 43.979h-34.231c-.053 0-.104.007-.156.008-.141.003-.281.01-.421.021-.111.008-.221.018-.33.031-.131.016-.262.037-.393.06-.114.02-.228.04-.34.065-.124.028-.246.061-.369.095-.114.032-.227.063-.339.1-.119.039-.236.084-.354.13-.111.043-.221.085-.329.133-.113.05-.225.106-.336.162-.108.054-.216.109-.321.169-.105.059-.207.123-.31.188-.108.068-.214.137-.318.21-.094.067-.186.137-.278.208-.106.083-.21.167-.312.255-.042.036-.086.067-.127.104-.045.041-.083.086-.127.127-.095.091-.188.183-.279.279-.084.088-.166.177-.244.269-.078.091-.153.184-.226.278-.08.102-.157.204-.231.309-.065.092-.126.187-.187.282-.07.11-.139.221-.203.334-.057.1-.109.203-.161.306-.057.112-.113.224-.163.339-.049.111-.094.224-.137.338-.043.111-.085.222-.123.335-.04.12-.074.241-.108.363-.031.113-.061.225-.087.339-.028.122-.051.245-.072.369-.021.121-.04.242-.056.364-.014.116-.025.233-.034.351-.01.135-.017.271-.021.407-.001.058-.009.114-.009.173 0 .053.007.105.008.158.003.139.01.277.021.416.009.112.018.224.031.334.016.13.037.259.059.388.02.115.041.23.066.344.027.123.06.244.094.365.032.115.064.23.101.343.039.117.083.233.128.349.043.112.086.224.135.334.05.112.104.221.159.331s.111.22.171.327c.058.103.122.204.185.305.069.109.139.218.214.323.065.092.134.182.203.272.085.109.172.217.262.321.035.04.064.083.1.123l39.792 43.979h-34.231c-.053 0-.104.007-.157.008-.14.003-.279.01-.419.021-.111.008-.222.018-.332.031-.13.016-.26.037-.389.059-.115.02-.23.041-.344.066-.122.027-.243.06-.364.094-.116.032-.231.064-.345.102-.117.039-.232.083-.347.127-.113.043-.225.087-.335.136-.112.049-.221.104-.331.16-.11.055-.219.111-.325.171-.104.059-.205.122-.306.186-.109.068-.216.138-.321.212-.094.066-.185.136-.277.207-.106.083-.211.167-.313.256-.042.036-.086.067-.127.104-.045.041-.083.086-.127.127-.095.091-.188.183-.279.279-.084.088-.166.177-.244.269-.078.091-.153.184-.226.278-.08.102-.157.204-.231.309-.065.092-.126.187-.187.282-.07.11-.139.221-.203.334-.057.1-.109.203-.161.306-.057.112-.113.224-.163.339-.049.111-.094.224-.137.338-.043.111-.085.222-.123.335-.04.12-.074.241-.108.364-.031.113-.061.225-.087.339-.028.122-.051.245-.072.369-.021.121-.04.242-.056.364-.014.116-.025.233-.034.351-.01.135-.017.271-.021.407-.001.058-.009.114-.009.173 0 .053.007.105.008.158.003.139.01.277.021.416.009.112.018.223.031.334.016.13.037.26.059.389.02.115.041.23.066.343.027.123.06.245.094.367.032.115.063.229.1.341.039.119.084.235.129.352.043.111.086.222.134.33.05.113.106.225.162.336.054.108.109.216.169.321.059.105.124.208.188.311.068.107.136.213.209.316.067.094.137.187.208.279.083.106.167.211.255.312.036.042.067.086.104.127l39.791 43.978h-34.23c-.053 0-.104.007-.156.008-.141.003-.281.01-.421.021-.111.008-.221.018-.33.031-.131.016-.262.037-.393.06-.114.02-.228.04-.34.065-.124.028-.246.061-.369.095-.114.032-.227.063-.339.1-.119.039-.236.084-.354.13-.111.043-.221.085-.329.133-.113.05-.225.106-.336.162-.108.054-.216.109-.321.169-.105.059-.207.123-.31.188-.108.068-.214.137-.318.21-.094.067-.186.137-.278.208-.106.083-.21.167-.312.255-.042.036-.086.067-.127.104-.045.041-.083.086-.127.127-.095.091-.188.183-.279.279-.084.088-.166.177-.244.269-.078.091-.153.184-.226.278-.08.102-.157.204-.231.309-.065.092-.126.187-.187.282-.07.11-.139.221-.203.334-.057.1-.109.203-.161.306-.057.112-.113.224-.163.339-.049.111-.094.224-.137.338-.043.111-.085.222-.123.335-.04.12-.074.241-.108.363-.031.113-.061.225-.087.339-.028.122-.051.245-.072.369-.021.121-.04.242-.056.364-.014.116-.025.233-.034.351-.01.135-.017.271-.021.407-.001.058-.009.114-.009.173 0 .053.007.105.008.158.003.139.01.277.021.416.009.112.018.224.031.334.016.13.037.259.059.388.02.115.041.23.066.344.027.123.06.244.094.365.032.115.064.23.101.343.039.117.083.233.128.349.043.112.086.224.135.334.05.112.104.221.159.331s.111.22.171.327c.058.103.122.204.185.305.069.109.139.218.214.323.065.092.134.182.203.272.085.109.172.217.262.321.035.04.064.083.1.123l39.792 43.979h-34.231c-.052 0-.102.007-.153.008-.142.003-.284.011-.426.021-.109.008-.218.018-.325.031-.133.016-.265.037-.397.061-.113.02-.225.04-.335.064-.125.028-.25.062-.374.096-.113.031-.225.062-.335.099-.12.039-.238.085-.356.13-.11.042-.219.085-.327.132-.114.05-.226.106-.338.163-.107.054-.214.108-.319.167-.105.06-.208.124-.311.189-.107.068-.213.136-.317.209-.094.067-.186.137-.278.208-.106.083-.21.167-.312.255-.042.036-.086.067-.127.104-.045.041-.083.086-.127.127-.095.09-.188.183-.278.278-.084.089-.166.178-.245.27-.077.09-.152.182-.225.275-.08.103-.159.206-.233.312-.064.091-.124.185-.184.279-.071.111-.14.223-.205.337-.056.099-.108.201-.159.303-.057.113-.114.226-.165.342-.049.11-.093.222-.136.334s-.086.225-.124.339c-.04.119-.074.24-.107.361-.031.113-.062.227-.088.341-.027.121-.05.244-.072.367-.021.122-.041.243-.056.366-.014.116-.025.232-.034.35-.01.136-.017.271-.021.407-.001.058-.009.114-.009.173 0 .053.007.105.008.158.003.139.01.277.021.415.009.112.018.224.031.335.016.13.037.259.059.388.02.116.041.231.066.345.027.122.06.243.094.364.032.116.064.231.101.344.039.117.083.233.127.349.043.112.087.224.135.334.049.112.104.221.159.33.055.11.111.22.172.327.058.103.121.203.185.304.069.11.139.218.214.324.065.092.134.182.203.272.085.109.172.217.262.321.035.04.064.083.1.123l51.131 56.513c1.48 1.637 3.518 2.468 5.562 2.468 1.794 0 3.596-.64 5.031-1.938 3.071-2.779 3.309-7.522.529-10.593l-39.793-43.981h34.233c.24 0 .48-.013.719-.036.089-.008.175-.024.263-.036.148-.019.296-.039.442-.068.103-.02.204-.046.306-.07.129-.031.257-.061.385-.099.104-.031.207-.066.309-.101.122-.042.242-.085.362-.133.101-.041.201-.084.3-.129.116-.053.232-.108.346-.167.097-.05.193-.103.288-.157.109-.063.217-.128.324-.197.096-.062.189-.125.282-.19.1-.07.197-.144.294-.22.093-.073.185-.148.274-.225.044-.038.091-.071.135-.111.045-.041.083-.086.127-.127.095-.091.188-.183.279-.279.084-.088.166-.177.244-.269.078-.091.153-.184.226-.278.08-.102.157-.204.231-.309.065-.092.126-.187.187-.282.07-.11.139-.221.203-.334.057-.1.109-.203.161-.307.056-.112.112-.224.163-.338.05-.111.094-.225.138-.339.043-.111.085-.222.122-.334.04-.12.074-.241.108-.364.031-.113.061-.225.087-.339.028-.122.051-.245.072-.369.021-.121.04-.242.056-.364.014-.116.025-.233.034-.351.01-.135.017-.271.021-.407.001-.058.009-.114.009-.173 0-.053-.007-.105-.008-.158-.003-.139-.01-.277-.021-.416-.009-.112-.018-.224-.031-.334-.016-.13-.037-.259-.059-.388-.02-.115-.041-.23-.066-.344-.027-.123-.06-.244-.094-.365-.032-.115-.064-.23-.101-.343-.039-.117-.083-.232-.127-.348-.043-.113-.087-.225-.136-.335-.049-.111-.104-.22-.159-.33-.056-.11-.111-.22-.172-.327-.058-.103-.122-.204-.185-.305-.069-.109-.139-.218-.214-.323-.065-.092-.134-.182-.203-.272-.085-.109-.172-.217-.262-.321-.035-.04-.064-.083-.1-.123l-39.792-43.979h34.233c.24 0 .48-.013.719-.036.089-.008.175-.024.263-.036.148-.019.296-.039.442-.068.103-.02.204-.046.306-.07.129-.031.257-.061.385-.099.104-.031.207-.066.309-.101.122-.042.242-.085.362-.133.101-.041.201-.084.3-.129.116-.053.232-.108.346-.167.097-.05.193-.103.288-.157.109-.063.217-.128.324-.197.096-.062.189-.125.282-.19.1-.07.197-.144.294-.22.093-.073.185-.148.274-.225.044-.038.091-.071.135-.111.045-.041.083-.086.127-.127.095-.091.188-.183.279-.279.084-.088.166-.177.244-.269.078-.091.153-.184.226-.278.08-.102.157-.204.231-.309.065-.092.126-.187.187-.282.07-.11.139-.221.203-.334.057-.1.109-.203.161-.307.056-.112.112-.224.163-.338.05-.111.094-.225.138-.339.043-.111.085-.222.122-.334.04-.12.074-.242.108-.364.031-.113.061-.225.087-.339.028-.122.051-.245.072-.369.021-.121.04-.242.056-.364.014-.116.025-.233.034-.351.01-.135.017-.271.021-.407.001-.058.009-.114.009-.173 0-.053-.007-.105-.008-.158-.003-.139-.01-.277-.021-.416-.009-.112-.018-.223-.031-.334-.016-.13-.037-.26-.059-.389-.02-.115-.041-.23-.066-.343-.027-.123-.06-.245-.094-.367-.032-.115-.063-.229-.101-.341-.039-.118-.083-.234-.128-.351-.043-.112-.086-.223-.134-.332-.05-.113-.105-.224-.161-.335-.054-.108-.109-.216-.169-.321-.059-.105-.124-.208-.188-.311-.068-.107-.136-.213-.209-.316-.067-.094-.137-.187-.208-.279-.083-.106-.167-.211-.255-.312-.036-.042-.067-.086-.104-.127l-39.792-43.978h34.232c.24 0 .48-.013.719-.036.089-.008.175-.024.263-.036.148-.019.296-.039.442-.068.103-.02.204-.046.306-.07.129-.031.257-.061.385-.099.104-.031.207-.066.309-.101.122-.042.242-.085.362-.133.101-.041.201-.084.3-.129.116-.053.232-.108.346-.167.097-.05.193-.103.288-.157.109-.063.217-.128.324-.197.096-.062.189-.125.282-.19.1-.07.197-.144.294-.22.093-.073.185-.148.274-.225.044-.038.091-.071.135-.111.045-.041.083-.086.127-.127.095-.091.188-.183.279-.279.084-.088.166-.177.244-.269.078-.091.153-.184.226-.278.08-.102.157-.204.231-.309.065-.092.126-.187.187-.282.07-.11.139-.221.203-.334.057-.1.109-.203.161-.306.056-.112.112-.224.163-.338.05-.111.094-.225.138-.339.043-.111.085-.222.122-.334.04-.12.074-.241.108-.364.031-.113.061-.225.087-.339.028-.122.051-.245.072-.369.021-.121.04-.242.056-.364.014-.116.025-.233.034-.351.01-.135.017-.271.021-.407.001-.058.009-.114.009-.173 0-.053-.007-.105-.008-.158-.003-.139-.01-.277-.021-.416-.009-.112-.018-.224-.031-.334-.016-.13-.037-.259-.059-.388-.02-.115-.041-.23-.066-.344-.027-.123-.06-.244-.094-.365-.032-.115-.064-.23-.101-.343-.039-.117-.083-.232-.127-.348-.043-.113-.087-.225-.136-.335-.049-.111-.104-.22-.159-.33-.056-.11-.111-.22-.172-.327-.058-.103-.122-.204-.185-.305-.069-.109-.139-.218-.214-.323-.065-.092-.134-.182-.203-.272-.085-.109-.172-.217-.262-.321-.035-.04-.064-.083-.1-.123l-39.792-43.979h34.243z" fill="#5c6c75"/><path d="m412.477 216.806c-13.767 0-24.967-11.2-24.967-24.966 0-11.154 7.354-20.624 17.467-23.816v-58.724c0-4.142 3.357-7.5 7.5-7.5s7.5 3.358 7.5 7.5v65.073c0 4.142-3.357 7.5-7.5 7.5-5.496 0-9.967 4.471-9.967 9.967s4.471 9.966 9.967 9.966 9.967-4.471 9.967-9.966c0-4.142 3.357-7.5 7.5-7.5s7.5 3.358 7.5 7.5c-.001 13.766-11.201 24.966-24.967 24.966z" fill="#5c6c75"/><g fill="#7d8c97"><path d="m153.96 63.556c-4.143 0-7.5-3.358-7.5-7.5v-48.554c0-4.142 3.357-7.5 7.5-7.5s7.5 3.358 7.5 7.5v48.555c0 4.142-3.357 7.499-7.5 7.499z"/><path d="m58.872 89.759c-2.222 0-4.421-.983-5.901-2.865-2.56-3.256-1.995-7.972 1.262-10.531l95.093-74.757c3.254-2.559 7.97-1.996 10.531 1.261 2.56 3.256 1.995 7.972-1.262 10.531l-95.093 74.757c-1.373 1.08-3.008 1.604-4.63 1.604z"/><path d="m376.106 92.761c-.822 0-1.658-.136-2.478-.423l-222.145-77.757c-3.91-1.369-5.97-5.647-4.602-9.557 1.369-3.91 5.648-5.969 9.557-4.601l222.145 77.757c3.91 1.369 5.97 5.647 4.602 9.557-1.082 3.089-3.981 5.024-7.079 5.024z"/></g><path d="m62.989 158.509c-4.143 0-7.5-3.358-7.5-7.5v-41.709c0-4.142 3.357-7.5 7.5-7.5s7.5 3.358 7.5 7.5v41.709c0 4.142-3.358 7.5-7.5 7.5z" fill="#5c6c75"/><path d="m441.305 244.953c-4.143 0-7.5 3.358-7.5 7.5v14.68h-68.009v-66.687c0-4.142-3.357-7.5-7.5-7.5s-7.5 3.358-7.5 7.5v7.032h-68.008v-7.032c0-4.142-3.357-7.5-7.5-7.5s-7.5 3.358-7.5 7.5v110.756c0 4.142 3.357 7.5 7.5 7.5s7.5-3.358 7.5-7.5v-29.069h68.008v29.069c0 4.142 3.357 7.5 7.5 7.5s7.5-3.358 7.5-7.5v-29.069h68.009v52.155c0 4.142 3.357 7.5 7.5 7.5s7.5-3.358 7.5-7.5v-81.835c0-4.142-3.358-7.5-7.5-7.5zm-158.516 22.18v-44.656h68.008v44.656z" fill="#7d8c97"/><path d="m379.3 331.014v-15.449c0-2.41-1.954-4.364-4.364-4.364h-103.278c-2.41 0-4.364 1.954-4.364 4.364v188.935h182.194v-165.848c0-2.41-1.954-4.364-4.364-4.364h-62.55c-1.808 0-3.274-1.466-3.274-3.274z" fill="#d7e3f2"/><path d="m445.123 334.288h-21.098c2.41 0 4.364 1.954 4.364 4.364v165.848h21.098v-165.848c.001-2.41-1.953-4.364-4.364-4.364z" fill="#b7cee9"/><path d="m333.794 443.744v60.756h49.006v-60.756c0-1.105-.895-2-2-2h-45.006c-1.105 0-2 .896-2 2z" fill="#94615f"/><g fill="#62a4fb"><path d="m335.293 404.297h-32.363c-1.105 0-2-.895-2-2v-32.363c0-1.105.895-2 2-2h32.363c1.105 0 2 .895 2 2v32.363c0 1.104-.896 2-2 2z"/><path d="m413.664 404.297h-32.364c-1.105 0-2-.895-2-2v-32.363c0-1.105.895-2 2-2h32.363c1.105 0 2 .895 2 2v32.363c.001 1.104-.895 2-1.999 2z"/></g><path d="m466.941 512h-217.101c-4.143 0-7.5-3.358-7.5-7.5s3.357-7.5 7.5-7.5h217.102c4.143 0 7.5 3.358 7.5 7.5-.001 4.142-3.358 7.5-7.501 7.5z" fill="#5c6c75"/><path d="m128.395 475.994c-4.143 0-7.5-3.358-7.5-7.5v-339.992c0-4.142 3.357-7.5 7.5-7.5s7.5 3.358 7.5 7.5v339.991c0 4.143-3.358 7.501-7.5 7.501z" fill="#7d8c97"/><path d="m179.527 475.994c-4.143 0-7.501-3.358-7.501-7.5v-339.992c0-4.142 3.357-7.5 7.5-7.5s7.5 3.358 7.5 7.5v339.991c0 4.143-3.357 7.501-7.499 7.501z" fill="#7d8c97"/><g><path d="m97.53 508.534 10.289-38.959c.299-1.133 1.209-1.908 2.241-1.908h96.058c1.032 0 1.942.775 2.241 1.908l10.289 38.959c.456 1.725-.67 3.466-2.241 3.466h-116.636c-1.571 0-2.696-1.741-2.241-3.466z" fill="#7d8c97"/><path d="m218.648 508.534-10.289-38.959c-.299-1.133-1.209-1.908-2.241-1.908h-24.322c1.032 0 1.942.775 2.241 1.908l10.289 38.959c.456 1.725-.67 3.466-2.241 3.466h24.322c1.571 0 2.697-1.741 2.241-3.466z" fill="#5c6c75"/></g><path d="m431.922 109.3h-391.09c-1.808 0-3.273-1.466-3.273-3.273v-27.495c0-1.808 1.466-3.273 3.273-3.273h391.09c9.4 0 17.02 7.62 17.02 17.02s-7.62 17.021-17.02 17.021z" fill="#f29b4e"/><path d="m84.054 185.942h-42.131c-2.41 0-4.364-1.954-4.364-4.364v-26.204c0-2.41 1.954-4.364 4.364-4.364h42.131c2.41 0 4.364 1.954 4.364 4.364v26.204c.001 2.41-1.953 4.364-4.364 4.364z" fill="#f29b4e"/><path d="m193.907 128.503h-79.435c-2.708 0-4.762-2.44-4.301-5.108l11.016-63.717c.362-2.092 2.177-3.621 4.301-3.621h57.403c2.124 0 3.939 1.528 4.301 3.621l11.016 63.717c.46 2.668-1.594 5.108-4.301 5.108z" fill="#7d8c97"/><path d="m198.207 123.395-11.016-63.717c-.362-2.092-2.177-3.621-4.301-3.621h-22.667c2.124 0 3.939 1.528 4.301 3.621l11.016 63.717c.461 2.668-1.593 5.108-4.301 5.108h22.667c2.708 0 4.763-2.44 4.301-5.108z" fill="#5c6c75"/></g></svg>