<svg id="Layer_1" enable-background="new 0 0 256 256" height="512" viewBox="0 0 256 256" width="512" xmlns="http://www.w3.org/2000/svg"><g><g><g><g><path d="m141.875 8.001h-127.76c-5.523 0-10 4.477-10 10v219.999c0 5.523 4.477 10 10 10h168.43c5.523 0 10-4.477 10-10v-179.347z" fill="#f1f2f2"/></g><g><path d="m10.115 88.75c-1.104 0-2-.896-2-2v-57c0-1.104.896-2 2-2s2 .896 2 2v57c0 1.104-.895 2-2 2zm0-65c-1.104 0-2-.896-2-2v-.5c0-1.104.896-2 2-2s2 .896 2 2v.5c0 1.104-.895 2-2 2z" fill="#fff"/></g><g><path d="m192.544 58.653-10 .002v169.345c0 5.523-4.477 10-10 10h-168.429c0 5.523 4.477 10 10 10h168.43c5.523 0 10-4.477 10-10z" fill="#e6e7e8"/></g><g><path d="m192.544 58.653-5 .001v174.346c0 5.523-4.477 10-10 10h-168.429c-1.466 0-2.855-.323-4.11-.89 1.569 3.471 5.053 5.89 9.11 5.89h168.43c5.523 0 10-4.477 10-10z" fill="#d1d3d4"/></g><g><path d="m141.875 48.66v-40.66l50.669 50.653-40.667.007c-5.523.001-10.002-4.476-10.002-10z" fill="#939598"/></g><g><path d="m187.543 53.653-40.666.007c-1.467 0-2.856-.323-4.111-.891 1.569 3.471 5.054 5.891 9.111 5.891l40.667-.007z" fill="#808285"/></g></g></g><g><g><path d="m121.33 157.333h-30c-1.104 0-2-.896-2-2s.896-2 2-2h30c1.104 0 2 .896 2 2s-.895 2-2 2z" fill="#414042"/></g><g><path d="m121.33 137.333h-30c-1.104 0-2-.896-2-2s.896-2 2-2h30c1.104 0 2 .896 2 2s-.895 2-2 2z" fill="#414042"/></g><g><path d="m121.33 177.333h-30c-1.104 0-2-.896-2-2s.896-2 2-2h30c1.104 0 2 .896 2 2s-.895 2-2 2z" fill="#414042"/></g><g><path d="m121.33 197.333h-92c-1.104 0-2-.896-2-2s.896-2 2-2h92c1.104 0 2 .896 2 2s-.895 2-2 2z" fill="#414042"/></g><g><path d="m121.33 217.333h-92c-1.104 0-2-.896-2-2s.896-2 2-2h92c1.104 0 2 .896 2 2s-.895 2-2 2z" fill="#414042"/></g></g><g><g><g><path d="m96.617 42.833v66.5h18.425v-66.5c0-1.105-.895-2-2-2h-14.425c-1.104 0-2 .896-2 2z" fill="#76a34f"/></g></g><g><path d="m113.042 40.833h-3v58.5c0 2.761-2.239 5-5 5h-8.425v5h18.425v-66.5c0-1.104-.895-2-2-2z" fill="#648940"/></g><g><g><path d="m35.618 85.228v24.105h18.425v-24.105c0-1.105-.895-2-2-2h-14.425c-1.105 0-2 .895-2 2z" fill="#e63950"/></g></g><g><path d="m52.043 83.228h-3v16.105c0 2.761-2.239 5-5 5h-8.425v5h18.425v-24.105c0-1.105-.896-2-2-2z" fill="#d10028"/></g><g><g><path d="m66.118 61.99v47.344h18.425v-47.344c0-1.105-.895-2-2-2h-14.425c-1.105 0-2 .895-2 2z" fill="#ffc91d"/></g></g><g><path d="m82.542 59.99h-3v39.344c0 2.761-2.239 5-5 5h-8.425v5h18.425v-47.344c0-1.105-.895-2-2-2z" fill="#ffa91a"/></g><g><path d="m121.33 111.333h-92c-1.104 0-2-.896-2-2s.896-2 2-2h92c1.104 0 2 .896 2 2s-.895 2-2 2z" fill="#414042"/></g></g><g><g><g><path d="m132.535 118v115c0 8.284 6.716 15 15 15h90.604v-130c0-2.761-2.239-5-5-5h-95.604c-2.762 0-5 2.238-5 5z" fill="#5e9cf7"/></g><g><path d="m233.139 113v130h-90.604c-2.86 0-5.523-.814-7.797-2.203 2.634 4.314 7.372 7.203 12.797 7.203h90.604v-130c0-2.762-2.239-5-5-5z" fill="#478cf7"/></g><g><path d="m251.885 234.695c0 6.944-5.295 12.649-12.067 13.304h-92.904c6.843-.586 12.218-6.31 12.218-13.304 0-4.271-2.01-8.065-5.127-10.513h6.276 86.476c3.118 2.448 5.128 6.242 5.128 10.513z" fill="#377de2"/></g><g><path d="m246.758 224.183h-1.084c.767 1.682 1.211 3.542 1.211 5.513 0 6.944-5.295 12.649-12.067 13.304h-78.595c-2.226 2.792-5.542 4.677-9.309 5h92.904c6.772-.655 12.067-6.36 12.067-13.304 0-4.272-2.01-8.066-5.127-10.513z" fill="#2266d3"/></g></g><g><g><path d="m160.076 151.603c-7.112 0-12.898-5.786-12.898-12.898s5.786-12.898 12.898-12.898 12.898 5.786 12.898 12.898-5.787 12.898-12.898 12.898zm0-21.797c-4.906 0-8.898 3.992-8.898 8.898s3.992 8.898 8.898 8.898 8.898-3.992 8.898-8.898-3.992-8.898-8.898-8.898z" fill="#fff"/></g><g><path d="m209.154 213.292c-7.112 0-12.898-5.786-12.898-12.898 0-7.111 5.786-12.897 12.898-12.897s12.898 5.786 12.898 12.897c.001 7.112-5.785 12.898-12.898 12.898zm0-21.796c-4.906 0-8.898 3.991-8.898 8.897s3.992 8.898 8.898 8.898c4.907 0 8.898-3.992 8.898-8.898s-3.991-8.897-8.898-8.897z" fill="#fff"/></g><g fill="#fff"><path d="m214.159 138.704 7.308-7.308c.781-.781.781-2.047 0-2.828s-2.048-.781-2.828 0l-7.308 7.308-7.308-7.308c-.781-.781-2.048-.781-2.828 0-.781.781-.781 2.047 0 2.828l7.308 7.308-7.308 7.308c-.781.781-.781 2.047 0 2.828.391.391.902.586 1.414.586s1.024-.195 1.414-.586l7.308-7.308 7.308 7.308c.391.391.902.586 1.414.586s1.024-.195 1.414-.586c.781-.781.781-2.047 0-2.828z"/><path d="m160.728 198.218 7.308-7.308c.781-.781.781-2.047 0-2.828-.78-.781-2.048-.781-2.828 0l-7.308 7.308-7.308-7.308c-.78-.781-2.048-.781-2.828 0-.781.781-.781 2.047 0 2.828l7.308 7.308-7.308 7.308c-.781.781-.781 2.047 0 2.828.39.391.902.586 1.414.586s1.024-.195 1.414-.586l7.308-7.308 7.308 7.308c.39.391.902.586 1.414.586s1.024-.195 1.414-.586c.781-.781.781-2.047 0-2.828z"/><path d="m210.38 150.343c-1.083-.181-2.121.552-2.304 1.641-1.532 9.107-7.503 30.388-30.242 40.357l1.921-3.833c.495-.988.095-2.189-.892-2.685s-2.19-.096-2.684.892l-4.234 8.45c-.253.506-.281 1.094-.076 1.62.205.527.622.942 1.15 1.145l8.047 3.078c.235.09.477.133.714.133.805 0 1.564-.49 1.869-1.286.395-1.032-.122-2.188-1.154-2.583l-3.176-1.215c24.611-10.7 31.055-33.613 32.703-43.408.183-1.091-.552-2.123-1.642-2.306z"/></g></g></g><g><g><circle cx="56.83" cy="156.583" fill="#e63950" r="27.5"/></g><g><path d="m71.388 133.256c4.909 4.967 7.942 11.792 7.942 19.328 0 15.188-12.312 27.5-27.5 27.5-5.348 0-10.335-1.531-14.558-4.172 4.985 5.044 11.905 8.172 19.558 8.172 15.188 0 27.5-12.312 27.5-27.5 0-9.841-5.172-18.469-12.942-23.328z" fill="#d10028"/></g><g><path d="m29.33 156.583c0 7.809 3.26 14.852 8.487 19.858l19.013-19.858v-27.5c-15.188 0-27.5 12.313-27.5 27.5z" fill="#76a34f"/></g><g><path d="m36.706 137.85 20.124 18.734v-27.5c-7.948-.001-15.103 3.375-20.124 8.766z" fill="#ffc91d"/></g></g></g></svg>