<svg id="Layer_1" enable-background="new 0 0 64 64" viewBox="0 0 64 64" xmlns="http://www.w3.org/2000/svg"><g><g><path d="m52.65 61.19c0 .28-.22.49-.49.49h-38.43c-1.56 0-2.91-.87-3.61-2.15v-.01c-.17-.31-.31-.66-.37-1.01l.87-.87c.01.4.1.79.25 1.14.47 1.12 1.59 1.91 2.88 1.91h38.43c.25.01.47.23.47.5z"/><path d="m56.25 4.4v31.46c0 .27-.23.49-.49.49-.28 0-.49-.23-.49-.49v-31.46c0-1.71-1.4-3.11-3.11-3.11h-38.43c-1.72 0-3.12 1.4-3.12 3.11v44.15l-.98.98v-45.13c0-2.25 1.84-4.1 4.11-4.1h38.43c2.24 0 4.08 1.84 4.08 4.1z"/></g><g><path d="m27.31 20.84c-7.91 0-14.35 6.43-14.35 14.35 0 3.29 1.12 6.33 2.99 8.75.2.26.4.51.62.76.76.86 1.62 1.62 2.57 2.28.28.19.56.37.86.54.74.44 1.51.81 2.32 1.11.32.12.65.23.98.32 1.27.37 2.61.57 4 .57 7.51 0 13.71-5.82 14.3-13.18.03-.32.04-.65.05-.98v-.18c.01-7.91-6.43-14.34-14.34-14.34zm0 27.71c-1.51 0-2.95-.25-4.3-.71-.03-.01-.06-.02-.09-.03-.93-.33-1.8-.75-2.62-1.26l-.01-.01c-.06-.03-.13-.07-.19-.11-3.7-2.38-6.15-6.53-6.15-11.24 0-7.36 6-13.36 13.36-13.36s13.36 6 13.36 13.36c0 .22-.01.44-.02.66v.01.02c-.35 7.03-6.2 12.67-13.34 12.67z"/><path d="m27.31 21.82c-7.36 0-13.36 6-13.36 13.36 0 4.72 2.45 8.86 6.15 11.24.07.02.13.05.19.11l.01.01c.82.51 1.69.94 2.62 1.26.03.01.06.02.09.03 1.35.46 2.8.71 4.3.71 7.14 0 12.99-5.63 13.34-12.67 0-.01 0-.01 0-.02v-.01c.01-.22.02-.44.02-.66 0-7.36-5.99-13.36-13.36-13.36zm0 23.52c-5.6 0-10.15-4.56-10.15-10.15 0-5.6 4.55-10.15 10.15-10.15 5.59 0 10.15 4.55 10.15 10.15 0 5.59-4.55 10.15-10.15 10.15z" fill="#2ba1dd"/></g><g><path d="m27.31 25.03c-5.6 0-10.15 4.55-10.15 10.15 0 5.59 4.55 10.15 10.15 10.15 5.59 0 10.15-4.56 10.15-10.15 0-5.6-4.55-10.15-10.15-10.15zm0 19.32c-5.05 0-9.17-4.12-9.17-9.17 0-5.06 4.12-9.17 9.17-9.17s9.17 4.11 9.17 9.17-4.12 9.17-9.17 9.17z"/><path d="m27.31 26.02c-5.05 0-9.17 4.11-9.17 9.17 0 5.05 4.12 9.17 9.17 9.17s9.17-4.12 9.17-9.17c0-5.07-4.12-9.17-9.17-9.17zm.09 8.82c.01 0 .02 0 .03.01 1.31.16 2.11.95 2.11 2.07 0 .99-.74 1.82-1.73 2.03v1.25c0 .28-.22.49-.49.49-.28 0-.49-.22-.49-.49v-1.25c-.99-.21-1.73-1.03-1.73-2.03 0-.28.22-.49.49-.49s.49.22.49.49c0 .6.55 1.09 1.24 1.09s1.24-.49 1.24-1.09c0-.76-.64-1.01-1.21-1.09-.03 0-.05-.01-.08-.01-.01 0-.02 0-.03-.01-1.35-.2-2.14-.97-2.15-2.18-.02-1.06.71-1.97 1.7-2.21v-1.26c0-.28.22-.49.49-.49.28 0 .49.22.49.49v1.25c.99.21 1.74 1.08 1.76 2.15.01.27-.21.49-.48.49-.29-.03-.49-.21-.5-.48-.01-.68-.57-1.21-1.26-1.22h-.01c-.69.02-1.23.58-1.21 1.26 0 .27.01 1.05 1.33 1.23z" fill="#f6f6f5"/></g><g><path d="m19.15 46.98-2.24 2.24-2.42-2.43 2.09-2.09c.76.85 1.63 1.62 2.57 2.28z" fill="#4f4f4f"/><path d="m20.29 47.24-.29.29-2.39 2.39-.34.34c-.1.1-.23.14-.35.14s-.25-.04-.34-.14l-3.12-3.12c-.09-.1-.15-.22-.15-.35s.06-.25.15-.34l.34-.34 2.17-2.16.31-.31c.19-.2.5-.2.69 0 .2.19.2.5 0 .69l-2.46 2.46 2.42 2.43 2.68-2.68c.14-.14.34-.18.51-.11.06.04.13.08.19.11l.01.01c.16.19.16.49-.03.69z"/></g><g><g><path d="m18.32 51.31-8.21 8.21v.01l-4.03 4.02c-.1.1-.23.15-.35.15s-.25-.05-.34-.15c-.2-.19-.2-.5 0-.69l.35-.35 4.86-4.86 6.68-6.68-.71-.71c-.19-.19-.19-.5 0-.69.2-.2.5-.2.7 0l.34.34.71.7c.19.2.19.52 0 .7z"/></g><g><path d="m17.28 50.97-6.68 6.67-4.86 4.87-4.55-4.55 9.41-9.41 2.13-2.13.72.72 3.12 3.12z" fill="#ee7921"/><path d="m14.14 47.14c-.19.19-.5.19-.69 0l-.72-.72-2.13 2.13-9.41 9.41 4.55 4.55.34.35c.19.19.19.5 0 .69-.1.1-.23.15-.35.15s-.25-.05-.34-.15l-5.24-5.24c-.2-.2-.2-.5 0-.7l12.24-12.24c.18-.19.51-.19.69 0l1.06 1.06c.2.21.2.51 0 .71z"/></g></g><g><path d="m22.33 48.64v12.06h-8.61c-1.29 0-2.4-.79-2.88-1.91l7.47-7.47c.19-.19.19-.5 0-.7l-.71-.7 2.39-2.39c.76.44 1.52.8 2.34 1.11z" fill="#cce0f1"/><path d="m64 35.85v25.33c0 .28-.22.49-.49.49h-40.69c-.28 0-.49-.22-.49-.49v-12.9c0-.28.22-.49.49-.49.03 0 .07 0 .1.01s.06.02.09.03c.18.07.31.25.31.45v12.42h39.7v-24.35h-21.87c-.27 0-.48-.21-.49-.47 0-.01 0-.01 0-.02v-.01c.01-.28.22-.48.49-.48h22.36c.27-.01.49.21.49.48z"/></g><g><path d="m60.39 48.52c0 .28-.22.49-.49.49h-16.19c-.27 0-.49-.22-.49-.49s.23-.49.49-.49h16.19c.27-.01.49.22.49.49z"/></g><g><path d="m60.39 44.51c0 .27-.22.49-.49.49h-16.19c-.27 0-.49-.23-.49-.49 0-.28.23-.49.49-.49h16.19c.27 0 .49.21.49.49z"/></g><g><path d="m60.39 40.49c0 .27-.22.49-.49.49h-16.19c-.27 0-.49-.23-.49-.49 0-.28.23-.49.49-.49h16.19c.27 0 .49.22.49.49z"/></g><g><path d="m60.39 52.76c0 .28-.22.49-.49.49h-27.95c-.28 0-.49-.22-.49-.49s.22-.49.49-.49h27.94c.28 0 .5.22.5.49z"/></g><g><path d="m41.61 36.35c-.59 7.36-6.78 13.18-14.3 13.18-1.39 0-2.73-.2-4-.57v11.74h39.7v-24.35zm18.28 21.56h-27.94c-.28 0-.49-.22-.49-.49s.22-.49.49-.49h27.94c.28 0 .49.23.49.49.01.27-.21.49-.49.49zm0-4.66h-27.94c-.28 0-.49-.22-.49-.49s.22-.49.49-.49h27.94c.28 0 .49.23.49.49.01.28-.21.49-.49.49zm0-4.24h-16.18c-.27 0-.49-.22-.49-.49s.23-.49.49-.49h16.19c.28 0 .49.23.49.49 0 .27-.22.49-.5.49zm0-4.01h-16.18c-.27 0-.49-.23-.49-.49 0-.28.23-.49.49-.49h16.19c.28 0 .49.22.49.49s-.22.49-.5.49zm0-4.02h-16.18c-.27 0-.49-.23-.49-.49 0-.28.23-.49.49-.49h16.19c.28 0 .49.22.49.49s-.22.49-.5.49z" fill="#687a85"/><path d="m60.39 57.42c0 .28-.22.49-.49.49h-27.95c-.28 0-.49-.22-.49-.49s.22-.49.49-.49h27.94c.28 0 .5.22.5.49z"/></g><g><path d="m46.73 5.36h-27.94c-.9 0-1.62.73-1.62 1.62v4.23c0 .91.73 1.63 1.62 1.63h27.94c.9 0 1.63-.73 1.63-1.63v-4.22c0-.9-.73-1.63-1.63-1.63zm.65 5.86c0 .36-.3.65-.65.65h-27.94c-.35 0-.64-.29-.64-.65v-4.23c0-.35.29-.64.64-.64h27.94c.35 0 .65.29.65.64z"/></g><g><g><path d="m29.54 33.56c.01.27-.21.49-.48.49-.29-.03-.49-.21-.5-.48-.01-.68-.57-1.21-1.26-1.22h-.01c-.69.02-1.23.58-1.21 1.26 0 .27.01 1.05 1.33 1.23.01 0 .02 0 .03.01.26.05.43.29.39.54-.03.25-.25.43-.48.43-.03 0-.05-.01-.08-.01-.01 0-.02 0-.03-.01-1.35-.2-2.14-.97-2.15-2.18-.02-1.06.71-1.97 1.7-2.21.16-.04.31-.06.48-.06h.04c.16 0 .31.02.46.05 1 .22 1.75 1.1 1.77 2.16z"/></g><g><path d="m29.54 36.92c0 .99-.74 1.82-1.73 2.03-.16.03-.33.05-.5.05s-.33-.02-.49-.05c-.99-.21-1.73-1.03-1.73-2.03 0-.28.22-.49.49-.49s.49.22.49.49c0 .6.55 1.09 1.24 1.09s1.24-.49 1.24-1.09c0-.76-.64-1.01-1.21-1.09-.03 0-.05-.01-.08-.01-.01 0-.02 0-.03-.01-.27-.04-.44-.27-.41-.53.03-.27.3-.46.54-.43.02 0 .05.01.07.01 1.31.15 2.11.94 2.11 2.06z"/></g><g><path d="m27.78 30.16v1.69c0 .28-.21.48-.48.49h-.01c-.28 0-.49-.22-.49-.49v-1.69c0-.28.22-.49.49-.49s.49.22.49.49z"/></g><g><path d="m27.81 38.5v1.69c0 .28-.22.49-.49.49-.28 0-.49-.22-.49-.49v-1.69c0-.27.22-.49.49-.49s.49.23.49.49z"/></g></g><g><g><path d="m48.7 19.78c0 .28-.23.49-.49.49h-7.26c-.28 0-.49-.22-.49-.49s.22-.49.49-.49h7.26c.26-.01.49.22.49.49z"/></g><g><path d="m52.16 1.28h-38.43c-1.72 0-3.12 1.4-3.12 3.11v42.76l1.78-1.78c.18-.19.51-.19.69 0l.72.72 2.17-2.16c-1.87-2.42-2.99-5.46-2.99-8.75 0-7.92 6.44-14.35 14.35-14.35s14.35 6.43 14.35 14.35v.18h13.61v-30.96c-.02-1.72-1.42-3.12-3.13-3.12zm-33.37 11.57c-.9 0-1.62-.73-1.62-1.63v-4.23c0-.9.73-1.62 1.62-1.62h27.94c.9 0 1.63.73 1.63 1.62v4.23c0 .91-.74 1.63-1.63 1.63zm27.83 6.43h1.59c.27 0 .49.23.49.49 0 .28-.23.49-.49.49h-1.61c-.29 1.83-1.86 3.24-3.77 3.24h-.73l4.16 4.32c.2.2.19.51-.01.7-.1.1-.22.14-.34.14-.13 0-.26-.05-.35-.15l-4.96-5.17c-.14-.14-.18-.34-.1-.53.08-.18.26-.3.45-.3h1.87c1.36 0 2.5-.97 2.78-2.25h-4.65c-.28 0-.49-.22-.49-.49s.22-.49.49-.49h4.68c-.19-1.38-1.37-2.44-2.81-2.44h-1.87c-.28 0-.49-.23-.49-.49 0-.28.22-.49.49-.49h7.26c.27 0 .49.22.49.49s-.23.49-.49.49h-2.83c.69.62 1.14 1.48 1.24 2.44z" fill="#cce0f1"/><path d="m47.38 6.99v4.23c0 .36-.3.65-.65.65h-27.94c-.35 0-.64-.29-.64-.65v-4.23c0-.35.29-.64.64-.64h27.94c.35 0 .65.28.65.64z" fill="#687a85"/><path d="m48.7 16.35c0 .27-.23.49-.49.49h-2.83c.69.62 1.14 1.48 1.24 2.44.01.13.02.26.02.39 0 .2-.02.39-.05.59-.29 1.83-1.86 3.24-3.77 3.24h-.72l4.16 4.32c.2.2.19.51-.01.7-.1.1-.22.14-.34.14-.13 0-.26-.05-.35-.15l-4.96-5.17c-.14-.14-.18-.34-.1-.53.08-.18.26-.3.45-.3h1.87c1.36 0 2.5-.97 2.78-2.25.04-.19.06-.38.06-.59 0-.14-.01-.27-.03-.39-.19-1.38-1.37-2.44-2.81-2.44h-1.87c-.28 0-.49-.23-.49-.49 0-.28.22-.49.49-.49h7.26c.26 0 .49.21.49.49z"/></g></g></g></svg>