<svg id="Capa_1" enable-background="new 0 0 512 512" height="512" viewBox="0 0 512 512" width="512" xmlns="http://www.w3.org/2000/svg"><g><g><path d="m512 314.618v-256.869c0-31.889-25.859-57.747-57.747-57.747h-196.559c-160.466 13.57-177.155 311.929-60.274 372.363h256.833c31.888 0 57.747-25.859 57.747-57.747z" fill="#dbd8f1"/><path d="m257.694.001h-199.947c-31.888 0-57.747 25.859-57.747 57.748v256.869c0 31.889 25.859 57.747 57.747 57.747h139.672c-31.853-120.18-10.1-273.02 60.275-372.364z" fill="#cbc5ef"/><path d="m429.316 319.277c2.71-15.077 14.628-26.979 29.766-29.626 3.693-.646 6.372-3.877 6.372-7.626 0-10.158 0-180.415 0-191.683 0-3.766-2.707-6.981-6.416-7.634-15.125-2.664-27.015-14.564-29.722-29.617-.675-3.756-3.845-6.544-7.661-6.544-2.001 0-101.922 0-191.575 0-125.611 11.502-134.403 235.954-42.136 279.273h233.711c3.816 0 6.986-2.788 7.661-6.543z" fill="#eceaf5"/><path d="m230.081 46.547c-70.236 0-134.161 0-139.738 0-3.729 0-6.982 2.645-7.619 6.32-2.634 15.191-14.617 27.223-29.875 29.861-3.675.635-6.303 3.92-6.303 7.65v191.646c0 3.732 2.649 6.982 6.326 7.62 15.275 2.651 27.183 14.687 29.836 29.768.652 3.706 3.869 6.409 7.633 6.409h97.604c-13.39-91.603.834-195.956 42.136-279.274z" fill="#dbd8f1"/><path d="m310.303 434.084v57.716c0 17.959-21.714 26.953-34.413 14.254l-13.633-13.633c-3.456-3.456-9.059-3.456-12.516 0l-13.633 13.633c-12.699 12.699-34.413 3.705-34.413-14.254v-57.715c.002-65.578 108.608-65.578 108.608-.001z" fill="#fb6276"/><path d="m356.848 349.092c0-49.696-36.013-91.135-83.517-99.36-129.992.001-129.991 198.722.001 198.721 47.579-8.233 83.516-49.767 83.516-99.361z" fill="#fce299"/><path d="m273.332 249.732c-5.63-.975-11.42-1.488-17.332-1.488-55.809 0-100.848 45.273-100.848 100.848 0 55.5 44.968 100.848 100.848 100.848 5.914 0 11.704-.513 17.333-1.488-21.706-23.99-35.434-59.667-35.434-99.361 0-39.729 13.737-75.385 35.433-99.359z" fill="#fdcd64"/><path d="m395.636 125.157v-17.584c0-12.288-9.961-22.238-22.238-22.238h-160.068c-48.483 6.847-58.178 54.427-18.263 62.061h178.331c12.278-.001 22.238-9.961 22.238-22.239z" fill="#727beb"/><path d="m138.602 85.335c-12.278 0-22.238 9.95-22.238 22.238v17.584c0 12.278 9.961 22.238 22.238 22.238h56.465c4.811-21.735 10.961-42.501 18.263-62.061h-74.728z" fill="#5a6cd9"/><path d="m310.303 349.092c0-33.454-30.094-59.258-63.568-53.5-48.658 25.696-39.349 89.309.003 106.999 33.497 5.763 63.565-20.081 63.565-53.499z" fill="#fdcd64"/><path d="m246.735 295.593c-25.571 4.399-45.038 26.665-45.038 53.5 0 26.826 19.468 49.101 45.041 53.5-11.483-33.04-12.09-72.218-.003-107z" fill="#fdb245"/><path d="m387.879 178.426h-198.658c-17.118 5.171-17.843 10.344-2.177 15.515h200.835c4.284 0 7.758-3.473 7.758-7.758s-3.474-7.757-7.758-7.757z" fill="#dbd8f1"/><path d="m124.121 178.426c-4.284 0-7.758 3.473-7.758 7.758s3.473 7.758 7.758 7.758h62.923c.651-5.214 1.376-10.386 2.177-15.515h-65.1z" fill="#cbc5ef"/></g></g></svg>