<svg clip-rule="evenodd" fill-rule="evenodd" height="512" image-rendering="optimizeQuality" shape-rendering="geometricPrecision" text-rendering="geometricPrecision" viewBox="0 0 18062 18062" width="512" xmlns="http://www.w3.org/2000/svg"><g id="Layer_x0020_1"><path d="m3916 4129c-625 0-1132-508-1132-1133 0-624 508-1132 1132-1132s1132 508 1132 1132c0 625-508 1133-1132 1133zm-2125 3615h-1111v443h1111zm-1746-1818c0-175 142-317 318-317h1746c175 0 317 142 317 317v9294c0 38-7 76-19 110l-871 2516c-98 282-503 282-600 0l-871-2515c-13-35-20-73-20-111zm1746 1183v-865h-1111v865zm0 7794v-6081h-1111v6081zm-983 635 428 1234 427-1234zm5915 1260c-175 0-317-142-317-317 0-647-526-1172-1172-1172-644 0-1175 526-1172 1172 0 520 424 944 944 944h12376v-9685h-10341v8741c-1 175-143 317-318 317zm-3296-317v-9058c0-997 811-1807 1807-1807 888 0 1628 644 1779 1489h10687c175 0 317 142 317 318v10319c0 175-142 318-317 318h-12694c-870 0-1579-709-1579-1579zm1807-1807c447 0 856 163 1172 433v-7684c0-647-526-1172-1172-1172s-1172 525-1172 1172v7684c316-270 725-433 1172-433zm11331 2264h-8707c-175 0-317-142-317-317v-8077c0-175 142-317 317-317h8707c175 0 317 142 317 317v8077c0 175-142 317-317 317zm-8390-635h3719v-1587c0-91 40-180 110-240 5-5 11-9 17-14 4-3 9-6 13-9 2-1 4-3 6-4 7-4 13-8 20-12 2-1 5-2 7-3 2-1 4-3 7-4 2-1 4-2 7-3 4-2 9-4 14-6 2-1 5-2 7-3 3-1 5-1 8-2 2-1 4-2 7-3 2 0 5-1 7-2 3-1 5-1 8-2 3-1 5-1 8-2 2 0 5-1 7-2 3 0 6-1 8-1 3-1 5-1 8-1 3-1 5-1 8-1 3-1 5-1 8-1 3-1 5-1 8-1 3 0 5 0 8-1h8 8 2252c175 0 317 142 317 317 0 176-142 318-317 318h-1934v1269h3718v-3403h-2129c-175 0-317-142-317-318 0-175 142-317 317-317h2129v-3404h-3718v658c0 175-142 317-318 317-175 0-317-142-317-317v-658h-3719v3404h3719v-1447c0-175 142-317 317-317 176 0 318 142 318 317v2252c0 417-635 417-635 0v-170h-3719zm7284-9879h-1060c-145 0-271-98-307-238l-226-870c-78-40-153-83-226-131l-867 240c-139 38-287-22-359-147l-530-919c-73-125-51-283 52-385l641-631v-260l-641-631c-103-101-125-260-52-385l530-918c72-125 220-186 359-147l867 239c73-48 148-91 226-130l226-871c36-140 162-237 307-237h1060c145 0 271 97 307 237l227 871c77 39 152 82 225 130l867-239c139-39 287 22 359 147l531 918c72 125 50 283-53 385l-641 631v260l641 631c103 102 125 260 52 385l-530 919c-72 125-220 185-359 147l-867-240c-73 48-148 91-225 131l-227 870c-36 140-162 238-307 238zm-814-635h569l202-778c24-95 92-174 183-212 130-55 254-127 367-213 79-59 181-79 276-53l775 214 285-492-573-564c-141-140-79-287-79-478 0-190-62-338 79-477l573-564-285-493-775 214c-95 26-197 7-276-53-113-86-237-157-367-212-91-39-159-117-183-213l-202-777h-569l-202 777c-25 96-93 174-184 213-130 55-254 126-367 212-79 60-181 79-276 53l-775-214-285 493 573 564c141 139 79 287 79 477s62 338-79 478l-573 563 285 493 775-214c95-26 197-6 276 53 113 86 237 158 367 213 91 38 159 117 184 212zm284-1317c-694 0-1259-565-1259-1259s565-1259 1259-1259 1259 565 1259 1259-565 1259-1259 1259zm0-1883c-344 0-624 280-624 624s280 624 624 624 624-280 624-624-280-624-624-624zm-8149 2648-6417-1c-176 0-318-142-318-317s142-317 318-317h371v-1140c0-1304 945-2422 2201-2665v-477c0-175 142-317 318-317h1326c175 0 318 142 318 317v477c1255 243 2201 1361 2201 2665v1140h371c175 0 318 142 318 317s-143 317-318 317zm-317-635v-1140c0-1075-839-1985-1910-2072-164-13-291-151-291-316v-436h-692v436c0 165-127 303-292 316-1070 87-1909 997-1909 2072v1140zm-2547-2103c-274 0-498 223-498 497 0 275 224 498 498 498s497-223 497-498c0-274-223-497-497-497z" fill="#333"/><path d="m16882 16621c0 175-142 317-317 317h-8707c-175 0-317-142-317-317v-8077c0-175 142-317 317-317h8707c175 0 317 142 317 317zm500-8881h-10341v8741c-1 175-143 317-318 317s-317-142-317-317c0-647-526-1172-1172-1172-644 0-1175 526-1172 1172 0 520 424 944 944 944h12376z" fill="#ffe4af"/><path d="m16247 16303v-3403h-2129c-175 0-317-142-317-318 0-175 142-317 317-317h2129v-3404h-3718v658c0 175-142 317-318 317-175 0-317-142-317-317v-658h-3719v3404h3719v-1447c0-175 142-317 317-317 176 0 318 142 318 317v2252c0 417-635 417-635 0v-170h-3719v3403h3719v-1587c0-91 40-180 110-240 5-5 11-9 17-14 4-3 9-6 13-9l6-4c7-4 13-8 20-12l7-3 7-4 7-3c4-2 9-4 14-6l7-3 8-2 7-3 7-2 8-2 8-2 7-2 8-1 8-1 8-1 8-1 8-1 8-1h8 8 2252c175 0 317 142 317 317 0 176-142 318-317 318h-1934v1269z" fill="#ccc"/><path d="m6406 15107v-7684c0-647-526-1172-1172-1172s-1172 525-1172 1172v7684c316-270 725-433 1172-433s856 163 1172 433z" fill="#ffe4af"/><path d="m1791 14903v-6081h-1111v6081z" fill="#ffa721"/><path d="m1663 15538h-855l428 1234z" fill="#58535a"/><path d="m680 8187h1111v-443h-1111z" fill="#ccc"/><path d="m680 7109h1111v-865h-1111z" fill="#ff3131"/><path d="m3418 2996c0 275 224 498 498 498s497-223 497-498c0-274-223-497-497-497s-498 223-498 497z" fill="#ccc"/><path d="m5048 2996c0 625-508 1133-1132 1133-625 0-1132-508-1132-1133 0-624 508-1132 1132-1132s1132 508 1132 1132zm-3679 1606h5094v-1140c0-1075-839-1985-1910-2072-164-13-291-151-291-316v-436h-692v436c0 165-127 303-292 316-1070 87-1909 997-1909 2072z" fill="#ffa721"/><path d="m14259 4799c91 38 159 117 184 212l202 778h569l202-778c24-95 92-174 183-212 130-55 254-127 367-213 79-59 181-79 276-53l775 214 285-492-573-564c-141-140-79-287-79-478 0-190-62-338 79-477l573-564-285-493-775 214c-95 26-197 7-276-53-113-86-237-157-367-212-91-39-159-117-183-213l-202-777h-569l-202 777c-25 96-93 174-184 213-130 55-254 126-367 212-79 60-181 79-276 53l-775-214-285 493 573 564c141 139 79 287 79 477s62 338-79 478l-573 563 285 493 775-214c95-26 197-6 276 53 113 86 237 158 367 213zm670-327c-694 0-1259-565-1259-1259s565-1259 1259-1259 1259 565 1259 1259-565 1259-1259 1259z" fill="#7959de"/></g></svg>