<svg height="512pt" viewBox="0 -75 512 512" width="512pt" xmlns="http://www.w3.org/2000/svg"><path d="m436.824219 174.507812h-173.097657v-24.15625c0-4.265624-3.457031-7.726562-7.726562-7.726562s-7.726562 3.460938-7.726562 7.726562v24.15625h-173.097657c-4.265625 0-7.726562 3.457032-7.726562 7.726563v29.929687c0 4.269532 3.460937 7.726563 7.726562 7.726563 4.269531 0 7.726563-3.457031 7.726563-7.726563v-22.203124h165.371094v22.203124c0 4.269532 3.457031 7.726563 7.726562 7.726563s7.726562-3.457031 7.726562-7.726563v-22.203124h165.371094v22.203124c0 4.269532 3.457032 7.726563 7.726563 7.726563 4.265625 0 7.726562-3.457031 7.726562-7.726563v-29.929687c0-4.265625-3.460937-7.726563-7.726562-7.726563zm0 0" fill="#35404a"/><path d="m134.898438 212.164062h-119.445313c-8.535156 0-15.453125 6.917969-15.453125 15.453126v119.445312c0 8.535156 6.917969 15.453125 15.453125 15.453125h119.445313c8.535156 0 15.453124-6.917969 15.453124-15.453125v-119.445312c0-8.535157-6.917968-15.453126-15.453124-15.453126zm0 0" fill="#6697cc"/><path d="m496.546875 212.164062h-119.445313c-8.535156 0-15.453124 6.917969-15.453124 15.453126v119.445312c0 8.535156 6.917968 15.453125 15.453124 15.453125h119.445313c8.535156 0 15.453125-6.917969 15.453125-15.453125v-119.445312c0-8.535157-6.917969-15.453126-15.453125-15.453126zm0 0" fill="#4ff3f5"/><path d="m315.722656 212.164062h-119.445312c-8.535156 0-15.453125 6.917969-15.453125 15.453126v119.445312c0 8.535156 6.917969 15.453125 15.453125 15.453125h119.445312c8.535156 0 15.453125-6.917969 15.453125-15.453125v-119.445312c0-8.535157-6.917969-15.453126-15.453125-15.453126zm0 0" fill="#ff7c8c"/><path d="m134.898438 212.164062h-15.449219v88.542969c0 17.066407-13.839844 30.902344-30.90625 30.902344h-88.542969v15.453125c0 8.535156 6.917969 15.453125 15.453125 15.453125h119.445313c8.535156 0 15.453124-6.917969 15.453124-15.453125v-119.445312c0-8.535157-6.917968-15.453126-15.453124-15.453126zm0 0" fill="#3f70a5"/><path d="m496.546875 212.164062h-15.453125v88.542969c0 17.066407-13.835938 30.902344-30.90625 30.902344h-88.539062v15.453125c0 8.535156 6.917968 15.453125 15.453124 15.453125h119.445313c8.535156 0 15.453125-6.917969 15.453125-15.453125v-119.445312c0-8.535157-6.917969-15.453126-15.453125-15.453126zm0 0" fill="#22c6c8"/><path d="m315.722656 212.164062h-15.453125v88.542969c0 17.066407-13.835937 30.902344-30.902343 30.902344h-88.542969v15.453125c0 8.535156 6.917969 15.453125 15.453125 15.453125h119.445312c8.535156 0 15.453125-6.917969 15.453125-15.453125v-119.445312c0-8.535157-6.917969-15.453126-15.453125-15.453126zm0 0" fill="#ff6477"/><path d="m315.722656 0h-119.445312c-8.535156 0-15.453125 6.917969-15.453125 15.453125v119.445313c0 8.535156 6.917969 15.453124 15.453125 15.453124h119.445312c8.535156 0 15.453125-6.917968 15.453125-15.453124v-119.445313c0-8.535156-6.917969-15.453125-15.453125-15.453125zm0 0" fill="#ffcf5d"/><path d="m315.722656 0h-15.453125v88.542969c0 17.066406-13.835937 30.90625-30.902343 30.90625h-88.542969v15.449219c0 8.535156 6.917969 15.453124 15.453125 15.453124h119.445312c8.535156 0 15.453125-6.917968 15.453125-15.453124v-119.445313c0-8.535156-6.917969-15.453125-15.453125-15.453125zm0 0" fill="#ffb545"/></svg>