<svg id="Layer_1" height="512" viewBox="0 0 64 64" width="512" xmlns="http://www.w3.org/2000/svg" data-name="Layer 1"><path d="m61 2h-31l-7 7v50a1 1 0 0 0 1 1h37a1 1 0 0 0 1-1v-56a1 1 0 0 0 -1-1z" fill="#cce2ff"/><path d="m30 2v6a1 1 0 0 1 -1 1h-6z" fill="#b8cbe6"/><path d="m36 9h16v6h-16z" fill="#e65c62"/><path d="m36 28h16v6h-16z" fill="#2970cc"/><path d="m36 47h16v6h-16z" fill="#44a649"/><path d="m44 25 3-4h-2v-3h-2v3h-2z" fill="#596c80"/><path d="m45 37h-2v3h-2l3 4 3-4h-2z" fill="#596c80"/><rect fill="#e6962e" height="14" rx="1" width="14" x="18" y="48"/><path d="m27 53-2-2-2 2v-5h4z" fill="#ffe9cc"/><rect fill="#e6962e" height="14" rx="1" width="14" x="2" y="48"/><path d="m11 53-2-2-2 2v-5h4z" fill="#ffe9cc"/><rect fill="#e6962e" height="14" rx="1" width="14" x="5" y="32"/><path d="m14 37-2-2-2 2v-5h4z" fill="#ffe9cc"/></svg>