<svg id="Capa_1" enable-background="new 0 0 512 512" height="512" viewBox="0 0 512 512" width="512" xmlns="http://www.w3.org/2000/svg"><g><g><path d="m378.48 0h-258.932l-106.028 106.04v380.96c0 13.785 11.215 25 25 25h339.96c13.785 0 25-11.215 25-25v-462c0-13.785-11.215-25-25-25z" fill="#f3f9fb"/><path d="m119.548 0c-3.979 0-7.794 1.581-10.607 4.394l-91.028 91.04c-2.812 2.813-4.393 6.628-4.393 10.606h91.028c8.284 0 15-6.716 15-15z" fill="#dfecf7"/><path d="m378.48 0h-154.98v512h154.98c13.785 0 25-11.215 25-25v-462c0-13.785-11.215-25-25-25z" fill="#dfecf7"/><path d="m447.98 315.283h-88.999c-8.284 0-15 6.716-15 15v30.29c0 16.542 13.458 30 30 30h58.999c16.542 0 30-13.458 30-30v-30.29c0-8.284-6.716-15-15-15z" fill="#f3f9fb"/><path d="m447.98 315.283h-44.5v75.29h29.5c16.542 0 30-13.458 30-30v-30.29c0-8.284-6.716-15-15-15z" fill="#dfecf7"/><path d="m403.48 121.413c-52.383 0-95 42.59-95 94.94 0 28.956 13.133 56.06 35.501 74.017v39.912h118.999v-39.912c22.367-17.958 35.5-45.062 35.5-74.017 0-52.349-42.617-94.94-95-94.94z" fill="#ffdf40"/><path d="m462.98 330.283v-39.912c22.367-17.958 35.5-45.062 35.5-74.017 0-52.35-42.617-94.94-95-94.94v208.87h59.5z" fill="#ffbe40"/></g><g><path d="m207.629 196.029h-119.139c-8.284 0-15-6.716-15-15s6.716-15 15-15h119.14c8.284 0 15 6.716 15 15s-6.716 15-15.001 15z" fill="#345370"/></g><g><path d="m207.629 256.033h-119.139c-8.284 0-15-6.716-15-15s6.716-15 15-15h119.14c8.284 0 15 6.716 15 15s-6.716 15-15.001 15z" fill="#345370"/></g><g><path d="m174.627 316.037h-86.137c-8.284 0-15-6.716-15-15s6.716-15 15-15h86.138c8.284 0 15 6.716 15 15s-6.716 15-15.001 15z" fill="#345370"/></g><g><path d="m174.627 376.041h-86.137c-8.284 0-15-6.716-15-15s6.716-15 15-15h86.138c8.284 0 15 6.716 15 15s-6.716 15-15.001 15z" fill="#345370"/></g><g><path d="m174.627 436.044h-86.137c-8.284 0-15-6.716-15-15s6.716-15 15-15h86.138c8.284 0 15 6.716 15 15s-6.716 15-15.001 15z" fill="#345370"/></g><path d="m280.927 346.774c-8.41-2.973-18.737-6.915-23.936-10.983-.307-.384-.753-2.239-.033-4.545.422-1.354 1.52-3.742 4.13-4.528 7.521-2.266 12.529.629 14.334 1.979 6.634 4.959 16.033 3.604 20.996-3.029 4.961-6.634 3.604-16.035-3.029-20.996-1.987-1.486-6.437-4.436-12.773-6.505v-.755c0-8.284-6.716-15-15-15s-15 6.716-15 15v1.2c-12.024 4.349-20.91 14.93-23.386 28.068-2.419 12.836 1.868 25.351 11.188 32.661 8.617 6.758 20.718 11.548 32.511 15.717 5.155 1.822 7.343 5.284 6.501 10.288-.661 3.932-4.047 10.602-12.547 10.658-9.188.051-11.357-.277-18.033-4.644-6.932-4.536-16.229-2.593-20.765 4.34-4.535 6.933-2.592 16.229 4.341 20.765 7.599 4.972 13.617 7.442 20.189 8.605v.497c0 8.284 6.716 15 15 15s15-6.716 15-15v-2.58c13.581-5.381 23.853-17.515 26.399-32.668 3.259-19.378-7.224-36.878-26.087-43.545z" fill="#00cab0"/></g></svg>