<svg id="Layer_1" enable-background="new 0 0 512 512" height="512" viewBox="0 0 512 512" width="512" xmlns="http://www.w3.org/2000/svg"><g clip-rule="evenodd" fill-rule="evenodd"><g><path d="m317.618 88.447c0 11.914 9.658 21.571 21.571 21.571 11.914 0 21.571-9.657 21.571-21.571 0-11.911-9.657-21.568-21.571-21.568-11.913 0-21.571 9.657-21.571 21.568z" fill="#efc7a4"/><path d="m385.86 169.121c0 25.775-93.345 25.775-93.345 0s20.899-46.671 46.674-46.671c25.776 0 46.671 20.895 46.671 46.671z" fill="#c6ea94"/></g><g><path d="m151.242 88.447c0 11.914 9.658 21.571 21.571 21.571 11.914 0 21.571-9.657 21.571-21.571 0-11.911-9.657-21.568-21.571-21.568-11.913 0-21.571 9.657-21.571 21.568z" fill="#efc7a4"/><path d="m219.485 169.121c0 25.775-93.345 25.775-93.345 0s20.899-46.671 46.674-46.671 46.671 20.895 46.671 46.671z" fill="#66d4f1"/></g><g><path d="m221.909 50.088c0 18.83 15.264 34.094 34.094 34.094s34.093-15.264 34.093-34.094c0-18.825-15.263-34.088-34.093-34.088s-34.094 15.264-34.094 34.088z" fill="#efc7a4"/><path d="m329.766 177.593c0 40.738-147.532 40.738-147.532 0s33.03-73.764 73.769-73.764c40.738.001 73.763 33.026 73.763 73.764z" fill="#a4d4ff"/></g><g><path d="m480.891 194.066c3.851-.06 7.022 3.012 7.082 6.863s-3.012 7.022-6.863 7.082l-29.279.488.145 63.046c0 3.851-3.122 6.973-6.973 6.973s-6.973-3.122-6.973-6.973l-.161-69.794c-.06-3.851 3.012-7.022 6.863-7.082zm-450 13.945c-3.851-.06-6.924-3.231-6.863-7.082.06-3.851 3.231-6.924 7.082-6.863l36.159.602c3.851.06 6.924 3.231 6.863 7.082l-.161 69.794c0 3.851-3.122 6.973-6.973 6.973s-6.973-3.122-6.973-6.973l.145-63.046zm29.289-45.664h34.951l-.387 133.118c0 3.851 3.122 6.973 6.973 6.973s6.973-3.122 6.973-6.973l.405-139.479c.019-.211.03-.424.03-.639 0-3.866-3.134-7-7-7h-41.945c-3.866 0-7 3.134-7 7s3.134 7 7 7zm391.64-14h-41.944c-3.866 0-7 3.134-7 7 0 .215.01.429.029.639l.405 139.479c0 3.851 3.122 6.973 6.973 6.973s6.973-3.122 6.973-6.973l-.387-133.118h34.951c3.866 0 7-3.134 7-7s-3.134-7-7-7z" fill="#cad0d7"/><path d="m481 216.038c-8.284 0-15-6.715-15-15 0-8.284 6.715-15 15-15 8.284 0 15 6.716 15 15 0 8.285-6.716 15-15 15z" fill="#b3a4ee"/><path d="m451.82 170.347c-8.284 0-15-6.716-15-15s6.716-15 15-15 15 6.716 15 15-6.716 15-15 15z" fill="#b3a4ee"/><g><path d="m480.236 295.764c-47.263 0-70.976 57.258-37.559 90.675 6.156 6.156 6.156 16.141 0 22.297l-33.941 33.941c-6.156 6.156-16.141 6.156-22.297 0-33.418-33.418-90.676-9.704-90.676 37.559 0 8.71-7.06 15.765-15.765 15.765h-47.998c-8.705 0-15.765-7.055-15.765-15.765 0-47.321-57.215-71.018-90.676-37.559-6.156 6.156-16.14 6.156-22.296 0l-33.941-33.941c-6.156-6.156-6.156-16.14 0-22.297 33.418-33.418 9.704-90.675-37.558-90.675-8.71 0-15.765-7.06-15.765-15.765v-19.999c0-2.203 1.797-4 4-4h67.448 47.336c2.158 0 3.926 1.714 3.995 3.871 2.042 62.982 53.742 113.413 117.221 113.413 63.478 0 115.179-50.431 117.221-113.413.07-2.155 1.839-3.871 3.996-3.871h47.335 67.449c2.203 0 4 1.797 4 4v19.999c0 8.705-7.055 15.765-15.764 15.765z" fill="#fdcd56"/><path d="m340.173 260.196c-2.186 44.595-39.036 80.08-84.173 80.08s-81.987-35.485-84.173-80.08c-.056-1.135.316-2.131 1.099-2.954.784-.823 1.761-1.242 2.897-1.242h160.355c1.136 0 2.114.419 2.897 1.242s1.154 1.82 1.098 2.954z" fill="#f5b945"/></g><g fill="#b3a4ee"><path d="m31 216.038c8.284 0 15-6.715 15-15 0-8.284-6.716-15-15-15s-15 6.716-15 15c0 8.285 6.716 15 15 15z"/><path d="m60.18 170.347c8.284 0 15-6.716 15-15s-6.715-15-15-15c-8.284 0-15 6.716-15 15s6.716 15 15 15z"/></g></g></g></svg>