<svg id="Layer_1" enable-background="new 0 0 256 256" height="512" viewBox="0 0 256 256" width="512" xmlns="http://www.w3.org/2000/svg"><g><g><g><g><g><g><g><path d="m212.508 245.741h-152.869c-5.523 0-10-4.477-10-10v-215.482c0-5.523 4.477-10 10-10h152.869c5.523 0 10 4.477 10 10v215.482c0 5.523-4.477 10-10 10z" fill="#f1f2f2"/></g></g><g><g><path d="m128 18.259h-.333c-1.104 0-2-.896-2-2s.896-2 2-2h.333c1.104 0 2 .896 2 2s-.896 2-2 2zm-8.333 0h-50c-1.105 0-2-.896-2-2s.895-2 2-2h50c1.104 0 2 .896 2 2s-.896 2-2 2z" fill="#fff"/></g></g><g><path d="m212.508 10.259v215.482c0 5.523-4.477 10-10 10h-152.869c0 5.523 4.477 10 10 10h152.869c5.523 0 10-4.477 10-10v-215.482c0-5.523-4.477-10-10-10z" fill="#e6e7e8"/></g><g><path d="m216.618 11.149c.567 1.255.891 2.643.891 4.109v215.482c0 5.523-4.477 10-10 10h-152.87c-1.466 0-2.855-.323-4.11-.891 1.569 3.471 5.053 5.891 9.11 5.891h152.869c5.523 0 10-4.477 10-10v-215.481c0-4.056-2.42-7.541-5.89-9.11z" fill="#d1d3d4"/></g><g><g><path d="m58.25 44.541h-17.223c-4.162 0-7.535-3.374-7.535-7.535 0-4.161 3.374-7.535 7.535-7.535h17.223c4.161 0 7.535 3.374 7.535 7.535 0 4.162-3.373 7.535-7.535 7.535z" fill="#939598"/></g><g><path d="m60.456 29.801c.213.698.33 1.438.33 2.205 0 4.162-3.374 7.535-7.535 7.535h-17.224c-.768 0-1.508-.116-2.205-.33.943 3.085 3.811 5.33 7.205 5.33h17.223c4.161 0 7.535-3.374 7.535-7.535 0-3.394-2.244-6.262-5.329-7.205z" fill="#808285"/></g><g><path d="m58.25 75.121h-17.223c-4.162 0-7.535-3.374-7.535-7.535 0-4.162 3.374-7.535 7.535-7.535h17.223c4.161 0 7.535 3.374 7.535 7.535 0 4.162-3.373 7.535-7.535 7.535z" fill="#939598"/></g><g><path d="m58.25 75.121h-17.223c-4.162 0-7.535-3.374-7.535-7.535 0-4.162 3.374-7.535 7.535-7.535h17.223c4.161 0 7.535 3.374 7.535 7.535 0 4.162-3.373 7.535-7.535 7.535z" fill="#939598"/></g><g><path d="m60.456 60.381c.213.698.33 1.438.33 2.205 0 4.162-3.374 7.535-7.535 7.535h-17.224c-.768 0-1.508-.116-2.205-.33.943 3.085 3.811 5.33 7.205 5.33h17.223c4.161 0 7.535-3.374 7.535-7.535 0-3.394-2.244-6.262-5.329-7.205z" fill="#808285"/></g><g><path d="m58.25 105.702h-17.223c-4.162 0-7.535-3.374-7.535-7.535 0-4.161 3.374-7.535 7.535-7.535h17.223c4.162 0 7.535 3.374 7.535 7.535 0 4.161-3.373 7.535-7.535 7.535z" fill="#939598"/></g><g><path d="m60.456 90.961c.213.698.33 1.438.33 2.205 0 4.162-3.374 7.535-7.535 7.535h-17.224c-.768 0-1.508-.116-2.205-.33.943 3.085 3.811 5.33 7.205 5.33h17.223c4.161 0 7.535-3.374 7.535-7.535 0-3.393-2.244-6.261-5.329-7.205z" fill="#808285"/></g><g><path d="m58.25 136.282h-17.223c-4.161 0-7.535-3.374-7.535-7.535 0-4.162 3.374-7.535 7.535-7.535h17.223c4.161 0 7.535 3.374 7.535 7.535 0 4.161-3.373 7.535-7.535 7.535z" fill="#939598"/></g><g><path d="m60.456 121.541c.213.698.33 1.438.33 2.205 0 4.162-3.374 7.535-7.535 7.535h-17.224c-.768 0-1.508-.116-2.205-.33.943 3.085 3.811 5.33 7.205 5.33h17.223c4.161 0 7.535-3.374 7.535-7.535 0-3.393-2.244-6.261-5.329-7.205z" fill="#808285"/></g><g><path d="m58.25 166.862h-17.223c-4.162 0-7.535-3.374-7.535-7.535 0-4.161 3.374-7.535 7.535-7.535h17.223c4.162 0 7.535 3.374 7.535 7.535 0 4.162-3.373 7.535-7.535 7.535z" fill="#939598"/></g><g><path d="m60.456 152.122c.213.698.33 1.438.33 2.205 0 4.162-3.374 7.535-7.535 7.535h-17.224c-.768 0-1.508-.116-2.205-.33.943 3.085 3.811 5.33 7.205 5.33h17.223c4.161 0 7.535-3.374 7.535-7.535 0-3.394-2.244-6.262-5.329-7.205z" fill="#808285"/></g><g><path d="m58.25 197.442h-17.223c-4.161 0-7.535-3.374-7.535-7.535 0-4.161 3.374-7.535 7.535-7.535h17.223c4.162 0 7.535 3.374 7.535 7.535 0 4.162-3.373 7.535-7.535 7.535z" fill="#939598"/></g><g><path d="m60.456 182.702c.213.698.33 1.438.33 2.205 0 4.162-3.374 7.535-7.535 7.535h-17.224c-.768 0-1.508-.116-2.205-.33.943 3.085 3.811 5.33 7.205 5.33h17.223c4.161 0 7.535-3.374 7.535-7.535 0-3.394-2.244-6.262-5.329-7.205z" fill="#808285"/></g><g><path d="m58.25 226.529h-17.223c-4.162 0-7.535-3.374-7.535-7.535 0-4.161 3.374-7.535 7.535-7.535h17.223c4.162 0 7.535 3.374 7.535 7.535 0 4.162-3.373 7.535-7.535 7.535z" fill="#939598"/></g><g><path d="m60.456 211.789c.213.698.33 1.438.33 2.205 0 4.162-3.374 7.535-7.535 7.535h-17.224c-.768 0-1.508-.116-2.205-.33.943 3.085 3.811 5.33 7.205 5.33h17.223c4.161 0 7.535-3.374 7.535-7.535 0-3.394-2.244-6.262-5.329-7.205z" fill="#808285"/></g></g></g></g></g></g><g><g><path d="m75.594 124.583h121.59v31.25h-121.59z" fill="#b171f4"/></g><path d="m197.185 122.583h-121.59c-1.104 0-2 .896-2 2v95c0 1.104.896 2 2 2h121.59c1.104 0 2-.896 2-2v-95c0-1.104-.896-2-2-2zm-62.795 52.5h-56.795v-17.25h56.795zm4-17.25h56.795v17.25h-56.795zm-60.795 21.25h56.795v17.25h-56.795zm60.795 0h56.795v17.25h-56.795zm56.795-25.25h-56.795v-27.25h56.795zm-60.795-27.25v27.25h-56.795v-27.25zm-56.795 73.75h56.795v17.25h-56.795zm60.795 17.25v-17.25h56.795v17.25z" fill="#414042"/></g><g><g><circle cx="136.389" cy="71.75" fill="#ef7816" r="40"/></g><g><circle cx="136.389" cy="71.75" fill="#ffc91d" r="29.879"/></g><g><path d="m154.863 48.276c4.007 5.085 6.405 11.497 6.405 18.474 0 16.501-13.377 29.879-29.879 29.879-6.976 0-13.389-2.398-18.474-6.405 5.471 6.942 13.949 11.405 23.474 11.405 16.502 0 29.879-13.377 29.879-29.879 0-9.525-4.463-18.003-11.405-23.474z" fill="#ffa91a"/></g><path d="m139.405 68.242h-1.016v-11.082h1.016c3.056 0 5.541 2.485 5.541 5.541 0 1.104.896 2 2 2s2-.896 2-2c0-5.261-4.28-9.541-9.541-9.541h-1.016v-1.017c0-1.104-.896-2-2-2s-2 .896-2 2v1.017h-1.017c-5.261 0-9.541 4.28-9.541 9.541s4.28 9.541 9.541 9.541h1.017v14.098h-1.017c-3.056 0-5.541-2.485-5.541-5.541 0-1.104-.896-2-2-2s-2 .896-2 2c0 5.261 4.28 9.541 9.541 9.541h1.017v1.017c0 1.104.896 2 2 2s2-.896 2-2v-1.017h1.016c5.261 0 9.541-4.28 9.541-9.541v-3.017c0-5.261-4.28-9.54-9.541-9.54zm-6.032 0c-3.056 0-5.541-2.485-5.541-5.541s2.485-5.541 5.541-5.541h1.017v11.082zm11.573 12.557c0 3.056-2.485 5.541-5.541 5.541h-1.016v-14.098h1.016c3.056 0 5.541 2.485 5.541 5.54z" fill="#995222"/></g></g></svg>