<svg id="Layer_1" height="512" viewBox="0 0 64 64" width="512" xmlns="http://www.w3.org/2000/svg" data-name="Layer 1"><ellipse cx="56" cy="58" fill="#7cb2f8" rx="7" ry="5"/><path d="m50.657 48.849 5.343 10.151 5.343-10.151a6.038 6.038 0 0 0 -5.343-8.849 6.038 6.038 0 0 0 -5.343 8.849z" fill="#d9575d"/><circle cx="9" cy="43.5" fill="#e69e45" r="4.5"/><path d="m1 63v-10a5 5 0 0 1 5-5h6a5 5 0 0 1 5 5v10z" fill="#3374cc"/><path d="m22 1h20v19h-20z" fill="#d98041"/><path d="m29.5 1h5v7h-5z" fill="#f4d0b7"/><circle cx="56" cy="46" fill="#f2f2f2" r="2.5"/><path d="m39.6 37.884-.465-.257a.742.742 0 0 1 -.4-.748 6.164 6.164 0 0 0 0-1.758.742.742 0 0 1 .4-.748l.465-.257a.75.75 0 0 0 .294-1.049l-1.294-2.134a.825.825 0 0 0 -1.1-.281l-.471.26a.852.852 0 0 1 -.915-.075 6.884 6.884 0 0 0 -1.5-.835.788.788 0 0 1 -.524-.719v-.515a.786.786 0 0 0 -.8-.768h-2.579a.786.786 0 0 0 -.8.768v.515a.788.788 0 0 1 -.524.719 6.884 6.884 0 0 0 -1.5.835.852.852 0 0 1 -.915.075l-.471-.26a.825.825 0 0 0 -1.1.281l-1.288 2.134a.75.75 0 0 0 .294 1.049l.465.257a.742.742 0 0 1 .4.748 6.164 6.164 0 0 0 0 1.758.742.742 0 0 1 -.4.748l-.465.257a.75.75 0 0 0 -.294 1.049l1.287 2.134a.825.825 0 0 0 1.1.281l.471-.26a.852.852 0 0 1 .915.075 6.884 6.884 0 0 0 1.5.835.788.788 0 0 1 .524.719v.515a.786.786 0 0 0 .8.768h2.578a.786.786 0 0 0 .8-.768v-.515a.788.788 0 0 1 .528-.717 6.884 6.884 0 0 0 1.5-.835.852.852 0 0 1 .915-.075l.471.26a.825.825 0 0 0 1.1-.281l1.288-2.134a.75.75 0 0 0 -.29-1.051zm-7.6.973a2.857 2.857 0 1 1 2.857-2.857 2.857 2.857 0 0 1 -2.857 2.857z" fill="#506173"/><g fill="#7a8899"><path d="m32 56a23.169 23.169 0 0 1 -4.386-.431l.979-3.079-7.424 2.321 4.721 6.181 1.11-3.504a25.176 25.176 0 0 0 5 .512 24.832 24.832 0 0 0 14.584-4.692l-1.168-1.624a22.844 22.844 0 0 1 -13.416 4.316z"/><path d="m12.506 17.359a24.788 24.788 0 0 0 -5.506 15.641 23.9 23.9 0 0 0 .2 3.131l1.982-.262a22 22 0 0 1 -.182-2.869 22.791 22.791 0 0 1 4.938-14.209l2.327 2.327 1.352-7.66-7.66 1.352z"/><path d="m56.743 29.466a24.883 24.883 0 0 0 -9.117-15.986l-1.251 1.561a22.89 22.89 0 0 1 8.362 14.518l-3.318.152 4.749 6.16 4.163-6.57z"/></g></svg>