<svg id="Layer_1" enable-background="new 0 0 66 66" viewBox="0 0 66 66" xmlns="http://www.w3.org/2000/svg"><g><g><g><g><g><path d="m26.69 31.74-2.21-.34c-.25-1.08-.68-2.09-1.25-3.01 0 0 .79-1.08 1.32-1.81.27-.37.23-.88-.09-1.2l-1.51-1.51c-.32-.32-.83-.36-1.2-.09l-1.81 1.32c-.92-.57-1.93-.99-3.01-1.25 0 0-.21-1.33-.34-2.21-.07-.45-.46-.78-.91-.78h-2.13c-.46 0-.84.33-.91.78l-.34 2.21c-1.08.25-2.09.68-3.01 1.25 0 0-1.08-.79-1.81-1.32-.37-.27-.88-.23-1.2.09l-1.51 1.51c-.32.32-.36.83-.09 1.2l1.32 1.81c-.58.91-1 1.92-1.26 3.01l-2.21.34c-.45.07-.78.46-.78.91v2.13c0 .46.33.84.78.91l2.21.34c.25 1.08.68 2.09 1.25 3.01 0 0-.79 1.08-1.32 1.81-.27.37-.23.88.09 1.2l1.51 1.51c.32.32.83.36 1.2.09l1.81-1.32c.92.57 1.93.99 3.01 1.25 0 0 .21 1.33.34 2.21.07.45.46.78.91.78h2.13c.46 0 .84-.33.91-.78l.34-2.21c1.08-.25 2.09-.68 3.01-1.25 0 0 1.08.79 1.81 1.32.37.27.88.23 1.2-.09l1.51-1.51c.32-.32.36-.83.09-1.2l-1.32-1.81c.57-.92.99-1.93 1.25-3.01l2.21-.34c.45-.07.78-.46.78-.91v-2.13c.01-.45-.32-.84-.77-.91z" fill="#8c9ffa"/></g></g></g></g><g><g><g><g><path d="m15.68 47.06h-2.13c-.7 0-1.29-.5-1.39-1.19l-.29-1.9c-.9-.24-1.75-.59-2.55-1.06l-1.55 1.13c-.57.41-1.33.35-1.83-.14l-1.52-1.5c-.5-.49-.56-1.26-.14-1.83l1.13-1.55c-.46-.8-.82-1.66-1.06-2.55l-1.89-.29c-.69-.11-1.19-.69-1.19-1.39v-2.13c0-.7.5-1.29 1.19-1.39l1.89-.29c.24-.9.59-1.75 1.06-2.55l-1.13-1.55c-.41-.57-.35-1.33.14-1.83l1.51-1.51c.5-.49 1.26-.55 1.83-.14l1.55 1.13c.8-.46 1.66-.82 2.55-1.06l.29-1.89c.11-.69.69-1.19 1.39-1.19h2.13c.7 0 1.29.5 1.39 1.19l.29 1.9c.9.24 1.75.59 2.55 1.06l1.55-1.13c.56-.41 1.33-.35 1.83.14l1.51 1.51c.49.5.55 1.26.14 1.83l-1.13 1.55c.46.8.82 1.66 1.06 2.55l1.89.29c.69.11 1.19.69 1.19 1.39v2.13c0 .7-.5 1.29-1.19 1.39l-1.89.29c-.24.9-.59 1.75-1.06 2.55l1.13 1.55c.41.57.35 1.33-.14 1.83l-1.51 1.51c-.49.5-1.26.55-1.83.14l-1.55-1.13c-.8.46-1.66.82-2.55 1.06l-.29 1.89c-.1.68-.68 1.18-1.38 1.18zm-6.4-5.21c.09 0 .18.02.26.07.89.55 1.85.95 2.87 1.19.19.04.34.2.37.4l.34 2.21c.03.22.22.37.43.37h2.13c.22 0 .4-.16.44-.37l.34-2.21c.03-.19.18-.35.37-.4 1.02-.24 1.98-.64 2.87-1.19.17-.1.38-.1.54.02l1.81 1.32c.17.13.41.11.57-.05l1.51-1.51c.15-.15.17-.39.04-.57l-1.32-1.8c-.12-.16-.12-.37-.02-.54.55-.89.95-1.85 1.19-2.87.04-.19.2-.34.4-.37l2.21-.34c.22-.03.37-.22.37-.43v-2.13c0-.22-.16-.4-.37-.44l-2.21-.34c-.19-.03-.35-.18-.4-.37-.24-1.02-.64-1.98-1.19-2.87-.1-.17-.1-.38.02-.54l1.32-1.81c.13-.18.11-.42-.05-.57l-1.51-1.51c-.15-.15-.4-.17-.57-.04l-1.8 1.32c-.16.12-.37.12-.54.02-.89-.55-1.85-.95-2.87-1.19-.19-.04-.34-.2-.37-.4l-.34-2.21c-.03-.21-.22-.37-.43-.37h-2.13c-.22 0-.4.16-.43.37l-.34 2.21c-.03.19-.18.35-.37.4-1.02.24-1.98.64-2.87 1.19-.17.1-.38.1-.54-.02l-1.81-1.32c-.18-.13-.42-.11-.57.04l-1.51 1.51c-.15.15-.17.4-.04.57l1.32 1.8c.12.16.12.37.02.54-.55.89-.95 1.85-1.19 2.87-.04.19-.2.34-.4.37l-2.21.34c-.22.03-.37.22-.37.44v2.13c0 .22.16.4.37.43l2.21.34c.19.03.35.18.4.37.24 1.02.64 1.98 1.19 2.87.1.17.1.38-.02.54l-1.32 1.81c-.13.18-.11.42.05.57l1.51 1.51c.15.15.39.17.57.04l1.8-1.32c.07-.04.17-.08.27-.08z"/></g></g></g></g><g><g><g><g><path d="m14.61 38.95c-2.88 0-5.23-2.35-5.23-5.23s2.35-5.23 5.23-5.23 5.23 2.35 5.23 5.23-2.34 5.23-5.23 5.23z" fill="#fff"/></g></g></g><g><g><g><path d="m14.61 39.43c-3.15 0-5.71-2.56-5.71-5.71s2.56-5.72 5.71-5.72 5.71 2.56 5.71 5.71-2.56 5.72-5.71 5.72zm0-10.46c-2.62 0-4.75 2.13-4.75 4.74 0 2.62 2.13 4.75 4.75 4.75s4.74-2.13 4.74-4.75c.01-2.61-2.12-4.74-4.74-4.74z"/></g></g></g></g><path d="m52.23 11.43h-31.82c-2.62 0-4.75 2.13-4.75 4.75v40.74c0 2.62 2.13 4.75 4.75 4.75h31.82c2.62 0 4.75-2.13 4.75-4.75v-40.74c0-2.62-2.13-4.75-4.75-4.75z" fill="#656d78"/><g><g><g><g><path d="m56.98 56.34v1.45c0 2.14-1.74 3.88-3.88 3.88h-33.56c-2.14 0-3.88-1.74-3.88-3.88v-1.45c0 2.14 1.73 3.88 3.88 3.88h33.57c2.13 0 3.87-1.74 3.87-3.88z" fill="#545c66"/></g></g></g></g><g><g><g><g><path d="m53.1 62.16h-33.56c-2.41 0-4.36-1.96-4.36-4.36v-42.49c0-2.41 1.96-4.36 4.36-4.36h33.56c2.41 0 4.36 1.96 4.36 4.36v42.49c.01 2.4-1.95 4.36-4.36 4.36zm-33.56-50.24c-1.87 0-3.39 1.52-3.39 3.39v42.49c0 1.87 1.52 3.39 3.39 3.39h33.56c1.87 0 3.39-1.52 3.39-3.39v-42.49c0-1.87-1.52-3.39-3.39-3.39z" fill="#000102"/></g></g></g></g><g><g><g><g><path d="m19.3 53.92v-34.74c0-2.27 1.84-4.11 4.11-4.11h25.83c2.27 0 4.11 1.84 4.11 4.11v34.75c0 2.27-1.84 4.11-4.11 4.11h-25.83c-2.27-.01-4.11-1.85-4.11-4.12z" fill="#f4f6f8"/></g></g></g></g><g><g><g><g><path d="m53.34 52.7v1.45c0 2.14-1.73 3.88-3.88 3.88h-26.28c-2.14 0-3.88-1.73-3.88-3.88v-1.45c0 2.14 1.73 3.88 3.88 3.88h26.29c2.14 0 3.87-1.73 3.87-3.88z" fill="#d7dadf"/></g></g></g></g><g><g><g><g><path d="m49.47 58.52h-26.29c-2.41 0-4.36-1.96-4.36-4.36v-35.21c0-2.41 1.96-4.36 4.36-4.36h26.29c2.41 0 4.36 1.96 4.36 4.36v35.21c0 2.4-1.96 4.36-4.36 4.36zm-26.29-42.97c-1.87 0-3.39 1.52-3.39 3.39v35.21c0 1.87 1.52 3.39 3.39 3.39h26.29c1.87 0 3.39-1.52 3.39-3.39v-35.2c0-1.87-1.52-3.39-3.39-3.39h-26.29z" fill="#000102"/></g></g></g></g><g><g><g><g><g><path d="m46.77 10.57v5.35c0 .77-.62 1.39-1.39 1.39h-18.12c-.77 0-1.39-.62-1.39-1.39v-5.35c0-.77.62-1.39 1.39-1.39h2.96c.66 0 1.2-.46 1.36-1.1.51-2.15 2.44-3.75 4.75-3.75s4.24 1.6 4.75 3.75c.15.64.7 1.1 1.36 1.1h2.96c.75 0 1.37.62 1.37 1.39z" fill="#d7dadf"/></g></g></g></g></g><g><g><g><g><g><path d="m46.77 14.46v1.45c0 .77-.62 1.39-1.39 1.39h-18.12c-.77 0-1.39-.62-1.39-1.39v-1.45c0 .77.63 1.39 1.39 1.39h18.12c.77 0 1.39-.62 1.39-1.39z" fill="#b9bec6"/></g></g></g></g></g><g><g><g><g><g><path d="m45.38 17.79h-18.12c-1.03 0-1.87-.84-1.87-1.87v-5.35c0-1.03.84-1.87 1.87-1.87h2.96c.42 0 .78-.3.88-.73.58-2.43 2.73-4.12 5.22-4.12s4.64 1.69 5.22 4.12c.1.43.47.73.88.73h2.96c1.03 0 1.87.84 1.87 1.87v5.35c.01 1.03-.83 1.87-1.87 1.87zm-18.12-8.13c-.5 0-.9.4-.9.9v5.35c0 .5.4.9.9.9h18.13c.5 0 .9-.4.9-.9v-5.35c0-.5-.41-.9-.9-.9h-2.96c-.87 0-1.62-.61-1.83-1.47-.47-1.99-2.23-3.38-4.28-3.38s-3.81 1.39-4.28 3.38c-.21.87-.96 1.47-1.83 1.47z" fill="#000102"/></g></g></g></g></g><g><g><g><g><circle cx="36.32" cy="8.86" fill="#fff" r="2.28"/></g></g></g><g><g><g><path d="m36.32 11.63c-1.53 0-2.77-1.24-2.77-2.77s1.24-2.77 2.77-2.77 2.77 1.24 2.77 2.77-1.24 2.77-2.77 2.77zm0-4.56c-.99 0-1.8.81-1.8 1.8s.81 1.8 1.8 1.8 1.8-.81 1.8-1.8-.81-1.8-1.8-1.8z" fill="#000102"/></g></g></g></g><g><g><g><g><g><path d="m27.88 29.8h-3.09c-.98 0-1.78-.8-1.78-1.78v-3.09c0-.98.8-1.78 1.78-1.78h3.09c.98 0 1.78.8 1.78 1.78v3.09c0 .98-.8 1.78-1.78 1.78z" fill="#8c9ffa"/></g></g></g><g><g><g><path d="m28.69 30.28h-4.71c-.8 0-1.45-.65-1.45-1.45v-4.71c0-.8.65-1.45 1.45-1.45h4.71c.8 0 1.45.65 1.45 1.45v4.71c0 .8-.65 1.45-1.45 1.45zm-4.71-6.65c-.27 0-.48.22-.48.48v4.71c0 .27.22.48.48.48h4.71c.27 0 .48-.22.48-.48v-4.71c0-.27-.22-.48-.48-.48z" fill="#000102"/></g></g></g></g><g><g><g><g><path d="m27.88 40.86h-3.09c-.98 0-1.78-.8-1.78-1.78v-3.09c0-.98.8-1.78 1.78-1.78h3.09c.98 0 1.78.8 1.78 1.78v3.09c0 .98-.8 1.78-1.78 1.78z" fill="#fdcd56"/></g></g></g><g><g><g><path d="m28.69 41.35h-4.71c-.8 0-1.45-.65-1.45-1.45v-4.71c0-.8.65-1.45 1.45-1.45h4.71c.8 0 1.45.65 1.45 1.45v4.71c0 .79-.65 1.45-1.45 1.45zm-4.71-6.66c-.27 0-.48.22-.48.48v4.71c0 .27.22.48.48.48h4.71c.27 0 .48-.22.48-.48v-4.71c0-.27-.22-.48-.48-.48z" fill="#000102"/></g></g></g></g><g><g><g><g><path d="m27.81 51.93h-3.09c-.98 0-1.78-.8-1.78-1.78v-3.09c0-.98.8-1.78 1.78-1.78h3.09c.98 0 1.78.8 1.78 1.78v3.09c0 .98-.8 1.78-1.78 1.78z" fill="#f76c82"/></g></g></g><g><g><g><path d="m28.62 52.41h-4.71c-.8 0-1.45-.65-1.45-1.45v-4.71c0-.8.65-1.45 1.45-1.45h4.71c.8 0 1.45.65 1.45 1.45v4.71c.01.8-.65 1.45-1.45 1.45zm-4.71-6.65c-.27 0-.48.22-.48.48v4.71c0 .27.22.48.48.48h4.71c.27 0 .48-.22.48-.48v-4.71c0-.27-.22-.48-.48-.48z" fill="#000102"/></g></g></g></g><g><g><g><g><g><path d="m48.36 25.42h-15.49c-.27 0-.48-.22-.48-.48 0-.27.22-.48.48-.48h15.48c.27 0 .48.22.48.48.01.27-.21.48-.47.48z" fill="#000102"/></g></g></g></g><g><g><g><g><path d="m45.1 28.49h-12.23c-.27 0-.48-.22-.48-.48 0-.27.22-.48.48-.48h12.23c.27 0 .48.22.48.48.01.26-.21.48-.48.48z" fill="#000102"/></g></g></g></g></g><g><g><g><g><g><path d="m43.44 36.49h-10.57c-.27 0-.48-.22-.48-.48s.22-.48.48-.48h10.57c.27 0 .48.22.48.48s-.21.48-.48.48z" fill="#000102"/></g></g></g></g><g><g><g><g><path d="m38.99 39.55h-6.11c-.27 0-.48-.22-.48-.48 0-.27.22-.48.48-.48h6.11c.27 0 .48.22.48.48 0 .27-.21.48-.48.48z" fill="#000102"/></g></g></g></g></g><g><g><g><g><g><path d="m43.44 47.55h-10.57c-.27 0-.48-.22-.48-.48 0-.27.22-.48.48-.48h10.57c.27 0 .48.22.48.48 0 .27-.21.48-.48.48z" fill="#000102"/></g></g></g></g><g><g><g><g><path d="m38.84 50.62h-5.97c-.27 0-.48-.22-.48-.48s.22-.48.48-.48h5.97c.27 0 .48.22.48.48s-.21.48-.48.48z" fill="#000102"/></g></g></g></g></g><g><g><g><g><path d="m25.85 27.84c-.12 0-.25-.05-.34-.14l-.8-.8c-.19-.19-.19-.5 0-.69s.5-.19.69 0l.46.46 1.42-1.42c.19-.19.5-.19.69 0s.19.5 0 .69l-1.76 1.76c-.11.09-.23.14-.36.14z" fill="#000102"/></g></g></g></g><g><g><g><g><path d="m25.85 38.9c-.12 0-.25-.05-.34-.14l-.8-.8c-.19-.19-.19-.5 0-.69s.5-.19.69 0l.46.46 1.42-1.42c.19-.19.5-.19.69 0s.19.5 0 .69l-1.76 1.76c-.11.09-.23.14-.36.14z" fill="#000102"/></g></g></g></g><g><g><g><g><path d="m25.85 49.96c-.13 0-.25-.05-.34-.14l-.8-.8c-.19-.19-.19-.5 0-.69s.5-.19.69 0l.46.46 1.42-1.42c.19-.19.5-.19.69 0s.19.5 0 .69l-1.76 1.76c-.1.09-.23.14-.36.14z" fill="#000102"/></g></g></g></g></g><g><path d="m60.71 44.96h-11.01c-1.72 0-3.12 1.4-3.12 3.12v10.48c0 1.72 1.4 3.12 3.12 3.12h11.01c1.72 0 3.12-1.4 3.12-3.12v-10.48c-.01-1.73-1.4-3.12-3.12-3.12z" fill="#fdcd56"/><g><g><g><g><g><path d="m63.83 57.8v1.45c0 1.34-1.09 2.42-2.42 2.42h-12.41c-1.34 0-2.42-1.09-2.42-2.42v-1.45c0 1.34 1.09 2.42 2.42 2.42h12.4c1.34 0 2.43-1.09 2.43-2.42z" fill="#e3b84d"/></g></g></g></g></g><g><g><g><g><g><path d="m61.4 62.16h-12.4c-1.6 0-2.91-1.3-2.91-2.91v-11.87c0-1.6 1.3-2.91 2.91-2.91h12.4c1.6 0 2.91 1.3 2.91 2.91v11.87c0 1.6-1.31 2.91-2.91 2.91zm-12.4-16.72c-1.07 0-1.94.87-1.94 1.94v11.87c0 1.07.87 1.94 1.94 1.94h12.4c1.07 0 1.94-.87 1.94-1.94v-11.87c0-1.07-.87-1.94-1.94-1.94z" fill="#000102"/></g></g></g></g></g><g><g><g><g><path d="m57.44 49.58-2.24-1.65-2.23 1.65v-4.62h4.47z" fill="#f76c82"/></g></g></g><g><g><g><path d="m57.44 50.06c-.1 0-.2-.03-.29-.09l-1.95-1.44-1.95 1.44c-.15.11-.34.13-.51.04-.16-.08-.27-.25-.27-.43v-4.62c0-.27.22-.48.48-.48h4.47c.27 0 .48.22.48.48v4.62c0 .18-.1.35-.27.43-.04.03-.12.05-.19.05zm-2.24-2.62c.1 0 .2.03.29.09l1.46 1.08v-3.17h-3.5v3.17l1.46-1.08c.09-.05.19-.09.29-.09z" fill="#000102"/></g></g></g></g><g><g><g><g><path d="m54.3 56.85h-4.42c-.27 0-.48-.22-.48-.48 0-.27.22-.48.48-.48h4.42c.27 0 .48.22.48.48s-.21.48-.48.48z" fill="#000102"/></g></g></g></g><g><g><g><g><path d="m54.3 59.52h-4.42c-.27 0-.48-.22-.48-.48 0-.27.22-.48.48-.48h4.42c.27 0 .48.22.48.48s-.21.48-.48.48z" fill="#000102"/></g></g></g></g></g><g><g><g><g><path d="m63.82 15.22-3.92-2.27c-.41-.24-.94-.1-1.17.31l-2.07 3.56 5.41 3.14 2.07-3.56c.23-.41.09-.94-.32-1.18z" fill="#fdcd56"/></g></g></g><g><g><g><path d="m62.07 20.45c-.08 0-.17-.02-.24-.07l-5.41-3.14c-.11-.06-.19-.17-.23-.29-.03-.12-.02-.26.05-.37l2.07-3.56c.18-.31.47-.53.82-.62s.71-.04 1.02.14l3.92 2.27c.31.18.53.47.62.82s.04.71-.14 1.02l-2.07 3.56c-.06.11-.17.19-.29.23-.04 0-.08.01-.12.01zm-4.75-3.8 4.57 2.65 1.82-3.15c.1-.18.04-.41-.14-.51l-3.92-2.27c-.09-.05-.19-.06-.28-.04-.1.03-.18.09-.23.17z" fill="#000102"/></g></g></g></g><g><g><g><g><path d="m42.55 24.95h22.39v6.25h-22.39z" fill="#f76c82" transform="matrix(.502 -.865 .865 .502 2.489 60.477)"/></g></g></g><g><g><g><path d="m50.83 39.81c-.08 0-.17-.02-.24-.07l-5.41-3.14c-.23-.13-.31-.43-.18-.66l11.23-19.37c.06-.11.17-.19.29-.23.12-.03.26-.02.37.05l5.41 3.14c.11.06.19.17.23.29.03.12.02.26-.05.37l-11.23 19.38c-.06.11-.17.19-.29.23-.05.01-.09.01-.13.01zm-4.74-3.79 4.57 2.65 10.74-18.53-4.57-2.65z" fill="#000102"/></g></g></g></g><g><g><g><g><path d="m59.36 18.39-11.23 19.37" fill="#fff"/></g></g></g><g><g><g><path d="m48.13 38.24c-.08 0-.17-.02-.24-.07-.23-.13-.31-.43-.18-.66l11.23-19.37c.13-.23.43-.31.66-.18s.31.43.18.66l-11.23 19.38c-.09.16-.26.24-.42.24z" fill="#000102"/></g></g></g></g><g><g><g><g><path d="m50.83 39.33-5.41-3.14.02 2.84 2.92 1.69z" fill="#efc7a4"/></g></g></g><g><g><g><path d="m48.36 41.21c-.08 0-.17-.02-.24-.07l-2.92-1.69c-.15-.09-.24-.24-.24-.42l-.02-2.84c0-.17.09-.34.24-.42.15-.09.34-.09.49 0l5.41 3.14c.15.09.24.25.24.42s-.1.33-.25.42l-2.47 1.4c-.08.04-.16.06-.24.06zm-2.44-2.46 2.44 1.41 1.49-.84-3.94-2.29z" fill="#000102"/></g></g></g></g><g><g><g><g><path d="m48.36 40.72-2.92-1.69.06 3.29z" fill="#000102"/></g></g></g><g><g><g><path d="m45.5 42.8c-.08 0-.17-.02-.24-.06-.15-.09-.24-.24-.24-.41l-.06-3.29c0-.18.09-.34.24-.43s.34-.09.49 0l2.92 1.69c.15.09.24.25.24.42s-.1.33-.25.42l-2.86 1.59c-.08.05-.16.07-.24.07zm.44-2.92.03 1.62 1.41-.79z" fill="#000102"/></g></g></g></g></g></svg>