<svg id="Capa_1" enable-background="new 0 0 510 510" height="512" viewBox="0 0 510 510" width="512" xmlns="http://www.w3.org/2000/svg"><g><path d="m255 225-63.75 10-63.75-10v-195l41.25-10 41.25 10 45 60 10 71.333z" fill="#ffe271"/><path d="m382.5 225-63.75 10-63.75-10v-135l45-60 40.75-10 41.75 10z" fill="#ffb44b"/><path d="m382.5 30h-82.5l-10-15 10-15h82.5z" fill="#ff835b"/><path d="m210 30h-82.5v-30h82.5l10 15z" fill="#ffb44b"/><path d="m172.5 165h60v30h-60z" fill="#ffb44b"/><path d="m210 0v112.5l45-22.5 10-45-10-45z" fill="#ff5757"/><path d="m255 0v90l45 22.5v-112.5z" fill="#ff1e49"/><path d="m255 255-63.75 10-63.75-10v-30h127.5l10 15z" fill="#ffb44b"/><path d="m382.5 255-63.75 10-63.75-10v-30h127.5z" fill="#ff835b"/><path d="m127.5 480-63.75 10-63.75-10v-195l41.25-10 41.25 10 45 60 10 71.333z" fill="#ffe271"/><path d="m255 480-63.75 10-63.75-10v-135l45-60 40.75-10 41.75 10z" fill="#ffb44b"/><path d="m255 285h-82.5l-10-15 10-15h82.5z" fill="#ff835b"/><path d="m82.5 285h-82.5v-30h82.5l10 15z" fill="#ffb44b"/><path d="m45 420h60v30h-60z" fill="#ffb44b"/><path d="m82.5 255v112.5l45-22.5 10-45-10-45z" fill="#ff5757"/><path d="m127.5 255v90l45 22.5v-112.5z" fill="#ff1e49"/><path d="m127.5 510h-127.5v-30h127.5l10 15z" fill="#ffb44b"/><path d="m127.5 480h127.5v30h-127.5z" fill="#ff835b"/><path d="m382.5 480-63.75 10-63.75-10v-195l41.25-10 41.25 10 45 60 10 71.333z" fill="#ffe271"/><path d="m510 480-63.75 10-63.75-10v-135l45-60 40.75-10 41.75 10z" fill="#ffb44b"/><path d="m510 285h-82.5l-10-15 10-15h82.5z" fill="#ff835b"/><path d="m337.5 285h-82.5v-30h82.5l10 15z" fill="#ffb44b"/><path d="m300 420h60v30h-60z" fill="#ffb44b"/><path d="m337.5 255v112.5l45-22.5 10-45-10-45z" fill="#ff5757"/><path d="m382.5 255v90l45 22.5v-112.5z" fill="#ff1e49"/><path d="m382.5 510h-127.5v-30h127.5l10 15z" fill="#ffb44b"/><path d="m382.5 480h127.5v30h-127.5z" fill="#ff835b"/></g></svg>