<svg height="415pt" viewBox="-7 0 415 415.8" width="415pt" xmlns="http://www.w3.org/2000/svg"><path d="m80.398438 240.238281 120 73.332031 120-73.332031 80-48.886719v180c.003906 24.542969-19.894532 44.445313-44.4375 44.449219h-311.121094c-24.546875-.003906-44.441406-19.90625-44.441406-44.449219v-180zm0 0" fill="#f8ec7d"/><path d="m400.398438 176.789062v14.5625l-80 48.886719v-34.339843h10c5.523437 0 10-4.476563 10-10v-46c0-5.519532-4.476563-10-10-10h-10v-22.859376l5.082031 2.359376 65.347656 40.332031c5.945313 3.632812 9.570313 10.09375 9.570313 17.058593zm0 0" fill="#e48e66"/><path d="m340.398438 149.898438v46c0 5.523437-4.476563 10-10 10h-260c-5.519532 0-10-4.476563-10-10v-46c0-5.519532 4.480468-10 10-10h260c5.523437 0 10 4.480468 10 10zm0 0" fill="#f8ec7d"/><path d="m320.398438 205.898438v34.339843l-120 73.332031-120-73.332031v-34.339843zm0 0" fill="#6fe3ff"/><path d="m320.398438 117.039062v22.859376h-240v-108.179688c0-17.515625 14.195312-31.71484375 31.710937-31.71875h120.96875l1.613281.160156v53.839844c-.007812 17.515625 14.191406 31.71875 31.707032 31.71875h45.191406l8.808594 9.820312zm0 0" fill="#6fe3ff"/><path d="m234.859375.179688 76.730469 85.539062h-45.191406c-17.515626 0-31.714844-14.203125-31.707032-31.71875v-53.839844zm0 0" fill="#bcf1f7"/><path d="m80.398438 205.898438v34.339843l-80-48.886719v-14.5625c.003906-6.964843 3.628906-13.425781 9.570312-17.058593l70.429688-42.691407v22.859376h-10c-5.519532 0-10 4.480468-10 10v46c0 5.523437 4.480468 10 10 10zm0 0" fill="#e48e66"/><g fill="#cc7350"><path d="m129.738281 182.058594c-5.058593 0-9.160156-4.101563-9.160156-9.160156 0-5.058594 4.101563-9.160157 9.160156-9.160157 5.0625 0 9.160157 4.101563 9.160157 9.160157-.003907 5.058593-4.101563 9.15625-9.160157 9.160156zm0-12c-1.566406 0-2.839843 1.273437-2.839843 2.839844 0 1.570312 1.273437 2.839843 2.839843 2.839843 1.570313 0 2.839844-1.269531 2.839844-2.839843 0-1.566407-1.269531-2.835938-2.839844-2.839844zm0 0"/><path d="m165.070312 182.058594c-5.058593 0-9.160156-4.101563-9.160156-9.160156 0-5.058594 4.101563-9.160157 9.160156-9.160157 5.058594 0 9.160157 4.101563 9.160157 9.160157-.007813 5.058593-4.105469 9.15625-9.160157 9.160156zm0-12c-1.570312 0-2.839843 1.273437-2.839843 2.839844 0 1.570312 1.269531 2.839843 2.839843 2.839843 1.566407 0 2.839844-1.269531 2.839844-2.839843-.003906-1.566407-1.273437-2.835938-2.839844-2.839844zm0 0"/><path d="m200.398438 182.058594c-5.058594 0-9.160157-4.101563-9.160157-9.160156 0-5.058594 4.101563-9.160157 9.160157-9.160157 5.058593 0 9.160156 4.101563 9.160156 9.160157-.003906 5.058593-4.101563 9.15625-9.160156 9.160156zm0-12c-1.566407 0-2.839844 1.273437-2.839844 2.839844 0 1.570312 1.273437 2.839843 2.839844 2.839843 1.570312 0 2.839843-1.269531 2.839843-2.839843 0-1.566407-1.269531-2.835938-2.839843-2.839844zm0 0"/><path d="m235.730469 182.058594c-5.058594 0-9.160157-4.101563-9.160157-9.160156 0-5.058594 4.101563-9.160157 9.160157-9.160157 5.058593 0 9.160156 4.101563 9.160156 9.160157-.007813 5.058593-4.105469 9.15625-9.160156 9.160156zm0-12c-1.570313 0-2.839844 1.273437-2.839844 2.839844 0 1.570312 1.269531 2.839843 2.839844 2.839843 1.566406 0 2.839843-1.269531 2.839843-2.839843-.003906-1.566407-1.273437-2.835938-2.839843-2.839844zm0 0"/><path d="m271.058594 182.058594c-5.058594 0-9.160156-4.101563-9.160156-9.160156 0-5.058594 4.101562-9.160157 9.160156-9.160157s9.160156 4.101563 9.160156 9.160157c-.003906 5.058593-4.101562 9.15625-9.160156 9.160156zm0-12c-1.566406 0-2.839844 1.273437-2.839844 2.839844 0 1.570312 1.273438 2.839843 2.839844 2.839843 1.570312 0 2.839844-1.269531 2.839844-2.839843 0-1.566407-1.269532-2.835938-2.839844-2.839844zm0 0"/><path d="m94.410156 182.058594c-5.058594 0-9.160156-4.101563-9.160156-9.160156 0-5.058594 4.101562-9.160157 9.160156-9.160157s9.160156 4.101563 9.160156 9.160157c-.003906 5.058593-4.101562 9.160156-9.160156 9.160156zm0-12c-1.566406.007812-2.832031 1.28125-2.832031 2.847656.003906 1.566406 1.277344 2.835938 2.84375 2.832031 1.570313 0 2.839844-1.269531 2.839844-2.839843-.003907-1.570313-1.28125-2.839844-2.851563-2.839844zm0 0"/><path d="m306.390625 182.058594c-5.0625.007812-9.167969-4.089844-9.171875-9.152344-.003906-5.058594 4.097656-9.164062 9.15625-9.167969 5.0625 0 9.164062 4.101563 9.164062 9.160157-.003906 5.054687-4.097656 9.152343-9.148437 9.160156zm0-12c-1.570313 0-2.839844 1.273437-2.839844 2.839844 0 1.570312 1.269531 2.839843 2.839844 2.839843 1.566406 0 2.839844-1.269531 2.839844-2.839843-.003907-1.566407-1.273438-2.832032-2.839844-2.839844zm0 0"/></g></svg>