<svg id="Layer_1" enable-background="new 0 0 512 512" viewBox="0 0 512 512" xmlns="http://www.w3.org/2000/svg"><g clip-rule="evenodd" fill-rule="evenodd"><g><path d="m113.062 16.002h266.445c2.394 0 4.453.853 6.146 2.546l48.801 48.801c1.692 1.693 2.546 3.752 2.546 6.146v364.933c0 4.787-3.904 8.692-8.691 8.692h-315.247c-4.787 0-8.691-3.904-8.691-8.692v-413.734c0-4.787 3.904-8.692 8.691-8.692z" fill="#eceff1"/><path d="m113.062 16.002h15.901v431.118h-15.901c-4.787 0-8.691-3.904-8.691-8.692v-413.734c0-4.788 3.904-8.692 8.691-8.692z" fill="#d1d1d6"/><path d="m383.108 16.756c.923.421 1.773 1.019 2.546 1.792l48.801 48.801c.773.773 1.371 1.623 1.792 2.546h-48.793c-2.394 0-4.346-1.952-4.346-4.346z" fill="#a79ba7"/><path d="m245.714 351.345c-4.418 0-8-3.582-8-8s3.582-8 8-8h153.188c4.418 0 8 3.582 8 8s-3.582 8-8 8zm0-189.048c-4.418 0-8-3.582-8-8s3.582-8 8-8h153.188c4.418 0 8 3.582 8 8s-3.582 8-8 8zm0-45.794c-4.418 0-8-3.582-8-8s3.582-8 8-8h153.188c4.418 0 8 3.582 8 8s-3.582 8-8 8zm0 140.318c-4.418 0-8-3.582-8-8s3.582-8 8-8h153.188c4.418 0 8 3.582 8 8s-3.582 8-8 8zm0-45.794c-4.418 0-8-3.582-8-8s3.582-8 8-8h153.188c4.418 0 8 3.582 8 8s-3.582 8-8 8zm0 94.523c-4.418 0-8-3.582-8-8s3.582-8 8-8h153.188c4.418 0 8 3.582 8 8s-3.582 8-8 8z" fill="#a79ba7"/><path d="m147.78 285.751h55.027c3.951 0 7.183 3.232 7.183 7.183v55.027c0 3.951-3.232 7.183-7.183 7.183h-55.027c-3.951 0-7.183-3.232-7.183-7.183v-55.027c0-3.951 3.232-7.183 7.183-7.183z" fill="#8ac9fe"/><path d="m191.542 285.751h11.264c3.951 0 7.183 3.232 7.183 7.183v55.027c0 3.951-3.232 7.183-7.183 7.183h-11.264c3.951 0 7.183-3.232 7.183-7.183v-55.027c0-3.951-3.232-7.183-7.183-7.183z" fill="#60b7ff"/><path d="m154.999 324.68c-3.124-3.124-3.124-8.189 0-11.312 3.124-3.124 8.189-3.124 11.312 0l5.778 5.778 11.623-14.369c2.779-3.434 7.815-3.966 11.25-1.187 3.434 2.779 3.966 7.815 1.187 11.25l-17.176 21.233c-.185.232-.384.456-.599.67-3.124 3.124-8.189 3.124-11.312 0z" fill="#eceff1"/><path d="m147.78 191.227h55.027c3.951 0 7.183 3.232 7.183 7.183v55.027c0 3.951-3.232 7.183-7.183 7.183h-55.027c-3.951 0-7.183-3.232-7.183-7.183v-55.027c0-3.951 3.232-7.183 7.183-7.183z" fill="#8ac9fe"/><path d="m191.542 191.227h11.264c3.951 0 7.183 3.232 7.183 7.183v55.027c0 3.951-3.232 7.183-7.183 7.183h-11.264c3.951 0 7.183-3.232 7.183-7.183v-55.027c0-3.951-3.232-7.183-7.183-7.183z" fill="#60b7ff"/><path d="m154.999 230.157c-3.124-3.124-3.124-8.189 0-11.312 3.124-3.124 8.189-3.124 11.312 0l5.778 5.778 11.623-14.369c2.779-3.434 7.815-3.966 11.25-1.187 3.434 2.779 3.966 7.815 1.187 11.25l-17.176 21.234c-.185.232-.384.456-.599.67-3.124 3.124-8.189 3.124-11.312 0z" fill="#eceff1"/><path d="m147.78 96.703h55.027c3.951 0 7.183 3.232 7.183 7.183v55.027c0 3.951-3.232 7.183-7.183 7.183h-55.027c-3.951 0-7.183-3.232-7.183-7.183v-55.027c0-3.95 3.232-7.183 7.183-7.183z" fill="#8ac9fe"/><path d="m191.542 96.703h11.264c3.951 0 7.183 3.232 7.183 7.183v55.027c0 3.951-3.232 7.183-7.183 7.183h-11.264c3.951 0 7.183-3.232 7.183-7.183v-55.027c0-3.95-3.232-7.183-7.183-7.183z" fill="#60b7ff"/><path d="m154.999 135.633c-3.124-3.124-3.124-8.189 0-11.312 3.124-3.124 8.189-3.124 11.312 0l5.778 5.778 11.623-14.369c2.779-3.435 7.815-3.966 11.25-1.187 3.434 2.779 3.966 7.815 1.187 11.25l-17.176 21.234c-.185.232-.384.455-.599.67-3.124 3.124-8.189 3.124-11.312 0z" fill="#eceff1"/></g><g><path d="m401.905 300.36c9.417 2.241 18.411 5.975 26.653 11.05l17.32-7.692 20.413 20.413-7.69 17.314c5.077 8.244 8.811 17.241 11.052 26.661l17.67 6.801v28.868l-17.674 6.803c-2.241 9.417-5.975 18.411-11.05 26.653l7.692 17.32-20.413 20.414-17.314-7.69c-8.244 5.077-17.241 8.811-26.661 11.052l-6.801 17.67h-28.868l-6.803-17.674c-9.417-2.241-18.411-5.975-26.653-11.05l-17.32 7.692-20.413-20.413 7.69-17.314c-5.077-8.244-8.81-17.242-11.052-26.66l-17.67-6.802v-28.868l17.673-6.803c2.241-9.418 5.975-18.413 11.051-26.656l-7.691-17.318 20.413-20.413 17.32 7.692c8.242-5.075 17.237-8.809 26.654-11.05l6.803-17.674h28.867z" fill="#ffe177"/><path d="m332.778 467.272-17.32 7.692-2.667-2.667 16.238-7.212c1.233.759 2.483 1.488 3.749 2.187zm69.127-166.912c9.417 2.241 18.411 5.975 26.653 11.05l-4.923 2.186c-8.243-5.075-20.985-10.995-30.402-13.236l-6.803-17.674h8.671zm26.659 166.914c-8.244 5.077-17.241 8.811-26.661 11.052l-6.801 17.67h-8.671l6.801-17.67c9.419-2.241 22.165-8.161 30.408-13.238zm-115.773-160.89 2.667-2.667 17.32 7.692c-1.265.699-2.515 1.427-3.748 2.186zm127.082 0 6.004-2.667 20.413 20.413-7.69 17.314c5.077 8.244 8.811 17.241 11.052 26.661l17.67 6.801v28.868l-17.674 6.803c-2.241 9.417-5.975 18.411-11.05 26.653l7.692 17.32-20.413 20.414-6.005-2.667 17.746-17.747-7.692-17.32c5.075-8.242 8.809-17.236 11.05-26.653l17.674-6.803v-28.868l-17.67-6.801c-2.241-9.419-5.975-18.417-11.052-26.661l7.69-17.314z" fill="#ffd064"/><path d="m380.668 338.998c-27.806 0-50.342 22.537-50.342 50.343s22.536 50.342 50.342 50.342 50.343-22.537 50.343-50.342c-.001-27.806-22.537-50.343-50.343-50.343z" fill="#eceff1"/><path d="m380.668 338.998c-27.805 0-50.342 22.537-50.342 50.343 0 27.805 22.537 50.342 50.342 50.342 1.348 0 2.683-.054 4.004-.159-25.933-2.04-46.338-23.726-46.338-50.184s20.406-48.144 46.338-50.184c-1.321-.103-2.657-.158-4.004-.158z" fill="#d1d1d6"/></g><g><ellipse cx="133.267" cy="387.408" fill="#d8ecfe" rx="108.59" ry="108.59" transform="matrix(.707 -.707 .707 .707 -234.906 207.704)"/><path d="m133.268 278.818c2.414 0 4.807.087 7.182.242-56.629 3.698-101.41 50.784-101.41 108.348 0 57.563 44.781 104.65 101.409 108.348-2.375.155-4.768.242-7.182.242-59.978 0-108.59-48.612-108.59-108.59 0-59.977 48.612-108.59 108.591-108.59z" fill="#c4e2ff"/><ellipse cx="116.539" cy="453.993" fill="#8192a5" rx="17.51" ry="17.511" transform="matrix(.109 -.994 .994 .109 -347.46 520.298)"/><path d="m203.94 444.103c4.363 1.705 9.282-.45 10.987-4.813s-.45-9.282-4.813-10.987l-9.794-3.831c-1.751-.684-3.591-.746-5.277-.294l-.001-.004-72.45 19.412-27.082-104.64c-.989-3.817-4.43-6.349-8.199-6.346v-.026h-24.811c-4.693 0-8.497 3.805-8.497 8.497 0 4.693 3.805 8.497 8.497 8.497h18.263l27.444 106.034c.038.194.082.389.134.583 1.21 4.528 5.862 7.218 10.389 6.008l78.015-20.904z" fill="#9facba"/><path d="m116.539 440.663c7.363 0 13.331 5.968 13.331 13.331s-5.968 13.331-13.331 13.331-13.331-5.969-13.331-13.331 5.968-13.331 13.331-13.331z" fill="#eceff1"/><path d="m116.539 449.161c1.336 0 2.545.541 3.418 1.415.874.874 1.415 2.083 1.415 3.419s-.541 2.544-1.415 3.419c-.874.874-2.083 1.415-3.418 1.415-1.336 0-2.544-.541-3.418-1.415s-1.415-2.083-1.415-3.419.541-2.544 1.415-3.419c.874-.874 2.082-1.415 3.418-1.415zm15.434-10.601c-3.951-3.95-9.408-6.394-15.434-6.394-6.027 0-11.484 2.444-15.434 6.394s-6.394 9.408-6.394 15.434c0 6.027 2.444 11.484 6.394 15.434s9.407 6.394 15.434 6.394 11.484-2.444 15.434-6.394 6.394-9.408 6.394-15.434-2.444-11.484-6.394-15.434z" fill="#8d9ca8"/><path d="m127.139 374.393 42.251-11.321c3.386-.907 6.898 1.12 7.805 4.506l9.467 35.331c.907 3.386-1.12 6.898-4.507 7.805l-42.251 11.321c-3.386.907-6.898-1.12-7.805-4.506l-9.467-35.331c-.906-3.386 1.121-6.898 4.507-7.805z" fill="#e3a76f"/><path d="m127.139 374.393 6.423-1.721c-3.375.915-5.393 4.42-4.487 7.799l9.467 35.331c.907 3.386 4.419 5.414 7.805 4.507l35.828-9.6-.019.005-42.251 11.321c-3.386.907-6.898-1.12-7.805-4.506l-9.467-35.331c-.908-3.386 1.12-6.898 4.506-7.805z" fill="#c48958"/><path d="m140.067 370.929 16.394-4.393 3.407 12.716c1.21 4.528-1.48 9.179-6.008 10.389s-9.179-1.48-10.389-6.008z" fill="#f2d1a5"/><path d="m110.918 317.961 33.946-9.096c2.822-.756 5.748.934 6.504 3.755l7.594 28.339c.756 2.822-.934 5.748-3.755 6.504l-33.946 9.096c-2.821.756-5.748-.934-6.504-3.755l-7.594-28.34c-.756-2.821.934-5.747 3.755-6.503z" fill="#e3a76f"/><path d="m110.918 317.961 6.422-1.721c-2.809.765-4.489 3.684-3.735 6.498l7.593 28.34c.756 2.821 3.683 4.511 6.504 3.755l-6.442 1.726c-2.821.756-5.748-.934-6.504-3.755l-7.593-28.34c-.756-2.82.934-5.747 3.755-6.503z" fill="#c48958"/><path d="m119.694 315.61 16.394-4.393 2.761 10.303c1.21 4.528-1.48 9.179-6.008 10.389s-9.179-1.48-10.389-6.008z" fill="#f2d1a5"/></g></g></svg>