<svg id="Capa_1" enable-background="new 0 0 512 512" height="512" viewBox="0 0 512 512" width="512" xmlns="http://www.w3.org/2000/svg"><g><g><g><g><path d="m277.639 121.338v145.429h31.089c2.313 0 4.195 1.881 4.195 4.194v116.627l15.724-15.681c8.164-8.142 19.01-12.625 30.54-12.625s22.375 4.484 30.54 12.625l72.791 72.59h35.659v-323.16h-220.538z" fill="#0593fc"/><path d="m277.639 122.338h29.81v144.429h-29.81z" fill="#0182fc"/><path d="m506.805 96.364h-229.166v25.974h229.166c2.869 0 5.195-2.326 5.195-5.195v-15.584c0-2.869-2.326-5.195-5.195-5.195z" fill="#0182fc"/><path d="m311.783 96.364h-34.144v25.974h34.144c-2.869 0-5.195-2.326-5.195-5.195v-15.584c0-2.869 2.326-5.195 5.195-5.195z" fill="#0172fb"/><path d="m506.805 443.498h-45.29l23.868 23.802 3.594 2.172h17.828c2.869 0 5.195-2.326 5.195-5.195v-15.584c0-2.869-2.326-5.195-5.195-5.195z" fill="#0182fc"/><g fill="#0172fb"><path d="m277.639 220.811h220.361c4.142 0 7.5-3.358 7.5-7.5s-3.358-7.5-7.5-7.5h-220.361z"/><path d="m312.924 333.932h185.076c4.142 0 7.5-3.358 7.5-7.5s-3.358-7.5-7.5-7.5h-185.076z"/></g></g><g><path d="m13.823 67.502v376.996h97.396v-173.536c0-2.313 1.882-4.194 4.195-4.194h163.225v-199.266z" fill="#fed402"/><path d="m13.823 67.502h37.146v376.996h-37.146z" fill="#fac600"/><g><path d="m287.267 42.528h-282.072c-2.869 0-5.195 2.326-5.195 5.195v15.584c0 2.869 2.326 5.195 5.195 5.195h282.072c2.869 0 5.195-2.326 5.195-5.195v-15.584c0-2.869-2.326-5.195-5.195-5.195z" fill="#fac600"/></g><g><path d="m43.783 63.307v-15.584c0-2.869 2.326-5.195 5.195-5.195h-43.783c-2.869 0-5.195 2.326-5.195 5.195v15.584c0 2.869 2.326 5.195 5.195 5.195h43.783c-2.869 0-5.195-2.326-5.195-5.195z" fill="#e8b800"/></g><path d="m111.219 443.498h-106.024c-2.869 0-5.195 2.326-5.195 5.195v15.584c0 2.869 2.326 5.195 5.195 5.195h106.024z" fill="#fac600"/><g><path d="m43.783 464.277v-15.584c0-2.869 2.326-5.195 5.195-5.195h-43.783c-2.869 0-5.195 2.326-5.195 5.195v15.584c0 2.869 2.326 5.195 5.195 5.195h43.783c-2.869 0-5.195-2.326-5.195-5.195z" fill="#e8b800"/></g><g><path d="m280 181.6h-267.538c-4.142 0-7.5-3.358-7.5-7.5s3.358-7.5 7.5-7.5h267.538c4.142 0 7.5 3.358 7.5 7.5s-3.358 7.5-7.5 7.5z" fill="#e8b800"/></g><path d="m111.219 299.008h-98.757c-4.142 0-7.5 3.358-7.5 7.5s3.358 7.5 7.5 7.5h98.757z" fill="#e8b800"/></g></g><g><g><path d="m313.924 386.592v-115.63c0-2.869-2.326-5.195-5.195-5.195h-193.315c-2.869 0-5.195 2.326-5.195 5.195v198.51h119.179l7.096-5.665z" fill="#ffbd86"/><g><path d="m150.206 265.767h-34.793c-2.869 0-5.195 2.326-5.195 5.195v198.51h34.793v-198.51c.001-2.869 2.326-5.195 5.195-5.195z" fill="#f6a96c"/></g><g><path d="m226.415 315.238h-28.687c-1.721 0-3.117-1.395-3.117-3.117v-46.354h34.921v46.354c0 1.722-1.396 3.117-3.117 3.117z" fill="#fe646f"/></g><g><path d="m211.808 312.122v-46.354h-17.197v46.354c0 1.721 1.395 3.117 3.117 3.117h17.197c-1.722-.001-3.117-1.396-3.117-3.117z" fill="#fd4755"/></g><g><path d="m185.783 443.106h-46.147c-1.721 0-3.117-1.395-3.117-3.117v-46.147c0-1.721 1.395-3.117 3.117-3.117h46.147c1.721 0 3.117 1.395 3.117 3.117v46.147c0 1.722-1.395 3.117-3.117 3.117z" fill="#fff"/></g><g><path d="m162.412 439.989v-46.147c0-1.721 1.395-3.117 3.117-3.117h-25.892c-1.721 0-3.117 1.396-3.117 3.117v46.147c0 1.721 1.395 3.117 3.117 3.117h25.892c-1.722 0-3.117-1.395-3.117-3.117z" fill="#f3f0f3"/></g></g><g><path d="m327.942 371.2-98.544 98.273h259.58l-98.545-98.273c-17.27-17.223-45.221-17.223-62.491 0z" fill="#7a6d79"/></g><g><path d="m379.185 363.058c-16.588-8.407-37.363-5.7-51.243 8.142l-98.544 98.272h39.995l98.544-98.272c3.39-3.381 7.196-6.089 11.248-8.142z" fill="#685e68"/></g></g></g><g><path d="m380.676 409.048h-6.234c-4.142 0-7.5-3.358-7.5-7.5s3.358-7.5 7.5-7.5h6.234c4.142 0 7.5 3.358 7.5 7.5s-3.358 7.5-7.5 7.5z" fill="#a79ba7"/></g><g><path d="m354.702 435.022h-6.234c-4.142 0-7.5-3.358-7.5-7.5s3.358-7.5 7.5-7.5h6.234c4.142 0 7.5 3.358 7.5 7.5s-3.358 7.5-7.5 7.5z" fill="#a79ba7"/></g><g><path d="m411.845 446.451h-6.234c-4.142 0-7.5-3.358-7.5-7.5s3.358-7.5 7.5-7.5h6.234c4.142 0 7.5 3.358 7.5 7.5s-3.358 7.5-7.5 7.5z" fill="#a79ba7"/></g></g></svg>