<svg id="Layer_1" enable-background="new 0 0 512 512" viewBox="0 0 512 512" xmlns="http://www.w3.org/2000/svg"><g clip-rule="evenodd" fill-rule="evenodd"><g><path d="m170.278 53.239h66.699c3.664 0 6.662 2.998 6.662 6.662v178.983c0 3.664-2.998 6.662-6.662 6.662h-66.699c-3.664 0-6.662-2.998-6.662-6.662v-178.983c0-3.665 2.998-6.662 6.662-6.662z" fill="#ecba78"/><path d="m222.315 53.239h14.662c3.664 0 6.662 2.998 6.662 6.662v178.983c0 3.664-2.998 6.662-6.662 6.662h-14.662c3.664 0 6.662-2.998 6.662-6.662v-178.983c0-3.665-2.997-6.662-6.662-6.662z" fill="#e3a76f"/></g><g><path d="m208.201 127.103h66.7c3.664 0 6.662 2.998 6.662 6.662v178.983c0 3.664-2.998 6.662-6.662 6.662h-66.7c-3.664 0-6.662-2.998-6.662-6.662v-178.984c0-3.664 2.998-6.661 6.662-6.661z" fill="#ffe177"/><path d="m260.239 127.103h14.661c3.664 0 6.662 2.998 6.662 6.662v178.983c0 3.664-2.998 6.662-6.662 6.662h-14.662c3.664 0 6.662-2.998 6.662-6.662v-178.984c0-3.664-2.997-6.661-6.661-6.661z" fill="#ffd064"/></g><g><path d="m39.341 125.624 57.763-33.35c3.173-1.832 7.268-.735 9.1 2.438l89.492 155.004c1.832 3.173.735 7.268-2.438 9.1l-57.763 33.35c-3.173 1.832-7.268.735-9.1-2.438l-89.492-155.004c-1.832-3.173-.735-7.268 2.438-9.1z" fill="#8ac9fe"/><path d="m84.407 99.605 12.697-7.331c3.173-1.832 7.268-.735 9.1 2.438l89.492 155.004c1.832 3.173.735 7.268-2.438 9.1l-12.697 7.331c3.173-1.832 4.27-5.927 2.438-9.1l-89.492-155.003c-1.832-3.173-5.927-4.271-9.1-2.439z" fill="#60b7ff"/></g><g><path d="m136.121 105.976h66.7c3.664 0 6.662 2.998 6.662 6.662v178.983c0 3.664-2.998 6.662-6.662 6.662h-66.7c-3.664 0-6.662-2.998-6.662-6.662v-178.983c.001-3.664 2.998-6.662 6.662-6.662z" fill="#6cf5c2"/><path d="m188.159 105.976h14.662c3.664 0 6.662 2.998 6.662 6.662v178.983c0 3.664-2.998 6.662-6.662 6.662h-14.662c3.664 0 6.662-2.998 6.662-6.662v-178.983c0-3.664-2.998-6.662-6.662-6.662z" fill="#00e499"/></g><g><path d="m444.923 178.004c12.436 0 20.754 12.595 16.248 23.931l-51.281 166.255c-8.618 27.94-33.778 46.585-63.034 46.585h-206.482c-29.256 0-54.417-18.645-63.034-46.585l-51.28-166.255c-4.507-11.336 3.811-23.931 16.248-23.931z" fill="#ecba78"/><path d="m444.923 178.004c12.436 0 20.754 12.595 16.248 23.931l-51.281 166.255c-8.618 27.94-33.778 46.585-63.034 46.585h-206.482c-23.082 0-43.613-11.608-55.483-30.229 10.291 6.543 22.482 10.228 35.482 10.228h206.482c29.256 0 54.417-18.645 63.034-46.585l51.28-166.255c.517-1.301.863-2.618 1.056-3.931h2.698z" fill="#e3a76f"/><ellipse cx="140.374" cy="414.775" fill="#8d9ca8" rx="43.986" ry="43.986" transform="matrix(.894 -.447 .447 .894 -170.673 106.566)"/><path d="m140.374 396.866c9.891 0 17.909 8.018 17.909 17.909s-8.018 17.909-17.909 17.909-17.909-8.018-17.909-17.909 8.018-17.909 17.909-17.909z" fill="#9facba"/><path d="m26 172.408h435.23c5.5 0 10 4.5 10 10v18.152c0 5.5-4.5 10-10 10h-435.23c-5.5 0-10-4.5-10-10v-18.152c0-5.5 4.5-10 10-10z" fill="#c48958"/><path d="m26 172.408h435.23c5.5 0 10 4.5 10 10v9.076h-455.23v-9.076c0-5.5 4.5-10 10-10z" fill="#e3a76f"/></g><g><path d="m483.789 148.145c8.684 0 14.492 8.795 11.345 16.71l-10.606 34.385c7.391 32.122 11.472 67.313 11.472 104.213s-4.083 72.086-11.474 104.206l10.608 34.393c3.147 7.915-2.661 16.71-11.345 16.71h-215.653c-8.684 0-14.492-8.794-11.345-16.71l10.608-34.393c-7.391-32.12-11.474-67.306-11.474-104.206 0-36.901 4.08-72.091 11.471-104.213l-10.606-34.385c-3.147-7.915 2.661-16.71 11.345-16.71z" fill="#837683"/><g fill="#685e68"><path d="m483.789 148.145c8.684 0 14.492 8.795 11.345 16.71l-10.606 34.385c7.391 32.122 11.472 67.313 11.472 104.213s-4.083 72.086-11.474 104.206l10.608 34.393c3.147 7.915-2.661 16.71-11.345 16.71h-20.001c8.684 0 14.492-8.794 11.345-16.71l-10.608-34.393c7.391-32.12 11.474-67.306 11.474-104.206s-4.08-72.091-11.472-104.213l10.606-34.385c3.147-7.915-2.661-16.71-11.345-16.71z"/><path d="m315.992 415.658c-4.418 0-8-3.582-8-8s3.582-8 8-8h119.94c4.418 0 8 3.582 8 8s-3.582 8-8 8zm0-208.418c-4.418 0-8-3.582-8-8s3.582-8 8-8h119.94c4.418 0 8 3.582 8 8s-3.582 8-8 8zm99.939 23.507c4.418 0 8 3.582 8 8s-3.582 8-8 8h-79.938c-4.418 0-8-3.582-8-8s3.582-8 8-8zm0 129.405c4.418 0 8 3.582 8 8s-3.582 8-8 8h-79.938c-4.418 0-8-3.582-8-8s3.582-8 8-8z"/></g></g></g></svg>