<svg id="Capa_1" enable-background="new 0 0 512 512" height="512" viewBox="0 0 512 512" width="512" xmlns="http://www.w3.org/2000/svg"><g><path d="m94.813 379.605 45.063 78.052c1.54 2.667 4.95 3.581 7.617 2.041l18.17-10.491c2.667-1.54 3.581-4.95 2.041-7.617l-45.063-78.052c-1.54-2.667-4.95-3.581-7.617-2.041l-18.17 10.491c-2.667 1.54-3.581 4.95-2.041 7.617z" fill="#91dafa"/><path d="m406.044 435.449-20.735-44.13c-3.239-6.894-10.984-10.439-18.319-8.386l-44.59 12.483-30.141-28.214c-3.707-3.47-8.595-5.401-13.673-5.401h-35.89c-9.606 0-17.856 6.826-19.654 16.262l-8.36 43.868h-63.667c-6.538 0-12.66 3.204-16.388 8.575l-20.132 29.01c-1.886 2.717-4.784 4.564-8.044 5.124l-15.36 2.641c-5.142.884-9.171 4.907-10.063 10.047l-4.699 27.059h365.25v-44.381c0-8.613-6.982-15.595-15.595-15.595h-5.824c-6.046.001-11.546-3.492-14.116-8.962z" fill="#f7f3f1"/><path d="m259.303 365.862c5.078 0 9.966 1.931 13.673 5.401l30.141 28.214 18.181-5.09-29.041-27.183c-3.707-3.47-8.595-5.401-13.673-5.401h-35.89c-4.491 0-8.674 1.506-12.052 4.059z" fill="#ebe1dc"/><path d="m425.983 444.412h-5.824c-6.044 0-11.544-3.493-14.115-8.963l-20.735-44.13c-3.239-6.894-10.984-10.439-18.319-8.386l-12.987 3.636c5.11.694 9.713 3.894 12.023 8.809l20.735 44.13c2.57 5.471 8.07 8.963 14.115 8.963h5.824c8.613 0 15.595 6.982 15.595 15.595v40.322h19.282v-44.381c.001-8.613-6.981-15.595-15.594-15.595z" fill="#ebe1dc"/><path d="m355.905 306.894c-2.904 0-5.846-.755-8.526-2.341-7.972-4.718-10.609-15.004-5.892-22.975 6.153-10.397 9.406-22.47 9.406-34.913 0-35.545-26.479-64.463-59.027-64.463-9.263 0-16.772-7.509-16.772-16.772s7.509-16.772 16.772-16.772c51.044 0 92.571 43.966 92.571 98.007 0 18.45-4.87 36.43-14.082 51.996-3.132 5.291-8.717 8.233-14.45 8.233z" fill="#e9a52d"/><path d="m242.354 5.074v135.136l18.06 10.149 18.06-10.149v-135.136c0-2.802-2.272-5.074-5.074-5.074h-25.971c-2.803 0-5.075 2.272-5.075 5.074z" fill="#91dafa"/><path d="m164.923 306.894c-5.733 0-11.318-2.941-14.449-8.233-9.212-15.566-14.082-33.546-14.082-51.996 0-54.041 41.528-98.007 92.571-98.007 9.263 0 16.772 7.509 16.772 16.772s-7.509 16.772-16.772 16.772c-32.548 0-59.027 28.918-59.027 64.463 0 12.443 3.252 24.515 9.406 34.913 4.717 7.971 2.08 18.257-5.892 22.975-2.68 1.585-5.622 2.341-8.527 2.341z" fill="#e9a52d"/><path d="m188.991 151.133v48.219c0 6.033 4.89 10.923 10.923 10.923h121c6.033 0 10.923-4.89 10.923-10.923v-48.219c0-6.033-4.89-10.923-10.923-10.923h-121c-6.032 0-10.923 4.891-10.923 10.923z" fill="#f7f3f1"/><path d="m320.914 140.21h-26.387c6.033 0 10.923 4.89 10.923 10.923v48.219c0 6.033-4.89 10.923-10.923 10.923h26.387c6.033 0 10.923-4.89 10.923-10.923v-48.219c0-6.032-4.89-10.923-10.923-10.923z" fill="#ebe1dc"/><path d="m260.414 302.6c-9.263 0-16.772-7.509-16.772-16.772v-99.434c0-9.263 7.509-16.772 16.772-16.772s16.772 7.509 16.772 16.772v99.434c0 9.264-7.509 16.772-16.772 16.772z" fill="#e9a52d"/><path d="m280.375 448.582 26.649-26.649 17.931 5.25 7.473 20.154-26.649 26.649c-.817.817-1.881 1.341-3.027 1.491l-20.695 2.704c-3.413.446-6.322-2.463-5.876-5.876l2.704-20.695c.149-1.147.673-2.211 1.49-3.028z" fill="#9a695e"/><path d="m310.847 380.911-18.716 18.716c-2.047 2.047-2.047 5.365 0 7.412l55.19 55.19c2.047 2.047 5.365 2.047 7.412 0l18.716-18.716c2.047-2.047 2.047-5.365 0-7.412l-55.19-55.19c-2.046-2.047-5.365-2.047-7.412 0z" fill="#a87c72"/><path d="m220.237 410.598h-28.347c-3.31 0-6.369 1.766-8.024 4.632l-14.173 24.549c-1.655 2.867-1.655 6.398 0 9.265l14.173 24.549c1.655 2.867 4.714 4.632 8.024 4.632h28.347c3.31 0 6.369-1.766 8.024-4.632l14.173-24.549c1.655-2.867 1.655-6.398 0-9.265l-14.173-24.549c-1.656-2.866-4.714-4.632-8.024-4.632z" fill="#6dc17d"/><path d="m468.606 512h-416.384c-4.204 0-7.611-3.407-7.611-7.612s3.407-7.611 7.611-7.611h416.385c4.204 0 7.611 3.407 7.611 7.611s-3.407 7.612-7.612 7.612z" fill="#a87c72"/><g fill="#5392f9"><path d="m462.032 124.132c-9.856-22.281-23.157-42.509-39.625-60.323l21.593.852c4.185.15 7.74-3.105 7.906-7.305.165-4.2-3.105-7.74-7.305-7.906l-31.452-1.241c-10.224-.38-19.222 7.941-18.792 18.794l1.241 31.45c.162 4.098 3.535 7.311 7.601 7.311.101 0 .203-.002.305-.006 4.2-.166 7.471-3.706 7.305-7.906l-.995-25.211c15.981 16.947 28.844 36.282 38.296 57.649 11.569 26.153 17.434 54.039 17.434 82.883 0 38.326-10.63 75.69-30.74 108.051-2.219 3.571-1.123 8.264 2.447 10.483 3.558 2.211 8.254 1.136 10.483-2.447 21.611-34.775 33.034-74.918 33.034-116.086-.001-30.98-6.304-60.938-18.736-89.042z"/><path d="m122.83 40.652c-63.336 50.405-93.958 131.189-79.917 210.826 3.779 21.426 10.577 41.905 20.255 61.067l-21.937-7.238c-3.991-1.318-8.295.851-9.612 4.843s.851 8.295 4.843 9.612l29.889 9.861c10.011 3.306 20.741-2.643 23.246-12.885l7.476-30.574c.999-4.083-1.502-8.203-5.586-9.201-4.084-1-8.203 1.502-9.201 5.586l-5.614 22.959c-8.96-17.784-15.26-36.789-18.768-56.675-13.07-74.137 15.44-149.343 74.405-196.272 3.289-2.617 3.834-7.406 1.216-10.695-2.616-3.288-7.405-3.832-10.695-1.214z"/></g></g></svg>