<svg id="Layer_1" enable-background="new 0 0 512 512" viewBox="0 0 512 512" xmlns="http://www.w3.org/2000/svg"><g clip-rule="evenodd" fill-rule="evenodd"><g><path d="m427.328 503h-303.204c-11.807 0-21.438-9.63-21.438-21.437v-313.079c0-5.903 2.104-10.984 6.279-15.159l98.593-98.594c4.175-4.175 9.255-6.279 15.159-6.279h204.611c11.807 0 21.438 9.63 21.438 21.438v411.673c0 11.807-9.63 21.437-21.438 21.437z" fill="#e2e3e3"/><path d="m387.876 463.548h-303.204c-11.807 0-21.438-9.63-21.438-21.438v-313.078c0-5.904 2.104-10.984 6.279-15.159l98.593-98.595c4.175-4.173 9.255-6.278 15.159-6.278h204.612c11.807 0 21.437 9.63 21.437 21.437v411.673c0 11.808-9.63 21.438-21.438 21.438z" fill="#eff4f7"/><path d="m168.106 15.279-98.593 98.595c-1.907 1.907-3.382 4.002-4.421 6.279h89.937c10.659 0 19.356-8.694 19.356-19.356v-89.939c-2.277 1.04-4.372 2.514-6.279 4.421z" fill="#e2e3e3"/></g><path d="m349.806 374.199c4.418 0 8 3.582 8 8s-3.582 8-8 8h-138.164c-4.418 0-8-3.582-8-8s3.582-8 8-8zm-40.34 33.461c4.418 0 8 3.582 8 8s-3.582 8-8 8h-97.824c-4.418 0-8-3.582-8-8s3.582-8 8-8zm.535-152.615c4.418 0 8 3.582 8 8s-3.582 8-8 8h-98.359c-4.418 0-8-3.582-8-8s3.582-8 8-8zm39.805-33.461c4.418 0 8 3.582 8 8s-3.582 8-8 8h-138.164c-4.418 0-8-3.582-8-8s3.582-8 8-8zm-39.805 109.769c4.418 0 8 3.582 8 8s-3.582 8-8 8h-98.359c-4.418 0-8-3.582-8-8s3.582-8 8-8zm39.805-33.461c4.418 0 8 3.582 8 8s-3.582 8-8 8h-138.164c-4.418 0-8-3.582-8-8s3.582-8 8-8z" fill="#8d9ca8"/><path d="m166.376 301.028c3.106-3.124 8.158-3.138 11.281-.031 3.124 3.106 3.138 8.158.031 11.281l-31.641 31.937c-3.086 3.103-8.09 3.137-11.218.093l-17.651-17.203c-3.158-3.072-3.228-8.123-.156-11.281s8.123-3.228 11.281-.156l11.99 11.687zm0 76.308c3.106-3.124 8.158-3.138 11.281-.031 3.124 3.106 3.138 8.158.031 11.281l-31.641 31.937c-3.086 3.103-8.09 3.137-11.218.093l-17.651-17.203c-3.158-3.072-3.228-8.123-.156-11.281s8.123-3.228 11.281-.156l11.99 11.687zm0-152.615c3.106-3.124 8.158-3.138 11.281-.031 3.124 3.106 3.138 8.158.031 11.281l-31.641 31.937c-3.086 3.103-8.09 3.137-11.218.093l-17.651-17.203c-3.158-3.072-3.228-8.123-.156-11.281s8.123-3.228 11.281-.156l11.99 11.687z" fill="#64b5f6"/><g><path d="m221.457 45.276h140.785c4.743 0 8.624 3.881 8.624 8.624v119.405c0 4.743-3.881 8.624-8.624 8.624h-140.785c-4.743 0-8.624-3.881-8.624-8.624v-119.405c0-4.743 3.88-8.624 8.624-8.624z" fill="#da8c36"/><path d="m266.298 45.276h51.102v33.842c0 3.222-3.736 4.99-6.228 2.947l-16.907-13.861c-1.419-1.164-3.413-1.164-4.833 0l-16.907 13.861c-2.492 2.043-6.228.275-6.228-2.947v-33.842z" fill="#c97629"/><path d="m242.706 134.583h29.95c2.2 0 4 1.8 4 4v13.472c0 2.2-1.8 4-4 4h-29.95c-2.2 0-4-1.8-4-4v-13.472c0-2.2 1.799-4 4-4z" fill="#eff4f7"/></g></g></svg>