<svg height="512" viewBox="0 0 64 64" width="512" xmlns="http://www.w3.org/2000/svg"><g id="_27._Delivery" data-name="27. Delivery"><circle cx="53" cy="14" fill="#88b8f9" r="6"/><path d="m59 22h-12a3 3 0 0 0 -2.44 1.43l-3.84 6-5.44-.43a2 2 0 0 0 -.56 4l6.94 1.43a2.21 2.21 0 0 0 2.13-.75c.28-.35-.15.17 2.83-3.39-.77 16.99-.62 9.85-.62 31.71a2 2 0 0 0 4 .22s2-18.16 2-18.22h2c0 .06 2 18.22 2 18.22a2 2 0 0 0 4-.22c0-23 .17-14.26-1-40z" fill="#88b8f9"/><path d="m61 2v62h-3v-61h-30v61h-3v-62a2 2 0 0 1 2-2h32a2 2 0 0 1 2 2z" fill="#b7dbf9"/><rect fill="#f8cf6d" height="17" rx="1" width="16" x="24" y="24"/><path d="m30 24h4v4h-4z" fill="#ee7231"/><path d="m22 14a6 6 0 1 1 -10.46-4s4.06-1.86 7.46 0c2.17 1.18 2.79 2.49 2.95 3.27a4.4 4.4 0 0 1 .05.73z" fill="#88b8f9"/><g fill="#2f79f0"><path d="m21.21 11a6 6 0 0 0 -9.67-1h.46a1 1 0 0 1 0 2h-1.65a5.8 5.8 0 0 0 -.35 2h15.92a1.08 1.08 0 0 0 1.08-1.08 1.09 1.09 0 0 0 -.9-1.07z"/><path d="m34.49 35.06-6.6-2c-3.44-10-3.06-8.89-3.22-9.3a3 3 0 0 0 -2.67-1.76h-12a3 3 0 0 0 -2.44 1.43c-4.75 7.48-4.46 7-4.68 7.38a2.29 2.29 0 0 0 .4 2.91l5.94 5.44c-.28 6.13-.22 1.44-.22 22.84a2 2 0 0 0 4 .22s2-18.16 2-18.22h2c0 .06 2 18.22 2 18.22a2 2 0 0 0 4-.22c0-22 .09-15.93-.49-28.73 1.38 2.94 1.2 2.54 1.35 2.87a2.16 2.16 0 0 0 1.55 1.22l8.1 1.58a2 2 0 0 0 1-3.88zm-26.28-3.15 1.42-1.67-.14 3.06z"/></g></g></svg>