<svg id="Capa_1" enable-background="new 0 0 512 512" height="512" viewBox="0 0 512 512" width="512" xmlns="http://www.w3.org/2000/svg"><g><path d="m451.81 48.59h-181.685v30h181.685c16.647 0 30.19 13.543 30.19 30.19v102.026c0 16.647-13.543 30.19-30.19 30.19h-10.972l16.996-16.996-21.213-21.213-53.21 53.21 53.21 53.209 21.213-21.213-16.996-16.996h10.972c33.189 0 60.19-27.001 60.19-60.19v-102.027c0-33.189-27.001-60.19-60.19-60.19z" fill="#523d64"/><path d="m196.105 396.084-21.213 21.213 16.996 16.996h-131.698c-16.647 0-30.19-13.543-30.19-30.189v-102.917c0-16.646 13.543-30.189 30.19-30.189h61.185v-30h-61.185c-33.189-.001-60.19 27-60.19 60.189v102.917c0 33.188 27.001 60.189 60.19 60.189h131.699l-16.997 16.997 21.213 21.213 53.21-53.21z" fill="#61619c"/><path d="m256 192h-96v128h96l13.383-64z" fill="#00e3a1"/><path d="m256 192h96v128h-96z" fill="#04bfa9"/><path d="m256 241h-47.93v30h47.93l13.383-15z" fill="#f9f3f1"/><path d="m256 241h47.93v30h-47.93z" fill="#e8edf2"/><path d="m32 0h192v128h-192z" fill="#ff6946"/><path d="m80.066 49h95.867v30h-95.867z" fill="#f9f3f1"/><path d="m288 384h192v128h-192z" fill="#23a7e9"/><path d="m336.066 433h95.867v30h-95.867z" fill="#e8edf2"/></g></svg>