<svg id="Layer_1" enable-background="new 0 0 512 512" viewBox="0 0 512 512" xmlns="http://www.w3.org/2000/svg"><g><g><path clip-rule="evenodd" d="m252.825 20.001c0-4.418 3.582-8 8-8s8 3.582 8 8v25.231c0 4.418-3.582 8-8 8s-8-3.582-8-8z" fill="#8d9ca8" fill-rule="evenodd"/></g><g><g><path clip-rule="evenodd" d="m398.751 191.701c10.44 2.485 20.411 6.624 29.549 12.25l19.201-8.527 22.63 22.63-8.525 19.195c5.629 9.14 9.768 19.114 12.253 29.556l19.589 7.54v32.003l-19.594 7.542c-2.485 10.44-6.624 20.411-12.25 29.549l8.527 19.201-22.63 22.63-19.195-8.525c-9.14 5.628-19.114 9.767-29.556 12.252l-7.54 19.59h-32.004l-7.542-19.594c-10.44-2.485-20.411-6.624-29.549-12.25l-19.201 8.527-22.63-22.63 8.525-19.195c-5.628-9.14-9.767-19.115-12.252-29.556l-19.59-7.54v-32.004l19.592-7.541c2.484-10.441 6.623-20.413 12.251-29.551l-8.527-19.199 22.63-22.631 19.201 8.528c9.138-5.626 19.109-9.765 29.549-12.25l7.542-19.594h32.003z" fill="#ffe177" fill-rule="evenodd"/></g><g><path clip-rule="evenodd" d="m441.053 198.287 6.448-2.864 22.631 22.63-8.525 19.195c5.628 9.139 9.767 19.114 12.252 29.556l19.589 7.54v32.003l-19.594 7.542c-2.484 10.44-6.624 20.411-12.25 29.549l8.528 19.201-22.63 22.631-6.448-2.864 19.766-19.767-8.527-19.201c5.626-9.138 9.766-19.109 12.25-29.549l19.594-7.542v-32.003l-19.589-7.54c-2.485-10.442-6.624-20.417-12.252-29.556l8.525-19.195zm-141.003 0 2.863-2.864 19.201 8.528c-1.357.752-2.698 1.535-4.021 2.35zm98.701-6.586c10.44 2.484 20.411 6.624 29.549 12.25l-5.291 2.35c-9.138-5.626-23.13-12.115-33.57-14.6l-7.542-19.594h9.312zm-76.636 185.041-19.201 8.528-2.864-2.864 18.044-8.014c1.324.815 2.665 1.599 4.021 2.35zm106.191.003c-9.139 5.628-19.114 9.767-29.557 12.252l-7.54 19.59h-9.311l7.54-19.59c10.442-2.484 24.437-8.974 33.577-14.602z" fill="#ffd064" fill-rule="evenodd"/></g><g><ellipse clip-rule="evenodd" cx="375.207" cy="290.346" fill="#eceff1" fill-rule="evenodd" rx="68.744" ry="68.744" transform="matrix(.707 -.707 .707 .707 -95.41 350.352)"/></g><g><path clip-rule="evenodd" d="m375.207 221.602c1.565 0 3.117.057 4.656.16-35.794 2.395-64.089 32.184-64.089 68.584 0 36.401 28.295 66.189 64.089 68.584-1.539.103-3.091.16-4.656.16-37.965 0-68.744-30.779-68.744-68.744s30.779-68.744 68.744-68.744z" fill="#d1d1d6" fill-rule="evenodd"/></g></g><g><g><path clip-rule="evenodd" d="m482.117 327.96h-152.892v137.104l152.892.051c3.857.001 7.003-3.146 7.003-7.003v-123.15c0-3.856-3.146-7.002-7.003-7.002z" fill="#8192a5" fill-rule="evenodd"/></g><g><path clip-rule="evenodd" d="m349.238 327.96h-10v137.104h10zm-39.352 137.104h-10v.051h10z" fill="#65788e" fill-rule="evenodd"/></g></g><g><g><path clip-rule="evenodd" d="m453.892 354.424h-114.655v28.124h114.655c2.755 0 5.003-2.247 5.003-5.003v-18.118c0-2.756-2.248-5.003-5.003-5.003zm0 56.102h-114.655v28.124h114.655c2.755 0 5.003-2.247 5.003-5.003v-18.119c0-2.754-2.248-5.002-5.003-5.002z" fill="#eceff1" fill-rule="evenodd"/></g><g><path clip-rule="evenodd" d="m349.238 354.424h-10v28.124h10zm0 56.102h-10v28.124h10z" fill="#d1d1d6" fill-rule="evenodd"/></g></g><g><g><path clip-rule="evenodd" d="m220.453 45.232h80.745c3.857 0 7.003 3.146 7.003 7.003v35.959h-94.75v-35.959c-.001-3.857 3.145-7.003 7.002-7.003z" fill="#9facba" fill-rule="evenodd"/></g><g><path clip-rule="evenodd" d="m291.197 45.232h10c3.857 0 7.003 3.146 7.003 7.003v35.959h-10v-35.959c0-3.857-3.146-7.003-7.003-7.003z" fill="#8d9ca8" fill-rule="evenodd"/></g></g><g><path clip-rule="evenodd" d="m189.417 79.365h142.817c3.857 0 7.003 3.146 7.003 7.003v378.696h-156.823v-378.696c0-3.857 3.146-7.003 7.003-7.003z" fill="#8192a5" fill-rule="evenodd"/></g><g><g><path clip-rule="evenodd" d="m301.088 465.115h-80.525v-108.03c0-10.023 9.07-18.198 20.192-18.198h40.141c11.121 0 20.191 8.176 20.191 18.198v108.03z" fill="#eceff1" fill-rule="evenodd"/></g><g><path clip-rule="evenodd" d="m230.563 465.115h-10v-108.03c0-10.023 9.07-18.198 20.192-18.198h10c-11.122 0-20.192 8.175-20.192 18.198z" fill="#d1d1d6" fill-rule="evenodd"/></g></g><g><g><path clip-rule="evenodd" d="m218.072 255.445h26.419c2.755 0 5.003 2.247 5.003 5.003v26.419c0 2.755-2.247 5.003-5.003 5.003h-26.419c-2.755 0-5.003-2.247-5.003-5.003v-26.419c0-2.755 2.248-5.003 5.003-5.003zm0-59.087h26.419c2.755 0 5.003 2.247 5.003 5.003v26.419c0 2.755-2.247 5.003-5.003 5.003h-26.419c-2.755 0-5.003-2.247-5.003-5.003v-26.42c0-2.755 2.248-5.002 5.003-5.002zm59.087 0h26.419c2.755 0 5.003 2.247 5.003 5.003v26.419c0 2.755-2.247 5.003-5.003 5.003h-26.419c-2.755 0-5.003-2.247-5.003-5.003v-26.42c.001-2.755 2.248-5.002 5.003-5.002zm0 59.087h26.419c2.755 0 5.003 2.247 5.003 5.003v26.419c0 2.755-2.247 5.003-5.003 5.003h-26.419c-2.755 0-5.003-2.247-5.003-5.003v-26.419c.001-2.755 2.248-5.003 5.003-5.003z" fill="#d8ecfe" fill-rule="evenodd"/></g><g><path clip-rule="evenodd" d="m234.491 255.445h10c2.755 0 5.003 2.247 5.003 5.003v26.419c0 2.755-2.247 5.003-5.003 5.003h-10c2.755 0 5.003-2.247 5.003-5.003v-26.419c-.001-2.755-2.248-5.003-5.003-5.003zm0-59.087h10c2.755 0 5.003 2.247 5.003 5.003v26.419c0 2.755-2.247 5.003-5.003 5.003h-10c2.755 0 5.003-2.247 5.003-5.003v-26.42c-.001-2.755-2.248-5.002-5.003-5.002zm59.087 0h10c2.755 0 5.003 2.247 5.003 5.003v26.419c0 2.755-2.247 5.003-5.003 5.003h-10c2.755 0 5.003-2.247 5.003-5.003v-26.42c0-2.755-2.248-5.002-5.003-5.002zm0 59.087h10c2.755 0 5.003 2.247 5.003 5.003v26.419c0 2.755-2.247 5.003-5.003 5.003h-10c2.755 0 5.003-2.247 5.003-5.003v-26.419c0-2.755-2.248-5.003-5.003-5.003z" fill="#c4e2ff" fill-rule="evenodd"/></g></g><g><g><path clip-rule="evenodd" d="m218.072 115.967h85.507c2.755 0 5.003 2.247 5.003 5.003v25.062c0 2.755-2.247 5.003-5.003 5.003h-85.507c-2.755 0-5.003-2.247-5.003-5.003v-25.062c0-2.756 2.248-5.003 5.003-5.003z" fill="#d8ecfe" fill-rule="evenodd"/></g><g><path clip-rule="evenodd" d="m298.581 115.967h4.998c2.755 0 5.003 2.247 5.003 5.003v25.062c0 2.755-2.247 5.003-5.003 5.003h-85.507c-2.755 0-5.003-2.247-5.003-5.003v-4.998h80.509c2.755 0 5.003-2.247 5.003-5.003z" fill="#c4e2ff" fill-rule="evenodd"/></g></g><g><g><g><ellipse clip-rule="evenodd" cx="138.984" cy="317.08" fill="#f6dccd" fill-rule="evenodd" rx="62.041" ry="62.041" transform="matrix(.993 -.122 .122 .993 -37.701 19.357)"/></g><g><path clip-rule="evenodd" d="m138.984 255.039c34.264 0 62.041 27.777 62.041 62.041s-27.777 62.041-62.041 62.041c-2.934 0-5.819-.209-8.644-.602 30.172-4.207 53.398-30.108 53.398-61.439s-23.226-57.232-53.398-61.439c2.825-.393 5.711-.602 8.644-.602z" fill="#f1cbbc" fill-rule="evenodd"/></g></g><g><g><path clip-rule="evenodd" d="m28.081 499.999 221.806-.001c6.056 0 10.54-5.488 9.331-11.423-11.404-55.968-60.898-98.083-120.233-98.083-59.336 0-108.83 42.116-120.234 98.084-1.21 5.934 3.274 11.423 9.33 11.423z" fill="#8ac9fe" fill-rule="evenodd"/></g><g><path clip-rule="evenodd" d="m228.2 499.998h21.686c6.056 0 10.54-5.488 9.331-11.422-11.404-55.968-60.898-98.084-120.233-98.084-3.654 0-7.271.161-10.843.474 54.443 4.767 98.689 45.088 109.39 97.61 1.209 5.934-3.275 11.422-9.331 11.422z" fill="#60b7ff" fill-rule="evenodd"/></g></g><g><g><path clip-rule="evenodd" d="m130.13 390.808 17.708.003 20.578 64.7c.353 1.108.115 2.232-.656 3.102l-26.372 29.777c-.631.713-1.452 1.082-2.404 1.082s-1.773-.369-2.404-1.082l-26.372-29.777c-.77-.87-1.009-1.994-.656-3.102z" fill="#eceff1" fill-rule="evenodd"/></g><g><path clip-rule="evenodd" d="m137.039 390.507 10.785.306 20.593 64.698c.353 1.108.115 2.232-.656 3.102l-26.372 29.777c-.631.713-1.451 1.082-2.404 1.082-.952 0-1.772-.369-2.404-1.082l-2.948-3.328 23.425-26.449c.771-.87 1.009-1.994.656-3.102z" fill="#d1d1d6" fill-rule="evenodd"/></g><g><path clip-rule="evenodd" d="m138.642 390.492h.397c2.959.001 5.893.112 8.8.319l1.221 3.84c-6.169-1.649-12.528-2.829-19.039-3.501l.109-.342c2.812-.201 5.65-.308 8.512-.316z" fill="#d1d1d6" fill-rule="evenodd"/></g></g></g><g><g><g><path clip-rule="evenodd" d="m69.494 327.581h138.981c5.122 0 9.314-4.191 9.314-9.313s-4.191-9.313-9.314-9.313h-1.878c.136-1.748.207-3.514.207-5.298 0-30.168-19.701-55.727-46.936-64.534 1.023-10.673-12.093-14.023-20.883-14.019-8.79-.004-21.906 3.345-20.883 14.019-27.236 8.807-46.936 34.366-46.936 64.534 0 1.783.071 3.549.207 5.298h-1.878c-5.122 0-9.313 4.191-9.313 9.313-.001 5.123 4.19 9.313 9.312 9.313z" fill="#ffe177" fill-rule="evenodd"/></g><g><path clip-rule="evenodd" d="m199.193 327.581h9.282c5.122 0 9.314-4.191 9.314-9.313s-4.191-9.313-9.314-9.313h-1.878c.136-1.748.207-3.515.207-5.298 0-30.168-19.701-55.727-46.936-64.534 1.023-10.673-12.093-14.023-20.883-14.019-1.456 0-3.031.092-4.641.293 8.107 1.014 17.095 4.821 16.242 13.726 27.236 8.807 46.936 34.366 46.936 64.534 0 1.783-.071 3.549-.207 5.298h1.878c5.123 0 9.314 4.19 9.314 9.313-.001 5.123-4.192 9.313-9.314 9.313z" fill="#ffd064" fill-rule="evenodd"/></g></g><g><g><path clip-rule="evenodd" d="m132.738 275.266h12.494c5.726 0 10.496-4.191 11.233-9.869l3.354-25.832c1.434-11.04-11.945-13.855-20.834-14.46-8.89.605-22.268 3.42-20.834 14.46l3.354 25.832c.737 5.679 5.507 9.869 11.233 9.869z" fill="#ffd064" fill-rule="evenodd"/></g><g><path clip-rule="evenodd" d="m149.154 274.575c3.864-1.412 6.75-4.866 7.31-9.178l3.354-25.832c1.433-11.04-11.945-13.855-20.834-14.46-7.735.527-18.865 2.727-20.683 10.562 4.192-1.955 9.465-2.75 13.713-3.039 8.89.605 22.268 3.42 20.834 14.46l-3.354 25.832c-.073.568-.188 1.12-.34 1.655z" fill="#ffc338" fill-rule="evenodd"/></g></g><g><g><path clip-rule="evenodd" d="m78.608 327.581h100.688 20.065 9.114c5.122 0 9.314-4.191 9.314-9.313s-4.191-9.313-9.314-9.313h-1.878-9.731-17.57-98.193-9.731-1.878c-5.122 0-9.313 4.19-9.313 9.313s4.191 9.313 9.313 9.313z" fill="#ffc338" fill-rule="evenodd"/></g><g><path clip-rule="evenodd" d="m196.866 327.581h2.495 9.114c5.122 0 9.314-4.191 9.314-9.313s-4.191-9.313-9.314-9.313h-1.878-9.731c5.122 0 9.313 4.19 9.313 9.313s-4.191 9.313-9.313 9.313z" fill="#f5b829" fill-rule="evenodd"/></g></g></g></g></svg>