<svg enable-background="new 0 0 64 64" height="512" viewBox="0 0 64 64" width="512" xmlns="http://www.w3.org/2000/svg"><g id="Icons"><g><g><path d="m38 42c0-6.617 5.383-12 12-12 4.172 0 7.849 2.142 10 5.381v-15.381h-22.026c-1.669 1.25-3.733 2-5.974 2s-4.305-.75-5.974-2h-22.026v32h39.385c-3.272-2.176-5.385-5.894-5.385-10z" fill="#f0f0f0"/></g><g><path d="m22 12h-18v8h22.026c-2.438-1.825-4.026-4.727-4.026-8z" fill="#fa6450"/></g><g><path d="m42 12c0 3.273-1.588 6.175-4.026 8h22.026v-8z" fill="#fa6450"/></g><g><path d="m4 12h3.967v8h-3.967z" fill="#dc4632"/></g><g><path d="m8 16h2v2h-2z" fill="#505050"/></g><g><path d="m12 16h2v2h-2z" fill="#505050"/></g><g><path d="m16 16h2v2h-2z" fill="#505050"/></g><g><path d="m4 20h4v32h-4z" fill="#d2d2d2"/></g><g><path d="m48 27.5h4v1h-4z" fill="#f0f0f0"/></g><g><path d="m50 60c1.105 0 2-.895 2-2v-8h-4v8c0 1.105.895 2 2 2z" fill="#505050"/></g><g><path d="m50 58v-8h-2v8c0 1.105.895 2 2 2 .366 0 .705-.106 1-.277-.595-.347-1-.985-1-1.723z" fill="#3c3c3c"/></g><g><path d="m48 54h4v2h-4z" fill="#fab400"/></g><g><path d="m48 54h2v2h-2z" fill="#dc9600"/></g><g><path d="m50 52c-5.514 0-10-4.486-10-10s4.486-10 10-10 10 4.486 10 10-4.486 10-10 10z" fill="#505050"/></g><g><path d="m42 42c0-5.177 3.954-9.446 9-9.949-.329-.033-.662-.051-1-.051-5.514 0-10 4.486-10 10s4.486 10 10 10c.338 0 .671-.018 1-.051-5.046-.503-9-4.772-9-9.949z" fill="#3c3c3c"/></g><g><circle cx="50" cy="42" fill="#64c8f0" r="8"/></g><g><path d="m50 46c-2.209 0-4-1.791-4-4s1.791-4 4-4 4 1.791 4 4-1.791 4-4 4z" fill="#f0f0f0"/></g><g><path d="m52 42.5h-2c-.276 0-.5-.224-.5-.5v-2c0-.276.224-.5.5-.5s.5.224.5.5v1.5h1.5c.276 0 .5.224.5.5s-.224.5-.5.5z" fill="#64c8f0"/></g><g><path d="m42 24h8v4h-8z" fill="#64c8f0"/></g><g><path d="m32 24h8v4h-8z" fill="#fa6450"/></g><g><path d="m22 24h8v4h-8z" fill="#fab400"/></g><g><path d="m12 24h8v4h-8z" fill="#3cc8b4"/></g><g><g><path d="m14 29.5h4v1h-4z" fill="#505050"/></g></g><g><g><path d="m24 29.5h4v1h-4z" fill="#505050"/></g></g><g><g><path d="m34 29.5h4v1h-4z" fill="#505050"/></g></g><g><path d="m44 30.5h2.592c.458-.136.929-.238 1.408-.319v-.681h-4z" fill="#505050"/></g><g><path d="m12 34h8v14h-8z" fill="#3cc8b4"/></g><g><path d="m22 34h8v14h-8z" fill="#fab400"/></g><g><path d="m38 42c0-2.445.739-4.72 2-6.619v-1.381h-8v14h7.639c-1.037-1.781-1.639-3.833-1.639-6z" fill="#fa6450"/></g><g><path d="m15 39v4l3-2z" fill="#f0f0f0"/></g><g><path d="m25 39v4l3-2z" fill="#f0f0f0"/></g><g><path d="m35 39v4l3-2z" fill="#f0f0f0"/></g><g><path d="m32 20c-4.418 0-8-3.582-8-8s3.582-8 8-8 8 3.582 8 8-3.582 8-8 8z" fill="#fab400"/></g><g><path d="m26 12c0-4.079 3.055-7.438 7-7.931-.328-.041-.661-.069-1-.069-4.418 0-8 3.582-8 8s3.582 8 8 8c.339 0 .672-.028 1-.069-3.945-.493-7-3.852-7-7.931z" fill="#dc9600"/></g><g><path d="m36 12.8v-1.6h-.905c-.076-.293-.191-.569-.341-.823l.64-.64-1.131-1.131-.64.64c-.254-.15-.53-.265-.823-.341v-.905h-1.6v.905c-.293.076-.569.191-.823.341l-.64-.64-1.131 1.131.64.64c-.15.254-.265.53-.341.823h-.905v1.6h.905c.076.293.191.569.341.823l-.64.64 1.131 1.131.64-.64c.254.15.53.265.823.341v.905h1.6v-.905c.293-.076.569-.191.823-.341l.64.64 1.131-1.131-.64-.64c.15-.254.265-.53.341-.823zm-4 .8c-.882 0-1.6-.718-1.6-1.6s.718-1.6 1.6-1.6 1.6.718 1.6 1.6-.718 1.6-1.6 1.6z" fill="#f0f0f0"/></g></g></g></svg>