<svg enable-background="new 0 0 512 512" viewBox="0 0 512 512" xmlns="http://www.w3.org/2000/svg"><g id="_x31_5_Timesheets"><g><path d="m376.493 92.679v319.978c0 16.137-13.081 29.218-29.218 29.218h-249.645c-16.137 0-29.218-13.081-29.218-29.218v-319.978c0-16.137 13.081-29.218 29.218-29.218h249.644c16.137 0 29.219 13.081 29.219 29.218z" fill="#c2d5ea"/><path d="m336.158 90.207v276.87c0 13.174-10.68 23.853-23.853 23.853h-260.384c-13.174 0-23.853-10.68-23.853-23.853v-330.74c0-13.174 10.68-23.853 23.853-23.853h206.513c30.227 30.227 47.496 47.496 77.724 77.723z" fill="#fff"/><path d="m336.158 90.207h-64.87c-7.099 0-12.854-5.755-12.854-12.854v-64.87c25.907 25.909 51.815 51.817 77.724 77.724z" fill="#c2d5ea"/><path d="m158.739 63.461c0 8.548-6.93 15.478-15.478 15.478h-68.544c-8.548 0-15.478-6.93-15.478-15.478 0-8.548 6.93-15.478 15.478-15.478h68.544c8.548 0 15.478 6.929 15.478 15.478z" fill="#85dafa"/><ellipse cx="375.339" cy="390.931" fill="#fff" rx="108.586" ry="108.586" transform="matrix(.707 -.707 .707 .707 -166.496 379.906)"/><ellipse cx="375.339" cy="390.931" fill="#85dafa" rx="83.088" ry="83.088" transform="matrix(.707 -.707 .707 .707 -166.496 379.906)"/><g fill="#404f7c"><path d="m51.907 397.395h10.053v15.286c0 19.655 15.989 35.646 35.646 35.646h153.26c3.577 0 6.477-2.899 6.477-6.477 0-3.577-2.899-6.477-6.477-6.477h-153.26c-12.513 0-22.693-10.18-22.693-22.693v-15.286h165.955c3.577 0 6.477-2.899 6.477-6.477s-2.899-6.477-6.477-6.477h-188.961c-9.568 0-17.355-7.787-17.355-17.358v-330.765c0-9.571 7.787-17.358 17.355-17.358h200.048v58.395c0 10.658 8.672 19.328 19.333 19.328h58.385v165.586c0 3.577 2.899 6.477 6.477 6.477 3.577 0 6.477-2.899 6.477-6.477v-172.067c0-3.374-2.606-5.191-3.656-6.342-4.92-4.944-9.521-9.555-13.885-13.917h22.205c12.543 0 22.744 10.203 22.744 22.746v163.777c0 3.577 2.899 6.477 6.477 6.477 3.577 0 6.477-2.899 6.477-6.477v-163.777c0-19.685-16.014-35.699-35.697-35.699h-35.193l-49.089-49.085c-1.158-1.159-3.105-1.897-4.579-1.897h-206.524c-16.712 0-30.308 13.598-30.308 30.311v330.767c0 16.712 13.595 30.31 30.308 30.31zm219.381-313.665c-3.517 0-6.38-2.859-6.38-6.375v-49.237c4.234 4.233 49.156 49.151 55.617 55.612z"/><path d="m143.261 41.506h-68.545c-12.108 0-21.954 9.849-21.954 21.954s9.846 21.954 21.954 21.954h68.545c12.108 0 21.954-9.849 21.954-21.954s-9.846-21.954-21.954-21.954zm0 30.956h-68.545c-4.964 0-9.001-4.038-9.001-9.001s4.038-9.001 9.001-9.001h68.545c4.964 0 9.001 4.038 9.001 9.001s-4.038 9.001-9.001 9.001z"/><path d="m490.401 390.931c0-63.444-51.62-115.062-115.064-115.062s-115.059 51.617-115.059 115.062 51.615 115.062 115.059 115.062 115.064-51.617 115.064-115.062zm-115.064 102.109c-56.3 0-102.106-45.806-102.106-102.109s45.806-102.109 102.106-102.109c56.305 0 102.111 45.806 102.111 102.109s-45.806 102.109-102.111 102.109z"/><path d="m375.337 301.366c-49.147 0-89.563 39.964-89.563 89.566 0 49.152 39.967 89.563 89.563 89.563 49.157 0 89.568-39.966 89.568-89.563 0-49.191-40.005-89.566-89.568-89.566zm56.715 96.042h19.572c-1.371 16.261-7.815 31.082-17.777 42.873l-13.827-13.827c-2.53-2.53-6.628-2.53-9.158 0s-2.53 6.628 0 9.158l13.827 13.827c-11.792 9.962-26.615 16.404-42.875 17.775v-19.572c0-3.577-2.899-6.477-6.477-6.477-3.577 0-6.477 2.899-6.477 6.477v19.572c-16.26-1.371-31.08-7.812-42.871-17.773l13.828-13.828c2.53-2.53 2.53-6.628 0-9.158s-6.628-2.53-9.158 0l-13.829 13.829c-9.962-11.791-16.405-26.613-17.776-42.874h19.572c3.577 0 6.477-2.899 6.477-6.477 0-3.577-2.899-6.477-6.477-6.477h-19.572c1.371-16.261 7.814-31.083 17.775-42.875l13.829 13.829c2.53 2.53 6.628 2.53 9.158 0s2.53-6.628 0-9.158l-13.829-13.829c11.791-9.962 26.612-16.404 42.872-17.775v19.575c0 3.577 2.899 6.477 6.477 6.477 3.577 0 6.477-2.899 6.477-6.477v-19.575c16.261 1.371 31.083 7.814 42.876 17.777l-13.828 13.828c-2.53 2.53-2.53 6.628 0 9.158s6.628 2.53 9.158 0l13.828-13.828c9.962 11.792 16.406 26.613 17.777 42.873h-19.572c-3.577 0-6.477 2.899-6.477 6.477.001 3.576 2.9 6.475 6.477 6.475z"/><path d="m381.814 388.437v-30.966c0-3.577-2.899-6.477-6.477-6.477-3.577 0-6.477 2.899-6.477 6.477v33.46c0 1.606.597 3.155 1.675 4.346l16.707 18.463c2.408 2.655 6.497 2.852 9.148.455 2.651-2.398 2.854-6.494.455-9.148z"/><path d="m301.141 127.206h-238.057c-3.577 0-6.477 2.899-6.477 6.477 0 3.577 2.899 6.477 6.477 6.477h238.057c3.577 0 6.477-2.899 6.477-6.477-.001-3.578-2.9-6.477-6.477-6.477z"/><path d="m63.084 339.673h159.368c3.577 0 6.477-2.899 6.477-6.477 0-3.577-2.899-6.477-6.477-6.477h-159.368c-3.577 0-6.477 2.899-6.477 6.477s2.899 6.477 6.477 6.477z"/><path d="m63.084 187.119h45.907c3.577 0 6.477-2.899 6.477-6.477s-2.899-6.477-6.477-6.477h-45.907c-3.577 0-6.477 2.899-6.477 6.477s2.899 6.477 6.477 6.477z"/><path d="m301.141 174.166h-157.374c-3.577 0-6.477 2.899-6.477 6.477s2.899 6.477 6.477 6.477h157.374c3.577 0 6.477-2.899 6.477-6.477s-2.9-6.477-6.477-6.477z"/><path d="m63.084 275.87c-3.577 0-6.477 2.899-6.477 6.477 0 3.577 2.899 6.477 6.477 6.477h45.907c3.577 0 6.477-2.899 6.477-6.477 0-3.577-2.899-6.477-6.477-6.477z"/><path d="m302.578 282.321c0-3.577-2.899-6.477-6.477-6.477h-152.329c-3.577 0-6.477 2.899-6.477 6.477 0 3.577 2.899 6.477 6.477 6.477h152.329c3.577-.001 6.477-2.9 6.477-6.477z"/><path d="m301.141 225.016h-45.907c-3.577 0-6.477 2.899-6.477 6.477s2.899 6.477 6.477 6.477h45.907c3.577 0 6.477-2.899 6.477-6.477s-2.9-6.477-6.477-6.477z"/><path d="m226.939 231.493c0-3.577-2.899-6.477-6.477-6.477h-157.378c-3.577 0-6.477 2.899-6.477 6.477s2.899 6.477 6.477 6.477h157.379c3.577 0 6.476-2.9 6.476-6.477z"/></g></g></g><g id="Layer_1"/></svg>