<svg height="512" viewBox="0 0 22.559 21.578" width="512" xmlns="http://www.w3.org/2000/svg"><g id="Layer_2" data-name="Layer 2"><g id="Layer_1-2" data-name="Layer 1"><g id="package_tracking" data-name="package tracking"><path d="m.981 14.375a2.2 2.2 0 0 1 2.2-2.194h16.178a3.206 3.206 0 0 0 0-6.411h-16.259v-1.006l-2.622 1.514 2.622 1.514v-1h16.259a2.194 2.194 0 0 1 0 4.388h-16.183a3.2 3.2 0 0 0 0 6.4h18.88v-1.021h-18.88a2.19 2.19 0 0 1 -2.195-2.184z" fill="#525c6b"/><path d="m5.202 18.866 6.065 2.712v-7.193l-6.065-2.712z" fill="#ffbd66"/><path d="m11.267 8.97-6.065 2.703 2.347 1.047h.005l6.055-2.703z" fill="#e49a61"/><path d="m14.645 10.474h-.005l-6.06 2.713 2.687 1.198 6.065-2.712z" fill="#e49a61"/><path d="m14.645 10.474-1.036-.457-6.055 2.703h-.005l1.031.467 6.06-2.713z" fill="#fddc85"/><path d="m17.332 18.866-6.065 2.712v-7.193l6.065-2.712z" fill="#fddc85"/><path d="m11.267 0a3.4 3.4 0 0 0 -3.408 3.4c0 2.722 3.408 6.918 3.408 6.918s3.409-4.2 3.409-6.918a3.405 3.405 0 0 0 -3.409-3.4z" fill="#2ba0bf"/><path d="m12.837 3.434a1.572 1.572 0 0 1 -3.144 0 1.572 1.572 0 0 1 3.144 0z" fill="#e2e2e2"/></g></g></g></svg>