<svg id="Capa_1" enable-background="new 0 0 512 512" height="512" viewBox="0 0 512 512" width="512" xmlns="http://www.w3.org/2000/svg"><g><g id="_x36_9-updated_1_"><g><path d="m467 512h-91v-30c8.262 0 15-6.724 15-15s-6.738-15-15-15v-30h91c24.814 0 45 20.186 45 45s-20.186 45-45 45z" fill="#f0e6e1"/></g><g><path d="m376 512h-331c-24.814 0-45-20.186-45-45s20.186-45 45-45h331c24.814 0 45 20.186 45 45s-20.186 45-45 45z" fill="#8cd96b"/></g><g><path d="m211 242h-30v150h30c24.814 0 45-20.186 45-45v-60c0-24.814-20.186-45-45-45zm15 105c0 8.276-6.738 15-15 15v-90c8.262 0 15 6.724 15 15z" fill="#4d5e80"/><g fill="#3d4b66"><path d="m308.5 242c-20.684 0-37.5 16.816-37.5 37.5 0 5.552 0 118.354 0 112.5h30v-60h15v60h30c0-6.984 0-115.581 0-112.5 0-20.684-16.816-37.5-37.5-37.5zm-7.5 60v-22.5c0-8.262 15-8.262 15 0v22.5z"/><path d="m361 242v30h22.5v120h30v-120h22.5v-30c-7.052 0-78.021 0-75 0z"/><path d="m512 272v-30h-60c0 11.515 0 157.508 0 150h60v-30h-30v-30h15v-30h-15v-30z"/></g><path d="m45 354.5c0 8.262-15 8.262-15 0v-112.5h-30v112.5c0 20.684 16.816 37.5 37.5 37.5s37.5-16.816 37.5-37.5v-112.5h-30z" fill="#4d5e80"/><path d="m121 242h-30c0 11.515 0 157.508 0 150h30v-60c24.814 0 45-20.186 45-45s-20.186-45-45-45zm0 60v-30c8.262 0 15 6.724 15 15s-6.738 15-15 15z" fill="#4d5e80"/></g><g fill="#6cf"><path d="m376 83.789-15 15v-23.789c0-41.353-33.633-75-75-75h-75v30h75c24.814 0 45 20.186 45 45v23.789l-15-15-21.211 21.211 51.211 51.211 51.211-51.211z"/><path d="m211 135v-23.789l15 15 21.211-21.211-51.211-51.211-51.211 51.211 21.211 21.211 15-15v23.789c0 41.353 33.633 75 75 75h75v-30h-75c-24.814 0-45-20.186-45-45z"/></g></g><path d="m376 422h-120v90h120c24.814 0 45-20.186 45-45s-20.186-45-45-45z" fill="#5ab267"/><g fill="#59abff"><path d="m361 98.789v-23.789c0-41.353-33.633-75-75-75h-30v30h30c24.814 0 45 20.186 45 45v23.789l-15-15-21.211 21.211 51.211 51.211 51.211-51.211-21.211-21.211z"/><path d="m256 180h75v30h-75z"/></g></g></svg>